<svg width="822" height="1038" viewBox="0 0 822 1038" fill="none" xmlns="http://www.w3.org/2000/svg">
<g filter="url(#filter0_d_150_181)">
<path d="M512.618 1.50641C497.602 5.4494 485.642 13.094 480.767 21.8651L479.207 24.601L467.832 25.0839C455.417 25.5667 451.257 26.5323 440.532 30.9581C427.597 36.2691 415.311 44.9597 404.976 56.0645C392.756 69.181 385.151 86.8037 382.226 108.45C381.381 115.048 381.251 119.716 381.511 130.579C382.031 150.696 383.981 159.789 393.991 189.965C400.361 208.956 402.311 216.681 404.716 232.855C409.006 262.146 414.076 274.78 425.322 284.275C431.627 289.586 436.177 291.437 444.042 291.759C451.777 292.161 455.677 290.793 462.047 285.482C481.027 269.63 488.957 245.247 486.682 210.002C485.772 196 480.572 154.881 481.092 165.663C481.287 169.445 482.197 179.906 483.107 188.999C485.187 208.795 485.382 222.555 483.822 229.958C481.352 241.224 475.762 249.754 467.702 254.582C461.332 258.364 457.172 259.249 448.267 258.847C441.962 258.525 439.947 258.042 435.397 255.95C421.812 249.673 414.271 239.856 410.631 223.762C409.916 220.624 408.291 210.726 406.991 201.714C404.261 183.286 403.091 179.021 395.161 158.019C388.141 139.591 385.151 128.728 384.761 120.198C383.981 103.944 390.676 87.6888 405.171 70.7099C416.091 57.9153 429.417 48.259 445.537 41.4191C455.352 37.2347 474.787 31.0386 476.022 31.6019C476.477 31.8433 476.867 33.1308 476.867 34.4183C476.867 37.0738 477.777 37.7175 481.287 37.7175C483.952 37.7175 488.242 35.4644 494.872 30.5558C502.412 25.0839 516.193 19.5315 530.818 16.2323C538.163 14.6229 561.888 14.4619 573.068 15.9909C600.109 19.6924 619.674 32.2456 641.189 59.7661C645.219 64.9966 648.274 68.5372 647.949 67.7325C646.454 64.4333 640.149 55.2598 633.649 47.0519C612.069 20.0143 589.123 7.38068 553.243 2.71347C547.913 2.0697 540.958 1.10406 537.903 0.701721C529.778 -0.50531 518.923 -0.102966 512.618 1.50641Z" fill="#5A0609"/>
<path d="M612.069 63.7897C612.069 66.928 624.874 78.435 633.194 82.6999C645.999 89.2984 656.789 89.9421 680.71 85.5163C703.33 81.3319 715.875 81.4929 726.795 86.2405C728.55 86.9648 729.46 87.9304 729.59 88.9765C729.72 90.1835 730.175 90.5054 731.085 90.264C732.125 89.9421 732.32 90.264 732.32 92.2757C732.32 95.0117 731.15 96.4601 730.305 94.7703C729.33 92.839 729.655 107.967 730.63 112.071C731.54 115.692 731.475 116.256 730.045 120.842C729.2 123.578 727.64 131.223 726.47 137.821C722.05 163.732 718.345 172.745 706.385 186.746C689.29 206.864 662.575 225.854 639.759 234.062C623.444 239.856 612.849 241.385 583.469 242.029L559.743 242.512L559.548 245.167C559.353 247.662 559.548 247.903 562.798 249.673C567.348 252.168 573.914 254.582 581.194 256.352C585.679 257.398 590.034 257.72 600.044 257.72C611.224 257.64 614.279 257.318 621.819 255.548C653.539 247.983 684.74 227.786 706.71 200.668C718.735 185.861 722.96 175.883 726.145 154.8C729.135 135.005 730.89 130.418 739.47 119.394C746.751 110.059 747.596 107.806 747.596 96.8625C747.596 86.9648 746.751 82.378 744.346 79.3202C741.616 76.021 739.795 75.9405 735.18 78.8374C732.905 80.2054 730.565 81.171 729.915 80.9296C729.265 80.6882 726.535 79.5616 723.87 78.3546C718.085 75.86 708.53 73.9288 701.77 73.9288C696.05 73.9288 682.855 75.7796 675.445 77.5499C656.529 82.2171 639.304 78.7569 618.959 66.2037C612.654 62.3412 612.069 62.0998 612.069 63.7897ZM737.52 105.714C737.52 106.358 737.065 106.921 736.545 106.921C736.025 106.921 735.57 106.358 735.57 105.714C735.57 105.07 736.025 104.507 736.545 104.507C737.065 104.507 737.52 105.07 737.52 105.714ZM734.92 109.255C734.92 109.738 734.66 110.301 734.27 110.542C733.945 110.784 733.62 110.462 733.62 109.818C733.62 109.094 733.945 108.53 734.27 108.53C734.66 108.53 734.92 108.852 734.92 109.255Z" fill="#5A0609"/>
<path d="M569.818 80.6883C565.853 81.7344 562.473 83.5852 560.068 86.0798C558.183 88.011 558.443 87.9306 563.383 84.9532C568.128 82.1368 572.418 81.1712 580.608 81.1712C584.379 81.1712 587.499 80.8493 587.694 80.3665C588.279 79.2399 574.238 79.4813 569.818 80.6883Z" fill="#5A0609"/>
<path d="M599.069 94.046C592.699 98.7937 584.964 102.012 577.749 102.978C574.239 103.38 569.558 104.024 567.218 104.346L562.993 104.909L563.123 107.726C563.188 109.898 563.773 111.105 565.723 113.117C569.493 117.06 573.459 118.428 580.219 118.026C585.354 117.704 586.524 117.382 591.399 114.405C594.974 112.152 597.964 109.577 600.304 106.599C603.554 102.576 603.879 101.852 604.139 97.8281C604.594 90.8273 604.009 90.4249 599.069 94.046Z" fill="#5A0609"/>
<path d="M656.854 155.766C656.009 157.134 656.009 157.134 657.244 156.007C657.959 155.364 658.674 154.72 658.804 154.639C658.934 154.478 658.804 154.398 658.414 154.398C658.024 154.398 657.309 155.042 656.854 155.766Z" fill="#5A0609"/>
<path d="M677.59 160.755C674.47 162.364 671.87 164.135 671.87 164.698C671.87 166.066 673.495 165.422 679.215 161.962C681.62 160.433 683.57 158.824 683.57 158.421C683.57 157.938 683.505 157.697 683.44 157.697C683.31 157.777 680.71 159.145 677.59 160.755Z" fill="#5A0609"/>
<path d="M642.944 169.687C642.424 170.733 643.919 170.733 645.219 169.687C645.999 169.043 645.934 168.882 644.764 168.882C643.984 168.882 643.139 169.204 642.944 169.687Z" fill="#5A0609"/>
<path d="M382.551 264.399C375.856 271.883 370.591 284.275 365.326 304.875C359.086 329.257 357.916 333.2 354.341 342.293C347.126 360.64 339.326 373.113 320.28 396.61C305.785 414.474 293.24 428.234 271.79 449.719C241.564 480.056 230.839 493.816 203.539 537.35C183.064 570.101 175.784 579.918 152.123 606.795C134.378 626.993 123.783 641.799 114.423 659.341C96.1578 693.782 85.3676 732.971 79.7776 785.034C76.3325 816.98 75.0325 855.284 77.0475 866.388C77.6325 869.688 77.7625 871.699 77.3075 872.263C74.6425 875.562 33.367 836.695 22.8369 820.923C9.05673 800.243 6.9117 765.883 16.9868 728.384C21.6019 711.244 27.7119 698.047 42.0121 674.631C58.9123 646.869 64.3074 634.235 68.9224 611.543C72.3675 594.725 72.8225 589.977 72.8225 565.997C72.8875 545.8 72.7575 542.5 71.3925 534.051C68.7924 517.153 64.8924 507.174 56.1823 494.863C49.0972 484.884 36.7471 473.86 32.652 473.86C29.012 473.86 31.092 479.091 37.8521 487.138C40.4521 490.115 46.3672 499.369 49.6822 505.404C61.5123 527.05 68.0124 556.663 65.4124 576.619C63.0724 594.805 57.0273 609.048 39.4121 638.098C35.122 645.098 29.662 654.513 27.3869 658.859C14.7118 682.758 7.88671 711.566 4.83168 753.893C2.88165 781.011 4.31167 799.358 9.64173 813.601C11.3318 818.268 13.0868 820.762 23.7469 833.718C48.1872 863.572 60.6023 874.918 73.9275 879.746L79.2576 881.597L81.0776 888.437C86.6677 909.6 97.6528 926.74 113.643 939.213C120.273 944.363 131.063 950.398 133.923 950.559C135.678 950.64 135.938 950.318 136.133 948.467C136.263 947.26 136.133 945.731 135.808 945.168C135.548 944.524 131.648 940.259 127.163 935.672C105.063 912.9 90.3077 890.288 83.9376 869.527C81.2726 860.756 79.5176 844.581 79.9726 833.155C80.3626 822.533 83.6776 785.919 85.3026 774.412C90.6327 735.707 106.168 696.357 129.178 663.365C135.158 654.755 147.963 639.224 158.493 627.637C171.169 613.876 181.764 599.07 202.564 566.4C233.309 517.877 239.939 509.427 278.16 469.917C289.665 458.088 302.925 444.006 307.54 438.695C326.975 416.566 340.496 394.759 350.441 369.653C356.226 355.088 358.826 345.995 363.506 323.785C370.266 292 374.166 280.412 382.681 266.652C384.436 263.755 385.736 261.422 385.541 261.422C385.346 261.422 384.046 262.79 382.551 264.399Z" fill="#5A0609"/>
<path d="M713.795 288.701C691.37 299.323 686.105 303.105 676.094 315.738C670.179 323.222 669.139 324.188 665.759 325.395C661.144 327.085 658.089 326.682 649.509 323.383C646.129 322.095 640.994 320.647 638.004 320.084C631.049 318.877 617.919 319.601 608.429 321.693C592.959 325.234 584.963 329.257 569.168 341.328C557.923 349.857 552.983 351.949 544.468 351.869C535.758 351.789 529.388 348.972 509.108 336.258C499.942 330.545 492.077 325.797 491.622 325.797C490.257 325.878 487.072 333.039 486.097 338.189C485.447 341.649 485.317 345.271 485.577 350.581C486.357 365.227 489.087 376.332 496.757 397.254C507.483 426.222 513.918 444.328 513.918 445.535C513.918 446.501 513.333 446.581 510.798 446.179C504.882 445.213 495.652 441.029 476.932 430.809C470.757 427.43 465.492 424.935 465.232 425.176C464.517 426.142 467.117 427.832 479.727 434.672C494.352 442.719 500.917 445.616 509.628 448.11L516.063 449.961L518.273 456.077C522.888 468.791 547.588 528.338 552.073 537.592C553.308 540.167 554.153 542.581 553.958 542.983C553.698 543.386 552.073 544.11 550.253 544.593C538.878 547.65 525.033 556.1 513.918 566.641C492.792 586.839 477.062 611.704 446.642 673.021C440.272 685.816 430.197 705.611 424.217 716.877C411.606 740.615 408.876 746.409 403.156 761.135C387.686 801.128 379.561 844.662 380.991 880.229C382.031 906.382 387.491 953.376 392.106 976.309C396.136 996.105 401.986 1012.84 407.706 1020.89C410.696 1025.15 417.001 1029.9 419.601 1029.9C421.552 1029.9 427.857 1026.28 431.432 1023.06C434.227 1020.57 435.072 1020.25 438.712 1020.25C448.137 1020.17 457.952 1017.91 478.492 1010.99C493.767 1005.84 503.712 1003.35 518.793 1000.85C528.348 999.243 532.638 999.002 549.993 999.002C573.068 999.002 575.538 999.404 604.789 1007.69C628.254 1014.37 651.849 1019.52 674.144 1022.82C685.325 1024.43 714.64 1024.19 723.545 1022.42C761.895 1014.61 787.961 992.645 804.341 954.18C813.831 931.971 819.876 897.932 817.471 879.586C814.091 852.789 810.906 842.811 801.871 830.821C790.626 815.774 770.606 807.566 751.82 810.221C748.44 810.704 745.45 811.509 745.19 812.072C744.41 813.601 744.605 820.441 745.515 821.245C745.905 821.648 749.22 823.016 752.73 824.223C783.476 834.684 805.251 854.399 811.036 877.011C815.586 894.875 810.776 918.774 797.776 942.593C792.576 952.088 778.796 969.148 770.996 975.666C754.29 989.748 734.595 998.117 711.91 1000.85C692.735 1003.19 672.259 1001.66 638.719 995.3C611.094 990.07 593.999 988.138 570.143 987.495C535.238 986.609 516.583 989.345 464.842 1003.03C444.627 1008.42 442.027 1008.98 441.377 1007.85C440.857 1006.89 439.427 1006.57 435.462 1006.57C425.712 1006.57 417.131 1001.82 408.876 991.679C404.326 986.127 403.091 984.034 400.296 976.792C394.901 963.032 390.481 939.294 386.841 904.531C383.136 868.964 384.956 843.133 393.211 813.038C399.906 788.816 405.561 775.056 426.167 732.971C433.187 718.567 443.717 696.921 449.567 684.77C469.197 643.891 482.912 620.153 497.017 602.611C510.863 585.31 525.228 572.515 543.883 560.847C549.733 557.146 554.673 554.007 554.803 553.847C554.933 553.686 555.193 552.398 555.453 551.03C556.103 547.168 557.078 547.329 559.223 551.674C563.968 561.169 564.943 560.284 564.943 546.443C564.943 534.212 564.618 533.085 556.493 518.118C553.503 512.566 548.238 501.381 544.793 493.173C534.588 469.193 515.803 425.981 505.987 404.013C500.982 392.828 495.652 380.114 494.092 375.849C487.982 358.709 485.122 342.937 487.462 339.074C488.437 337.546 488.892 337.787 504.557 347.443C531.338 363.859 535.563 365.629 546.418 364.985C554.608 364.583 556.753 363.617 569.493 354.766C584.378 344.466 593.999 339.799 607.649 336.178C612.979 334.729 616.619 334.327 625.394 334.327C637.419 334.246 639.759 334.729 651.394 339.235C659.844 342.535 665.109 343.017 668.814 340.764C670.439 339.799 672.649 336.982 675.119 333.039C681.62 322.417 687.665 317.428 706.775 306.726C723.285 297.472 726.145 296.184 727.575 297.311C729.395 298.679 731.28 306.243 736.22 331.269C741.55 358.467 742.395 365.468 741.875 378.504C741.485 388.965 740.51 395.725 737.845 406.105C736.87 409.807 736.285 413.026 736.415 413.186C736.935 413.83 739.34 406.025 740.64 399.426C742.525 390.092 742.85 386.229 742.85 374.32C742.785 357.582 741.42 347.363 734.595 312.52C732.32 301.013 730.11 289.505 729.72 286.93C729.135 283.47 728.68 282.344 727.9 282.424C727.315 282.505 720.945 285.321 713.795 288.701Z" fill="#5A0609"/>
<path d="M462.567 460.985C440.467 461.709 448.982 462.836 478.037 462.997C500.463 463.077 506.963 463.399 511.968 464.445C519.183 465.974 520.613 466.135 519.118 465.009C516.518 463.158 486.032 459.698 477.517 460.341C476.282 460.422 469.522 460.744 462.567 460.985Z" fill="#5A0609"/>
<path d="M502.543 483.195C498.968 483.758 491.102 484.965 484.992 485.931C478.947 486.816 473.682 487.942 473.292 488.425C472.837 489.149 473.422 489.23 475.567 488.908C477.192 488.586 482.132 487.862 486.617 487.138C502.543 484.724 510.343 483.275 511.643 482.631C513.528 481.666 510.473 481.907 502.543 483.195Z" fill="#5A0609"/>
<path d="M244.49 659.422C238.314 661.112 229.409 665.538 222.649 670.286C211.144 678.332 180.464 709.152 180.464 712.612C180.464 713.658 180.659 714.463 180.854 714.463C181.049 714.463 186.834 710.681 193.724 706.175C212.574 693.541 222.129 688.552 235.064 684.609C243.775 681.954 260.155 681.954 267.825 684.529C281.02 689.035 291.355 696.599 302.08 709.635C318.85 729.994 326.975 754.376 323.92 775.217C322.1 787.609 318.33 797.105 306.63 818.268C302.86 825.108 295.775 838.225 290.835 847.398C279.72 868.079 273.155 878.298 266.525 885.058C263.665 887.954 259.05 892.783 256.125 895.76C249.105 902.922 246.31 906.784 245.465 910.969C244.555 914.912 245.01 920.384 246.245 921.349C248.065 922.798 253.265 922.073 256.645 919.981C260.675 917.406 261.52 917.487 279.59 921.591C301.105 926.499 315.6 932.856 325.675 941.708C334.256 949.272 343.941 964.561 344.721 971.803C345.046 974.539 344.851 975.102 342.576 977.517C339.521 980.896 334.581 983.632 327.755 985.805C323.595 987.092 319.695 987.495 309.295 987.817C294.345 988.299 284.075 987.495 261.065 983.954C239.419 980.655 230.644 980.172 222.064 982.023C215.044 983.552 203.214 988.38 184.689 997.151C175.589 1001.42 173.574 1002.62 173.444 1004.07C173.314 1004.96 173.509 1005.76 173.899 1005.76C175.199 1005.76 187.094 1003.35 197.689 1000.85C226.224 994.254 230.969 994.093 259.765 998.439C288.755 1002.78 294.735 1003.35 310.79 1003.35C331.136 1003.35 337.376 1001.58 343.356 994.174C346.086 990.874 346.996 989.024 348.101 984.517C352.846 965.366 343.551 937.684 327.235 922.476C321.255 916.923 312.545 912.015 303.315 909.037C295.645 906.543 294.54 906.462 283.295 906.382C274.195 906.382 271.465 906.14 271.465 905.336C271.465 904.772 273.61 900.99 276.21 896.887C282.645 886.828 283.75 884.816 297.92 858.503C312.545 831.385 313.91 828.488 318.59 816.578C322.49 806.439 325.415 795.978 327.17 785.92C328.925 775.781 328.73 752.364 326.78 741.018C322.945 718.889 315.08 700.864 302.34 685.011C291.94 672.136 282.32 664.653 270.685 660.468C264.315 658.215 250.925 657.652 244.49 659.422Z" fill="#5A0609"/>
<path d="M697.545 674.068C686.69 687.264 682.074 694.909 678.109 706.658C669.724 731.12 667.449 764.354 669.269 835.489C670.049 864.457 671.219 879.988 673.429 890.932C675.314 900.025 678.044 907.83 679.149 907.428C681.879 906.301 683.634 886.345 682.009 875.804C676.094 837.742 675.509 829.775 675.509 792.518C675.509 765.159 675.639 761.457 676.939 753.088C680.774 727.499 688.575 704.404 702.875 676.482C706.645 669.078 707.685 666.503 707.49 664.572C707.295 662.158 707.1 662.4 697.545 674.068Z" fill="#5A0609"/>
</g>
<defs>
<filter id="filter0_d_150_181" x="0" y="0" width="822" height="1037.9" filterUnits="userSpaceOnUse" color-interpolation-filters="sRGB">
<feFlood flood-opacity="0" result="BackgroundImageFix"/>
<feColorMatrix in="SourceAlpha" type="matrix" values="0 0 0 0 0 0 0 0 0 0 0 0 0 0 0 0 0 0 127 0" result="hardAlpha"/>
<feOffset dy="4"/>
<feGaussianBlur stdDeviation="2"/>
<feComposite in2="hardAlpha" operator="out"/>
<feColorMatrix type="matrix" values="0 0 0 0 0 0 0 0 0 0 0 0 0 0 0 0 0 0 0.5 0"/>
<feBlend mode="normal" in2="BackgroundImageFix" result="effect1_dropShadow_150_181"/>
<feBlend mode="normal" in="SourceGraphic" in2="effect1_dropShadow_150_181" result="shape"/>
</filter>
</defs>
</svg>
