<svg width="40" height="41" viewBox="0 0 40 41" fill="none" xmlns="http://www.w3.org/2000/svg">
<path d="M15.8485 0C7.10488 0 0 7.11663 0 15.8747C0 24.6328 7.10488 31.7495 15.8485 31.7495C19.3081 31.7495 22.5055 30.6333 25.1129 28.7438L37.378 41L40 38.3737L27.8806 26.205C30.2622 23.4254 31.697 19.8179 31.697 15.8747C31.697 7.11663 24.5921 0 15.8485 0ZM15.8485 1.86762C23.5834 1.86762 29.8325 8.12705 29.8325 15.8747C29.8325 23.6224 23.5834 29.8819 15.8485 29.8819C8.11362 29.8819 1.86453 23.6224 1.86453 15.8747C1.86453 8.12705 8.11362 1.86762 15.8485 1.86762Z" fill="#C4703F"/>
</svg>
