<svg width="27" height="27" viewBox="0 0 27 27" fill="none" xmlns="http://www.w3.org/2000/svg">
<path fill-rule="evenodd" clip-rule="evenodd" d="M16.3931 1.92853C16.1374 1.92853 15.8921 1.82694 15.7113 1.6461C15.5304 1.46527 15.4288 1.22 15.4288 0.964264C15.4288 0.708525 15.5304 0.463261 15.7113 0.282426C15.8921 0.101592 16.1374 0 16.3931 0H26.0357C26.2915 0 26.5367 0.101592 26.7176 0.282426C26.8984 0.463261 27 0.708525 27 0.964264V10.6069C27 10.8626 26.8984 11.1079 26.7176 11.2887C26.5367 11.4696 26.2915 11.5712 26.0357 11.5712C25.78 11.5712 25.5347 11.4696 25.3539 11.2887C25.1731 11.1079 25.0715 10.8626 25.0715 10.6069V3.292L17.1086 11.2549C18.6742 13.1703 19.4437 15.6141 19.2581 18.081C19.0724 20.5478 17.9458 22.849 16.1112 24.5085C14.2765 26.168 11.8743 27.0589 9.40123 26.997C6.92818 26.935 4.57353 25.925 2.82427 24.1757C1.07501 22.4265 0.0649589 20.0718 0.00302551 17.5988C-0.0589079 15.1257 0.832011 12.7235 2.49152 10.8888C4.15103 9.0542 6.45217 7.92756 8.91902 7.74191C11.3859 7.55627 13.8297 8.32582 15.7451 9.89142L23.708 1.92853H16.3931ZM9.64325 9.64264C7.59734 9.64264 5.63523 10.4554 4.18855 11.902C2.74188 13.3487 1.92914 15.3108 1.92914 17.3567C1.92914 19.4027 2.74188 21.3648 4.18855 22.8114C5.63523 24.2581 7.59734 25.0709 9.64325 25.0709C11.6892 25.0709 13.6513 24.2581 15.098 22.8114C16.5446 21.3648 17.3574 19.4027 17.3574 17.3567C17.3574 15.3108 16.5446 13.3487 15.098 11.902C13.6513 10.4554 11.6892 9.64264 9.64325 9.64264Z" fill="#89CFF0"/>
</svg>
