<svg width="39" height="39" viewBox="0 0 39 39" fill="none" xmlns="http://www.w3.org/2000/svg">
<path d="M30.5381 34.6583C29.9421 30.1388 27.7277 27 19.5 27C11.2722 27 9.05779 30.1387 8.46178 34.6581M30.5381 34.6583C35.2125 31.2486 38.25 25.7289 38.25 19.5C38.25 9.14466 29.8552 0.75 19.5 0.75C9.14466 0.75 0.75 9.14466 0.75 19.5C0.75 25.7289 3.78735 31.2484 8.46178 34.6581M30.5381 34.6583C27.4414 36.9171 23.6263 38.25 19.5 38.25C15.3736 38.25 11.5584 36.9171 8.46178 34.6581M25.125 15.75C25.125 18.8567 22.6067 21.375 19.5 21.375C16.3933 21.375 13.875 18.8567 13.875 15.75C13.875 12.6434 16.3933 10.125 19.5 10.125C22.6067 10.125 25.125 12.6434 25.125 15.75Z" stroke="#5A0609" stroke-width="1.5" stroke-linecap="round"/>
</svg>
