<svg width="52" height="52" viewBox="0 0 52 52" fill="none" xmlns="http://www.w3.org/2000/svg">
<g filter="url(#filter0_d_310_150)">
<path d="M6.79216 33.3544L7.69416 32.9227L7.69412 32.9226L6.79216 33.3544ZM7.06164 35.7511L6.09564 35.4926L6.09562 35.4926L7.06164 35.7511ZM6.37823 38.3055L7.34424 38.5639L7.34425 38.5639L6.37823 38.3055ZM9.69456 41.6217L9.95298 42.5877L9.95307 42.5877L9.69456 41.6217ZM12.2488 40.9382L11.9905 39.9721L11.9903 39.9722L12.2488 40.9382ZM14.6454 41.2078L14.2136 42.1097L14.2136 42.1097L14.6454 41.2078ZM38.912 27.0321L39.3271 27.9419L39.3274 27.9417L38.912 27.0321ZM41.3138 26.773L41.0553 27.739L41.0553 27.739L41.3138 26.773ZM42.3057 27.0384L42.0472 28.0044L42.0473 28.0044L42.3057 27.0384ZM45.622 23.7221L46.588 23.4637L46.588 23.4636L45.622 23.7221ZM45.3565 22.7303L46.3225 22.4718L46.3225 22.4717L45.3565 22.7303ZM45.6157 20.3284L46.5253 20.7439L46.5253 20.7438L45.6157 20.3284ZM14.5798 25.1665C14.0275 25.1665 13.5798 25.6142 13.5798 26.1665C13.5798 26.7188 14.0275 27.1665 14.5798 27.1665V26.1665V25.1665ZM14.5986 27.1665C15.1509 27.1665 15.5986 26.7188 15.5986 26.1665C15.5986 25.6142 15.1509 25.1665 14.5986 25.1665V26.1665V27.1665ZM21.8522 25.1665C21.2999 25.1665 20.8522 25.6142 20.8522 26.1665C20.8522 26.7188 21.2999 27.1665 21.8522 27.1665V26.1665V25.1665ZM21.8709 27.1665C22.4232 27.1665 22.8709 26.7188 22.8709 26.1665C22.8709 25.6142 22.4232 25.1665 21.8709 25.1665V26.1665V27.1665ZM29.1251 25.1665C28.5728 25.1665 28.1251 25.6142 28.1251 26.1665C28.1251 26.7188 28.5728 27.1665 29.1251 27.1665V26.1665V25.1665ZM29.1438 27.1665C29.6961 27.1665 30.1438 26.7188 30.1438 26.1665C30.1438 25.6142 29.6961 25.1665 29.1438 25.1665V26.1665V27.1665ZM21.8334 42.8332V43.8332C31.5905 43.8332 39.5001 35.9236 39.5001 26.1665H38.5001H37.5001C37.5001 34.819 30.4859 41.8332 21.8334 41.8332V42.8332ZM38.5001 26.1665H39.5001C39.5001 16.4095 31.5905 8.49984 21.8334 8.49984V9.49984V10.4998C30.4859 10.4998 37.5001 17.514 37.5001 26.1665H38.5001ZM21.8334 9.49984V8.49984C12.0764 8.49984 4.16675 16.4095 4.16675 26.1665H5.16675H6.16675C6.16675 17.514 13.1809 10.4998 21.8334 10.4998V9.49984ZM5.16675 26.1665H4.16675C4.16675 28.8931 4.78513 31.4781 5.89021 33.7862L6.79216 33.3544L7.69412 32.9226C6.71537 30.8783 6.16675 28.5878 6.16675 26.1665H5.16675ZM6.79216 33.3544L5.89017 33.7862C6.16365 34.3575 6.23821 34.9598 6.09564 35.4926L7.06164 35.7511L8.02765 36.0096C8.31383 34.9403 8.13689 33.8476 7.69416 32.9227L6.79216 33.3544ZM7.06164 35.7511L6.09562 35.4926L5.4122 38.047L6.37823 38.3055L7.34425 38.5639L8.02767 36.0095L7.06164 35.7511ZM6.37823 38.3055L5.41221 38.047C4.67461 40.8036 7.19658 43.3251 9.95298 42.5877L9.69456 41.6217L9.43614 40.6557C8.16612 40.9954 7.00451 39.8336 7.34424 38.5639L6.37823 38.3055ZM9.69456 41.6217L9.95307 42.5877L12.5073 41.9042L12.2488 40.9382L11.9903 39.9722L9.43605 40.6557L9.69456 41.6217ZM12.2488 40.9382L12.5071 41.9042C13.0402 41.7617 13.6425 41.8363 14.2136 42.1097L14.6454 41.2078L15.0772 40.3058C14.1522 39.8629 13.0597 39.6863 11.9905 39.9721L12.2488 40.9382ZM14.6454 41.2078L14.2136 42.1097C16.5219 43.2147 19.1068 43.8332 21.8334 43.8332V42.8332V41.8332C19.4121 41.8332 17.1216 41.2845 15.0772 40.3058L14.6454 41.2078ZM38.5001 27.2119L38.8846 28.135C39.0338 28.0729 39.1813 28.0084 39.3271 27.9419L38.912 27.0321L38.4968 26.1224C38.3705 26.18 38.2435 26.2355 38.1156 26.2888L38.5001 27.2119ZM38.912 27.0321L39.3274 27.9417C39.9184 27.6718 40.5248 27.597 41.0553 27.739L41.3138 26.773L41.5723 25.807C40.5008 25.5202 39.4142 25.7033 38.4965 26.1225L38.912 27.0321ZM41.3138 26.773L41.0553 27.739L42.0472 28.0044L42.3057 27.0384L42.5642 26.0724L41.5723 25.8069L41.3138 26.773ZM42.3057 27.0384L42.0473 28.0044C44.8037 28.7418 47.3254 26.2201 46.588 23.4637L45.622 23.7221L44.6559 23.9806C44.9956 25.2504 43.834 26.412 42.5641 26.0723L42.3057 27.0384ZM45.622 23.7221L46.588 23.4636L46.3225 22.4718L45.3565 22.7303L44.3905 22.9888L44.6559 23.9806L45.622 23.7221ZM45.3565 22.7303L46.3225 22.4717C46.1806 21.9412 46.2554 21.3348 46.5253 20.7439L45.6157 20.3284L44.7061 19.9129C44.2869 20.8307 44.1038 21.9172 44.3905 22.9888L45.3565 22.7303ZM45.6157 20.3284L46.5253 20.7438C47.3655 18.9042 47.8334 16.8595 47.8334 14.7082H46.8334H45.8334C45.8334 16.567 45.4296 18.3288 44.7061 19.9129L45.6157 20.3284ZM46.8334 14.7082H47.8334C47.8334 6.67704 41.323 0.166504 33.2917 0.166504V1.1665V2.1665C40.2184 2.1665 45.8334 7.7816 45.8334 14.7082H46.8334ZM33.2917 1.1665V0.166504C27.2447 0.166504 22.062 3.85726 19.8691 9.1051L20.7917 9.49067L21.7144 9.87624C23.6073 5.34654 28.0793 2.1665 33.2917 2.1665V1.1665ZM14.5798 26.1665V27.1665H14.5986V26.1665V25.1665H14.5798V26.1665ZM21.8522 26.1665V27.1665H21.8709V26.1665V25.1665H21.8522V26.1665ZM29.1251 26.1665V27.1665H29.1438V26.1665V25.1665H29.1251V26.1665Z" fill="#C4703F"/>
</g>
<defs>
<filter id="filter0_d_310_150" x="0.166748" y="0.166504" width="51.6667" height="51.6665" filterUnits="userSpaceOnUse" color-interpolation-filters="sRGB">
<feFlood flood-opacity="0" result="BackgroundImageFix"/>
<feColorMatrix in="SourceAlpha" type="matrix" values="0 0 0 0 0 0 0 0 0 0 0 0 0 0 0 0 0 0 127 0" result="hardAlpha"/>
<feOffset dy="4"/>
<feGaussianBlur stdDeviation="2"/>
<feComposite in2="hardAlpha" operator="out"/>
<feColorMatrix type="matrix" values="0 0 0 0 0 0 0 0 0 0 0 0 0 0 0 0 0 0 0.25 0"/>
<feBlend mode="normal" in2="BackgroundImageFix" result="effect1_dropShadow_310_150"/>
<feBlend mode="normal" in="SourceGraphic" in2="effect1_dropShadow_310_150" result="shape"/>
</filter>
</defs>
</svg>
