<svg width="150" height="150" viewBox="0 0 150 150" fill="none" xmlns="http://www.w3.org/2000/svg">
<path d="M59.056 86.0346C59.056 87.3965 58.6962 88.7278 58.0221 89.8602C57.3479 90.9926 56.3897 91.8752 55.2687 92.3964C54.1476 92.9176 52.914 93.054 51.7239 92.7883C50.5338 92.5226 49.4406 91.8667 48.5826 90.9037C47.7246 89.9407 47.1403 88.7137 46.9036 87.378C46.6668 86.0422 46.7883 84.6576 47.2527 83.3994C47.717 82.1411 48.5034 81.0657 49.5123 80.309C50.5213 79.5524 51.7074 79.1485 52.9208 79.1485C54.548 79.1485 56.1085 79.874 57.2591 81.1654C58.4096 82.4568 59.056 84.2083 59.056 86.0346ZM97.0941 79.1485C95.8806 79.1485 94.6945 79.5524 93.6855 80.309C92.6766 81.0657 91.8903 82.1411 91.4259 83.3994C90.9615 84.6576 90.84 86.0422 91.0768 87.378C91.3135 88.7137 91.8978 89.9407 92.7558 90.9037C93.6139 91.8667 94.707 92.5226 95.8972 92.7883C97.0873 93.054 98.3208 92.9176 99.4419 92.3964C100.563 91.8752 101.521 90.9926 102.195 89.8602C102.869 88.7278 103.229 87.3965 103.229 86.0346C103.229 84.2083 102.583 82.4568 101.432 81.1654C100.282 79.874 98.7212 79.1485 97.0941 79.1485ZM137.445 86.5303C136.311 87.1134 135.079 87.4163 133.831 87.4186C132.698 87.416 131.578 87.1567 130.536 86.6561C129.494 86.1556 128.554 85.4243 127.77 84.5059V116.333C127.77 123.273 125.314 129.929 120.941 134.836C116.569 139.743 110.639 142.5 104.456 142.5H45.5586C39.3755 142.5 33.4456 139.743 29.0734 134.836C24.7013 129.929 22.245 123.273 22.245 116.333V84.5059C21.4592 85.4226 20.517 86.1523 19.4745 86.6516C18.4321 87.1508 17.3107 87.4094 16.1773 87.4118C14.9321 87.4084 13.702 87.1055 12.5699 86.5235C10.8028 85.6526 9.35334 84.1311 8.46094 82.2105C7.56854 80.2899 7.2866 78.0851 7.66172 75.9603L17.7357 15.3632C17.9516 14.0712 18.4007 12.8423 19.0553 11.7522C19.7099 10.6621 20.5563 9.7338 21.5424 9.02435C22.5284 8.31491 23.6333 7.83931 24.7892 7.6268C25.9451 7.41429 27.1274 7.46935 28.2636 7.78861L28.4109 7.83681L60.8107 18.5515H89.2042L121.592 7.87124L121.739 7.82304C122.875 7.50378 124.058 7.44871 125.213 7.66123C126.369 7.87374 127.474 8.34934 128.46 9.05879C129.446 9.76823 130.293 10.6965 130.947 11.7866C131.602 12.8767 132.051 14.1056 132.267 15.3977L142.341 75.9947C142.712 78.1138 142.429 80.3116 141.54 82.2265C140.65 84.1413 139.206 85.6592 137.445 86.5303ZM54.0743 24.9348L26.4415 15.7971C26.2859 15.7561 26.1244 15.7514 25.9672 15.7834C25.8099 15.8154 25.6602 15.8833 25.5273 15.983C25.3869 16.0851 25.2665 16.2185 25.1736 16.3748C25.0808 16.5311 25.0174 16.7071 24.9874 16.8919L14.9135 77.489C14.8613 77.7926 14.9016 78.1071 15.028 78.3818C15.1544 78.6566 15.3595 78.8756 15.6103 79.0036C15.8611 79.1316 16.1429 79.1612 16.4105 79.0875C16.6781 79.0139 16.9158 78.8413 17.0853 78.5976L54.0743 24.9348ZM120.408 116.333V73.9358L87.9281 26.8147H62.0868L29.6072 73.9358V116.333C29.6072 121.081 31.2878 125.635 34.2793 128.993C37.2708 132.35 41.3281 134.237 45.5586 134.237H71.3264V123.55L62.5899 113.744C61.9396 112.961 61.5856 111.925 61.6025 110.854C61.6193 109.784 62.0056 108.763 62.6801 108.006C63.3545 107.249 64.2644 106.815 65.2181 106.796C66.1717 106.777 67.0947 107.175 67.7925 107.905L75.0075 115.996L82.2224 107.905C82.9202 107.175 83.8432 106.777 84.7968 106.796C85.7505 106.815 86.6604 107.249 87.3348 108.006C88.0093 108.763 88.3956 109.784 88.4124 110.854C88.4293 111.925 88.0753 112.961 87.425 113.744L78.6886 123.55V134.237H104.456C108.687 134.237 112.744 132.35 115.736 128.993C118.727 125.635 120.408 121.081 120.408 116.333ZM135.132 77.4959L125.058 16.8988C125.027 16.7152 124.964 16.5406 124.871 16.3855C124.778 16.2304 124.658 16.0982 124.518 15.9968C124.245 15.8074 123.919 15.741 123.604 15.8108L95.9959 24.921L133.003 78.6321C133.18 78.8554 133.416 79.0083 133.677 79.0678C133.937 79.1273 134.208 79.0901 134.448 78.962C134.688 78.8338 134.885 78.6215 135.008 78.3571C135.132 78.0927 135.175 77.7904 135.132 77.4959Z" fill="#C4703F"/>
</svg>
