<svg width="136" height="138" viewBox="0 0 136 138" fill="none" xmlns="http://www.w3.org/2000/svg">
<path d="M69 0C30.9258 0 0 30.9258 0 69C0 107.074 30.9258 138 69 138C98.7539 138 116.918 124.312 126.375 107.344C135.832 90.375 137.027 70.4414 134.156 56.8125L133.594 54.4688H131.25L69 54.375H66V85.5938H100.312C95.1328 97.5938 84.5859 105.844 69 105.844C48.6328 105.844 32.1562 89.3672 32.1562 69C32.1562 48.6328 48.6328 32.1562 69 32.1562C78.1523 32.1562 86.4609 35.543 92.9062 41.0625L95.0625 42.8438L115.594 22.3125L117.75 20.0625L115.5 18C103.242 6.83202 86.8828 0 69 0ZM69 6C84.2227 6 97.957 11.5664 108.844 20.5312L94.4062 34.9688C87.2695 29.6367 78.5977 26.1562 69 26.1562C45.3867 26.1562 26.1562 45.3867 26.1562 69C26.1562 92.6133 45.3867 111.844 69 111.844C88.6523 111.844 102.785 99.7969 107.812 83.4375L109.031 79.5938H72V60.375L128.531 60.4688C130.523 72.5742 129.199 89.9531 121.125 104.438C112.547 119.812 96.9609 132 69 132C34.1602 132 6 103.828 6 69C6 34.1719 34.1602 6 69 6Z" fill="#5A0609"/>
</svg>
