<svg width="36" height="39" viewBox="0 0 36 39" fill="none" xmlns="http://www.w3.org/2000/svg">
<path d="M17.9512 0.000725573C17.6313 0.0116454 17.3234 0.124563 17.0723 0.322989L2.85937 11.52C1.05547 12.9416 0 15.114 0 17.4106V36.5C0 37.8636 1.13641 39 2.5 39H12.5C13.8636 39 15 37.8636 15 36.5V26.5002C15 26.2052 15.205 26.0002 15.5 26.0002H20.5C20.795 26.0002 21 26.2052 21 26.5002V36.5C21 37.8636 22.1364 39 23.5 39H33.5C34.8636 39 36 37.8636 36 36.5V17.4106C36 15.114 34.9445 12.9417 33.1406 11.5201L18.9277 0.322999C18.6504 0.103884 18.3045 -0.0102642 17.9512 0.000725573ZM18 3.41082L31.2852 13.8774C32.3693 14.7318 33 16.0312 33 17.4106V36H24V26.5002C24 24.5853 22.4149 23.0003 20.5 23.0003H15.5C13.585 23.0003 12 24.5853 12 26.5002V36H3V17.4106C3 16.0312 3.63074 14.7318 4.71484 13.8774L18 3.41082Z" fill="#C4703F"/>
</svg>
