<svg width="388" height="263" viewBox="0 0 388 263" fill="none" xmlns="http://www.w3.org/2000/svg">
<g clip-path="url(#clip0_298_376)">
<path d="M127.724 238.488C127.076 238.195 126.364 238.082 125.678 238.164C124.992 238.246 124.363 238.519 123.87 238.949C123.377 239.378 123.043 239.945 122.909 240.577C122.776 241.209 122.849 241.878 123.12 242.499C123.391 243.121 123.847 243.667 124.431 244.069C125.015 244.471 125.7 244.71 126.401 244.756C127.101 244.803 127.784 244.654 128.365 244.33C128.945 244.005 129.396 243.519 129.661 242.933C130.017 242.147 130.012 241.237 129.649 240.403C129.286 239.57 128.593 238.881 127.724 238.488ZM125.491 243.427C125.059 243.232 124.689 242.925 124.428 242.546C124.167 242.166 124.026 241.731 124.024 241.295C124.022 240.859 124.159 240.442 124.416 240.097C124.674 239.752 125.041 239.494 125.471 239.356C125.902 239.218 126.376 239.206 126.834 239.321C127.293 239.436 127.714 239.674 128.046 240.004C128.377 240.334 128.604 240.742 128.697 241.175C128.79 241.608 128.746 242.048 128.569 242.439C128.332 242.963 127.875 243.362 127.298 243.547C126.72 243.732 126.071 243.689 125.491 243.427ZM106.723 232.563C106.988 231.976 107.055 231.317 106.915 230.666C106.776 230.016 106.436 229.405 105.938 228.91C105.441 228.415 104.808 228.058 104.121 227.885C103.434 227.712 102.722 227.731 102.077 227.938C101.431 228.145 100.88 228.532 100.494 229.05C100.107 229.568 99.9029 230.193 99.9061 230.847C99.9093 231.5 100.12 232.153 100.512 232.722C100.903 233.291 101.458 233.752 102.106 234.045C102.976 234.438 103.95 234.502 104.816 234.224C105.682 233.946 106.368 233.349 106.723 232.563ZM102.553 233.057C102.121 232.861 101.751 232.555 101.49 232.175C101.229 231.796 101.088 231.36 101.086 230.925C101.084 230.489 101.22 230.072 101.478 229.727C101.735 229.382 102.103 229.124 102.533 228.986C102.964 228.847 103.438 228.835 103.896 228.951C104.354 229.066 104.776 229.304 105.108 229.634C105.439 229.964 105.666 230.371 105.759 230.805C105.852 231.238 105.808 231.678 105.631 232.069C105.394 232.593 104.937 232.991 104.359 233.177C103.782 233.362 103.132 233.319 102.553 233.057ZM111.34 231.08C111.988 231.373 112.7 231.486 113.386 231.404C114.072 231.322 114.702 231.049 115.194 230.62C115.687 230.19 116.022 229.624 116.155 228.992C116.289 228.36 116.215 227.69 115.944 227.069C115.673 226.447 115.217 225.901 114.633 225.499C114.049 225.097 113.364 224.858 112.664 224.812C111.963 224.765 111.28 224.914 110.7 225.238C110.119 225.563 109.668 226.049 109.403 226.635C109.048 227.421 109.052 228.331 109.415 229.165C109.778 229.998 110.471 230.688 111.34 231.08ZM113.573 226.141C114.005 226.336 114.375 226.643 114.636 227.023C114.897 227.402 115.038 227.837 115.04 228.273C115.042 228.709 114.906 229.126 114.648 229.471C114.391 229.816 114.023 230.074 113.593 230.212C113.162 230.35 112.688 230.363 112.23 230.247C111.772 230.132 111.35 229.894 111.019 229.564C110.687 229.234 110.46 228.827 110.367 228.393C110.274 227.96 110.318 227.52 110.495 227.129C110.732 226.605 111.189 226.207 111.767 226.021C112.344 225.836 112.994 225.879 113.573 226.141ZM121.171 235.525C121.819 235.818 122.531 235.93 123.217 235.848C123.903 235.766 124.532 235.493 125.025 235.064C125.518 234.635 125.852 234.068 125.986 233.436C126.119 232.804 126.046 232.135 125.775 231.513C125.504 230.892 125.048 230.345 124.464 229.944C123.88 229.542 123.194 229.303 122.494 229.256C121.794 229.21 121.111 229.358 120.53 229.683C119.95 230.008 119.499 230.494 119.234 231.08C118.878 231.866 118.883 232.776 119.246 233.609C119.609 234.443 120.301 235.132 121.171 235.525ZM123.404 230.585C123.836 230.781 124.206 231.088 124.467 231.467C124.728 231.847 124.868 232.282 124.871 232.718C124.873 233.153 124.736 233.57 124.479 233.915C124.221 234.261 123.854 234.518 123.424 234.657C122.993 234.795 122.519 234.807 122.061 234.692C121.602 234.576 121.181 234.339 120.849 234.009C120.518 233.679 120.291 233.271 120.198 232.838C120.105 232.404 120.149 231.964 120.326 231.574C120.563 231.05 121.02 230.651 121.597 230.466C122.174 230.28 122.824 230.324 123.404 230.585ZM120.246 245.274C119.281 244.088 118.832 242.626 118.996 241.211C119.131 240.034 118.849 238.82 118.193 237.751C117.538 236.681 116.544 235.814 115.362 235.279C114.179 234.744 112.872 234.571 111.636 234.786C110.4 235 109.302 235.591 108.508 236.469C107.555 237.527 106.163 238.155 104.638 238.216C103.283 238.259 102.037 238.79 101.158 239.7C100.279 240.61 99.8341 241.829 99.9154 243.105C99.9967 244.38 100.598 245.614 101.595 246.552C102.592 247.49 103.908 248.059 105.271 248.142C107.925 248.322 110.475 249.475 112.364 251.349C113.324 252.323 114.622 252.942 115.987 253.075C117.353 253.208 118.681 252.846 119.696 252.064C120.711 251.282 121.334 250.14 121.436 248.876C121.539 247.612 121.112 246.323 120.245 245.276L120.246 245.274ZM114.571 251.578C114.054 251.346 113.585 251.021 113.193 250.623C111.081 248.526 108.229 247.237 105.259 247.036C104.707 247.006 104.159 246.871 103.648 246.639C102.796 246.255 102.085 245.624 101.628 244.848C101.17 244.071 100.991 243.192 101.12 242.352C101.25 241.511 101.679 240.756 102.341 240.206C103.002 239.657 103.858 239.344 104.773 239.318C105.682 239.283 106.562 239.079 107.362 238.719C108.161 238.358 108.865 237.848 109.432 237.217C110.068 236.514 110.946 236.042 111.935 235.87C112.924 235.698 113.97 235.837 114.916 236.264C115.862 236.692 116.657 237.386 117.182 238.242C117.706 239.098 117.931 240.07 117.824 241.011C117.725 241.854 117.808 242.72 118.066 243.56C118.325 244.399 118.754 245.194 119.33 245.9C119.913 246.605 120.243 247.454 120.267 248.314C120.291 249.174 120.007 249.994 119.46 250.646C118.914 251.298 118.136 251.744 117.251 251.913C116.365 252.081 115.422 251.963 114.571 251.578Z" fill="#5A0609"/>
</g>
<g clip-path="url(#clip1_298_376)">
<path d="M39.3111 230.809C38.7673 230.35 38.1128 230.048 37.4303 229.94C36.7478 229.832 36.0679 229.923 35.4768 230.202C34.8856 230.481 34.4096 230.935 34.109 231.507C33.8084 232.079 33.6967 232.742 33.788 233.414C33.8793 234.086 34.1695 234.736 34.6219 235.282C35.0743 235.827 35.6687 236.244 36.3297 236.48C36.9908 236.715 37.6889 236.758 38.3358 236.604C38.9826 236.45 39.5492 236.105 39.9639 235.613C40.5199 234.954 40.7635 234.077 40.6411 233.176C40.5187 232.275 40.0402 231.424 39.3111 230.809ZM35.8168 234.953C35.4543 234.647 35.1819 234.251 35.0341 233.815C34.8862 233.379 34.8696 232.922 34.9863 232.502C35.1029 232.082 35.3477 231.718 35.6895 231.456C36.0314 231.194 36.455 231.046 36.9068 231.03C37.3586 231.015 37.8183 231.132 38.2278 231.368C38.6373 231.604 38.9781 231.947 39.2072 232.355C39.4364 232.763 39.5435 233.217 39.515 233.659C39.4866 234.102 39.3239 234.513 39.0474 234.841C38.6767 235.28 38.1281 235.539 37.5223 235.56C36.9164 235.581 36.303 235.363 35.8168 234.953ZM20.7184 219.386C21.133 218.895 21.3771 218.278 21.4198 217.614C21.4625 216.951 21.3018 216.27 20.9581 215.658C20.6144 215.046 20.1031 214.531 19.4889 214.177C18.8747 213.824 18.1851 213.647 17.5074 213.671C16.8297 213.694 16.1943 213.917 15.6815 214.31C15.1687 214.702 14.8017 215.248 14.6267 215.878C14.4517 216.508 14.4766 217.193 14.6984 217.848C14.9201 218.502 15.3287 219.096 15.8725 219.555C16.6017 220.17 17.5219 220.497 18.4307 220.466C19.3394 220.434 20.1624 220.046 20.7184 219.386ZM16.5713 218.726C16.2088 218.42 15.9364 218.024 15.7886 217.588C15.6408 217.152 15.6241 216.695 15.7408 216.275C15.8574 215.855 16.1022 215.491 16.444 215.229C16.7859 214.967 17.2095 214.819 17.6613 214.803C18.1131 214.788 18.5728 214.905 18.9823 215.141C19.3918 215.377 19.7326 215.72 19.9618 216.128C20.1909 216.536 20.298 216.99 20.2696 217.432C20.2411 217.875 20.0784 218.286 19.8019 218.614C19.4312 219.053 18.8826 219.312 18.2768 219.333C17.6709 219.354 17.0575 219.136 16.5713 218.726ZM25.5643 219.218C26.108 219.676 26.7626 219.979 27.4451 220.087C28.1276 220.195 28.8074 220.104 29.3986 219.825C29.9898 219.546 30.4657 219.092 30.7664 218.52C31.067 217.948 31.1787 217.284 31.0874 216.612C30.9961 215.94 30.7059 215.291 30.2534 214.745C29.801 214.199 29.2067 213.782 28.5456 213.547C27.8846 213.312 27.1865 213.268 26.5396 213.423C25.8927 213.577 25.3261 213.922 24.9115 214.413C24.3554 215.073 24.1118 215.949 24.2343 216.851C24.3567 217.752 24.8351 218.603 25.5643 219.218ZM29.0585 215.074C29.421 215.379 29.6934 215.775 29.8413 216.212C29.9891 216.648 30.0057 217.105 29.8891 217.525C29.7724 217.945 29.5277 218.309 29.1858 218.571C28.844 218.833 28.4204 218.981 27.9686 218.996C27.5167 219.012 27.057 218.895 26.6476 218.659C26.2381 218.423 25.8972 218.079 25.6681 217.672C25.439 217.264 25.3318 216.81 25.3603 216.367C25.3887 215.925 25.5515 215.514 25.8279 215.186C26.1986 214.746 26.7472 214.488 27.3531 214.467C27.9589 214.445 28.5724 214.664 29.0585 215.074ZM33.8123 226.172C34.3561 226.631 35.0106 226.933 35.6931 227.041C36.3756 227.149 37.0555 227.058 37.6466 226.779C38.2378 226.5 38.7138 226.046 39.0144 225.474C39.315 224.903 39.4267 224.239 39.3354 223.567C39.2441 222.895 38.9539 222.245 38.5015 221.699C38.0491 221.154 37.4547 220.737 36.7937 220.502C36.1326 220.266 35.4345 220.223 34.7876 220.377C34.1408 220.531 33.5742 220.876 33.1595 221.368C32.6035 222.027 32.3599 222.904 32.4823 223.805C32.6047 224.706 33.0832 225.558 33.8123 226.172ZM37.3066 222.028C37.6691 222.334 37.9415 222.73 38.0893 223.166C38.2372 223.602 38.2538 224.059 38.1371 224.479C38.0205 224.899 37.7757 225.263 37.4339 225.525C37.092 225.787 36.6684 225.935 36.2166 225.951C35.7648 225.967 35.3051 225.849 34.8956 225.613C34.4861 225.377 34.1453 225.034 33.9162 224.626C33.687 224.218 33.5799 223.764 33.6084 223.322C33.6368 222.879 33.7995 222.468 34.076 222.14C34.4467 221.701 34.9953 221.442 35.6011 221.421C36.207 221.4 36.8205 221.618 37.3066 222.028ZM30.267 235.301C29.6617 233.897 29.6273 232.368 30.1714 231.051C30.621 229.956 30.6806 228.711 30.3413 227.503C30.0021 226.295 29.2823 225.19 28.2901 224.353C27.298 223.517 26.087 222.994 24.8394 222.864C23.5917 222.734 22.3746 223.003 21.3712 223.631C20.1668 224.39 18.6564 224.615 17.1718 224.258C15.8565 223.93 14.5129 224.102 13.4192 224.738C12.3255 225.374 11.5654 226.426 11.2962 227.675C11.027 228.925 11.2694 230.276 11.9731 231.45C12.6768 232.624 13.788 233.53 15.0767 233.981C17.5819 234.877 19.7213 236.681 21.0279 238.999C21.6864 240.198 22.7667 241.146 24.0444 241.647C25.322 242.147 26.6987 242.16 27.8881 241.684C29.0776 241.208 29.9884 240.28 30.4311 239.091C30.8738 237.903 30.8144 236.546 30.2653 235.303L30.267 235.301ZM23.0891 239.82C22.655 239.456 22.2925 239.016 22.0237 238.527C20.5629 235.934 18.1695 233.916 15.3669 232.914C14.844 232.734 14.3534 232.455 13.9245 232.093C13.2101 231.491 12.6978 230.691 12.4689 229.819C12.2399 228.946 12.3075 228.053 12.6608 227.279C13.0141 226.505 13.6329 225.896 14.4192 225.547C15.2055 225.199 16.1142 225.131 17.0014 225.355C17.8862 225.569 18.7881 225.612 19.6556 225.483C20.5232 225.354 21.3392 225.055 22.057 224.603C22.8598 224.1 23.8336 223.884 24.8319 223.989C25.8302 224.093 26.7992 224.511 27.593 225.18C28.3869 225.85 28.9628 226.734 29.2341 227.7C29.5055 228.667 29.4576 229.663 29.0977 230.539C28.7732 231.324 28.6166 232.18 28.6366 233.057C28.6566 233.935 28.853 234.818 29.2145 235.654C29.5844 236.491 29.6704 237.398 29.459 238.232C29.2476 239.065 28.7509 239.778 28.0475 240.256C27.3442 240.735 26.4745 240.951 25.5763 240.872C24.6781 240.794 23.8027 240.423 23.0891 239.82Z" fill="#C4703F"/>
</g>
<g clip-path="url(#clip2_298_376)">
<path d="M102.398 155.668C101.867 155.194 101.221 154.874 100.542 154.747C99.863 154.62 99.1809 154.692 98.5822 154.955C97.9835 155.217 97.4951 155.658 97.1788 156.221C96.8624 156.784 96.7323 157.445 96.8049 158.119C96.8776 158.793 97.1496 159.451 97.5868 160.009C98.0239 160.567 98.6064 161 99.2607 161.254C99.9149 161.507 100.612 161.57 101.262 161.434C101.913 161.298 102.489 160.969 102.917 160.489C103.492 159.845 103.759 158.975 103.662 158.071C103.565 157.167 103.11 156.302 102.398 155.668ZM98.7903 159.713C98.4365 159.398 98.1751 158.994 98.0395 158.554C97.9038 158.114 97.8998 157.657 98.0281 157.24C98.1564 156.824 98.4111 156.467 98.7601 156.214C99.1091 155.962 99.5366 155.826 99.9887 155.822C100.441 155.819 100.897 155.949 101.3 156.197C101.703 156.444 102.034 156.797 102.252 157.211C102.469 157.625 102.564 158.081 102.523 158.523C102.482 158.964 102.308 159.371 102.023 159.691C101.64 160.12 101.084 160.363 100.478 160.368C99.8721 160.372 99.2649 160.136 98.7903 159.713ZM84.1296 143.734C84.5578 143.254 84.8189 142.644 84.88 141.982C84.941 141.32 84.7993 140.635 84.4727 140.014C84.1461 139.393 83.6493 138.863 83.0452 138.493C82.441 138.122 81.7566 137.927 81.0785 137.931C80.4004 137.936 79.7591 138.141 79.2356 138.519C78.7121 138.898 78.33 139.433 78.1376 140.058C77.9452 140.683 77.9511 141.368 78.1546 142.029C78.3582 142.689 78.7501 143.294 79.281 143.768C79.9928 144.402 80.9035 144.756 81.8128 144.749C82.7221 144.743 83.5555 144.378 84.1296 143.734ZM80.0025 142.959C79.6486 142.643 79.3873 142.24 79.2517 141.799C79.116 141.359 79.112 140.902 79.2403 140.485C79.3686 140.069 79.6233 139.712 79.9723 139.46C80.3213 139.207 80.7488 139.071 81.2009 139.068C81.653 139.065 82.1092 139.195 82.512 139.442C82.9148 139.689 83.246 140.042 83.4637 140.456C83.6814 140.87 83.7759 141.327 83.7352 141.768C83.6945 142.209 83.5204 142.616 83.235 142.936C82.8522 143.365 82.2967 143.609 81.6905 143.613C81.0842 143.617 80.4771 143.382 80.0025 142.959ZM88.9783 143.7C89.5092 144.173 90.1551 144.494 90.8343 144.621C91.5135 144.748 92.1956 144.675 92.7943 144.413C93.393 144.15 93.8814 143.71 94.1978 143.147C94.5141 142.583 94.6442 141.923 94.5716 141.249C94.499 140.574 94.2269 139.917 93.7898 139.359C93.3527 138.801 92.7702 138.368 92.1159 138.114C91.4616 137.86 90.765 137.798 90.1141 137.934C89.4632 138.07 88.8872 138.399 88.4591 138.879C87.885 139.523 87.6171 140.392 87.7145 141.296C87.8119 142.201 88.2665 143.065 88.9783 143.7ZM92.5862 139.654C92.9401 139.97 93.2014 140.373 93.3371 140.814C93.4728 141.254 93.4767 141.711 93.3484 142.127C93.2202 142.544 92.9654 142.901 92.6165 143.153C92.2675 143.406 91.8399 143.542 91.3878 143.545C90.9358 143.548 90.4795 143.418 90.0767 143.171C89.6739 142.924 89.3428 142.571 89.125 142.157C88.9073 141.743 88.8128 141.286 88.8535 140.845C88.8942 140.403 89.0683 139.997 89.3537 139.677C89.7365 139.248 90.2921 139.004 90.8983 139C91.5045 138.996 92.1117 139.231 92.5862 139.654ZM97.0303 150.881C97.5611 151.354 98.207 151.674 98.8862 151.801C99.5655 151.928 100.248 151.856 100.846 151.593C101.445 151.331 101.933 150.89 102.25 150.327C102.566 149.764 102.696 149.103 102.624 148.429C102.551 147.755 102.279 147.097 101.842 146.539C101.405 145.981 100.822 145.548 100.168 145.295C99.5135 145.041 98.8169 144.978 98.166 145.114C97.5151 145.251 96.9392 145.58 96.511 146.06C95.9369 146.703 95.6691 147.573 95.7664 148.477C95.8638 149.381 96.3184 150.246 97.0303 150.881ZM100.638 146.835C100.992 147.15 101.253 147.554 101.389 147.994C101.525 148.434 101.529 148.892 101.4 149.308C101.272 149.725 101.017 150.082 100.668 150.334C100.319 150.586 99.8918 150.723 99.4398 150.726C98.9877 150.729 98.5314 150.599 98.1286 150.352C97.7259 150.105 97.3947 149.752 97.177 149.338C96.9592 148.924 96.8647 148.467 96.9055 148.025C96.9462 147.584 97.1202 147.178 97.4057 146.857C97.7884 146.428 98.344 146.185 98.9502 146.181C99.5564 146.176 100.164 146.412 100.638 146.835ZM93.233 159.907C92.6669 158.487 92.675 156.958 93.2554 155.656C93.7351 154.574 93.8293 153.331 93.5237 152.114C93.2181 150.898 92.5292 149.773 91.5606 148.909C90.5921 148.045 89.3961 147.489 88.1525 147.324C86.9089 147.159 85.6849 147.395 84.6644 147.995C83.4394 148.72 81.9233 148.903 80.4493 148.505C79.1436 148.141 77.7957 148.275 76.6848 148.881C75.5739 149.486 74.7849 150.517 74.4811 151.758C74.1774 152.999 74.3821 154.357 75.053 155.55C75.7239 156.743 76.8095 157.679 78.0852 158.166C80.5645 159.132 82.653 160.994 83.8949 163.347C84.5198 164.564 85.5734 165.542 86.8367 166.078C88.1 166.613 89.4757 166.665 90.6779 166.222C91.8801 165.779 92.8163 164.876 93.2919 163.7C93.7674 162.525 93.7457 161.167 93.2312 159.909L93.233 159.907ZM85.9324 164.226C85.5086 163.85 85.1584 163.4 84.9034 162.903C83.5151 160.27 81.1786 158.187 78.4048 157.108C77.8872 156.913 77.4045 156.62 76.9858 156.247C76.2884 155.626 75.7985 154.811 75.5938 153.933C75.3892 153.055 75.4815 152.163 75.8561 151.4C76.2308 150.636 76.8663 150.044 77.6619 149.717C78.4576 149.391 79.3678 149.348 80.2484 149.597C81.127 149.835 82.0274 149.904 82.8981 149.799C83.7689 149.694 84.5929 149.418 85.323 148.985C86.1395 148.505 87.1188 148.317 88.1139 148.448C89.1089 148.58 90.0659 149.025 90.8409 149.716C91.6159 150.407 92.167 151.307 92.4114 152.281C92.6559 153.254 92.5803 154.249 92.1963 155.115C91.8502 155.89 91.6698 156.741 91.6655 157.619C91.6612 158.497 91.833 159.385 92.1711 160.231C92.5176 161.078 92.5784 161.987 92.344 162.814C92.1096 163.642 91.5932 164.34 90.8769 164.799C90.1605 165.258 89.2851 165.45 88.3895 165.346C87.4938 165.243 86.6291 164.848 85.9324 164.226Z" fill="#5A0609"/>
</g>
<g clip-path="url(#clip3_298_376)">
<path d="M170.398 186.668C169.867 186.194 169.221 185.874 168.542 185.747C167.863 185.62 167.181 185.692 166.582 185.955C165.984 186.217 165.495 186.658 165.179 187.221C164.862 187.784 164.732 188.445 164.805 189.119C164.878 189.793 165.15 190.451 165.587 191.009C166.024 191.567 166.606 192 167.261 192.254C167.915 192.507 168.612 192.57 169.262 192.434C169.913 192.298 170.489 191.969 170.917 191.489C171.492 190.845 171.759 189.975 171.662 189.071C171.565 188.167 171.11 187.302 170.398 186.668ZM166.79 190.713C166.436 190.398 166.175 189.994 166.039 189.554C165.904 189.114 165.9 188.657 166.028 188.24C166.156 187.824 166.411 187.467 166.76 187.214C167.109 186.962 167.537 186.826 167.989 186.822C168.441 186.819 168.897 186.949 169.3 187.197C169.703 187.444 170.034 187.797 170.252 188.211C170.469 188.625 170.564 189.081 170.523 189.523C170.482 189.964 170.308 190.371 170.023 190.691C169.64 191.12 169.084 191.363 168.478 191.368C167.872 191.372 167.265 191.136 166.79 190.713ZM152.13 174.734C152.558 174.254 152.819 173.644 152.88 172.982C152.941 172.32 152.799 171.635 152.473 171.014C152.146 170.393 151.649 169.863 151.045 169.493C150.441 169.122 149.757 168.927 149.079 168.931C148.4 168.936 147.759 169.141 147.236 169.519C146.712 169.898 146.33 170.433 146.138 171.058C145.945 171.683 145.951 172.368 146.155 173.029C146.358 173.689 146.75 174.294 147.281 174.768C147.993 175.402 148.904 175.756 149.813 175.749C150.722 175.743 151.556 175.378 152.13 174.734ZM148.003 173.959C147.649 173.643 147.387 173.24 147.252 172.799C147.116 172.359 147.112 171.902 147.24 171.485C147.369 171.069 147.623 170.712 147.972 170.46C148.321 170.207 148.749 170.071 149.201 170.068C149.653 170.065 150.109 170.195 150.512 170.442C150.915 170.689 151.246 171.042 151.464 171.456C151.681 171.87 151.776 172.327 151.735 172.768C151.694 173.209 151.52 173.616 151.235 173.936C150.852 174.365 150.297 174.609 149.69 174.613C149.084 174.617 148.477 174.382 148.003 173.959ZM156.978 174.7C157.509 175.173 158.155 175.494 158.834 175.621C159.514 175.748 160.196 175.675 160.794 175.413C161.393 175.15 161.881 174.71 162.198 174.147C162.514 173.583 162.644 172.923 162.572 172.249C162.499 171.574 162.227 170.917 161.79 170.359C161.353 169.801 160.77 169.368 160.116 169.114C159.462 168.86 158.765 168.798 158.114 168.934C157.463 169.07 156.887 169.399 156.459 169.879C155.885 170.523 155.617 171.392 155.715 172.296C155.812 173.201 156.267 174.065 156.978 174.7ZM160.586 170.654C160.94 170.97 161.201 171.373 161.337 171.814C161.473 172.254 161.477 172.711 161.348 173.127C161.22 173.544 160.965 173.901 160.616 174.153C160.267 174.406 159.84 174.542 159.388 174.545C158.936 174.548 158.48 174.418 158.077 174.171C157.674 173.924 157.343 173.571 157.125 173.157C156.907 172.743 156.813 172.286 156.854 171.845C156.894 171.403 157.068 170.997 157.354 170.677C157.736 170.248 158.292 170.004 158.898 170C159.504 169.996 160.112 170.231 160.586 170.654ZM165.03 181.881C165.561 182.354 166.207 182.674 166.886 182.801C167.565 182.928 168.248 182.856 168.846 182.593C169.445 182.331 169.933 181.89 170.25 181.327C170.566 180.764 170.696 180.103 170.624 179.429C170.551 178.755 170.279 178.097 169.842 177.539C169.405 176.981 168.822 176.548 168.168 176.295C167.514 176.041 166.817 175.978 166.166 176.114C165.515 176.251 164.939 176.58 164.511 177.06C163.937 177.703 163.669 178.573 163.766 179.477C163.864 180.381 164.318 181.246 165.03 181.881ZM168.638 177.835C168.992 178.15 169.253 178.554 169.389 178.994C169.525 179.434 169.529 179.892 169.4 180.308C169.272 180.725 169.017 181.082 168.668 181.334C168.319 181.586 167.892 181.723 167.44 181.726C166.988 181.729 166.531 181.599 166.129 181.352C165.726 181.105 165.395 180.752 165.177 180.338C164.959 179.924 164.865 179.467 164.905 179.025C164.946 178.584 165.12 178.178 165.406 177.857C165.788 177.428 166.344 177.185 166.95 177.181C167.556 177.176 168.164 177.412 168.638 177.835ZM161.233 190.907C160.667 189.487 160.675 187.958 161.255 186.656C161.735 185.574 161.829 184.331 161.524 183.114C161.218 181.898 160.529 180.773 159.561 179.909C158.592 179.045 157.396 178.489 156.153 178.324C154.909 178.159 153.685 178.395 152.664 178.995C151.439 179.72 149.923 179.903 148.449 179.505C147.144 179.141 145.796 179.275 144.685 179.881C143.574 180.486 142.785 181.517 142.481 182.758C142.177 183.999 142.382 185.357 143.053 186.55C143.724 187.743 144.809 188.679 146.085 189.166C148.565 190.132 150.653 191.994 151.895 194.347C152.52 195.564 153.573 196.542 154.837 197.078C156.1 197.613 157.476 197.665 158.678 197.222C159.88 196.779 160.816 195.876 161.292 194.7C161.767 193.525 161.746 192.167 161.231 190.909L161.233 190.907ZM153.932 195.226C153.509 194.85 153.158 194.4 152.903 193.903C151.515 191.27 149.179 189.187 146.405 188.108C145.887 187.913 145.404 187.62 144.986 187.247C144.288 186.626 143.798 185.811 143.594 184.933C143.389 184.055 143.482 183.163 143.856 182.4C144.231 181.636 144.866 181.044 145.662 180.717C146.458 180.391 147.368 180.348 148.248 180.597C149.127 180.835 150.027 180.904 150.898 180.799C151.769 180.694 152.593 180.418 153.323 179.985C154.139 179.505 155.119 179.317 156.114 179.448C157.109 179.58 158.066 180.025 158.841 180.716C159.616 181.407 160.167 182.307 160.411 183.281C160.656 184.254 160.58 185.249 160.196 186.115C159.85 186.89 159.67 187.741 159.665 188.619C159.661 189.497 159.833 190.385 160.171 191.231C160.518 192.078 160.578 192.987 160.344 193.814C160.11 194.642 159.593 195.34 158.877 195.799C158.161 196.258 157.285 196.45 156.389 196.346C155.494 196.243 154.629 195.848 153.932 195.226Z" fill="#C4703F"/>
</g>
<g clip-path="url(#clip4_298_376)">
<path d="M219.9 136.33C219.493 135.747 218.938 135.286 218.306 135.006C217.675 134.726 216.994 134.639 216.351 134.757C215.708 134.874 215.131 135.19 214.694 135.665C214.256 136.14 213.977 136.753 213.892 137.426C213.808 138.099 213.921 138.801 214.218 139.445C214.514 140.089 214.981 140.645 215.559 141.042C216.138 141.44 216.801 141.661 217.466 141.679C218.131 141.696 218.767 141.509 219.294 141.141C220.001 140.647 220.462 139.862 220.576 138.96C220.69 138.058 220.447 137.112 219.9 136.33ZM215.457 139.435C215.185 139.046 215.024 138.593 214.993 138.134C214.963 137.674 215.064 137.228 215.285 136.853C215.506 136.477 215.836 136.188 216.234 136.023C216.632 135.858 217.079 135.824 217.52 135.925C217.96 136.026 218.374 136.258 218.709 136.591C219.044 136.925 219.285 137.344 219.402 137.797C219.518 138.251 219.505 138.717 219.363 139.137C219.222 139.557 218.959 139.912 218.608 140.158C218.136 140.488 217.539 140.596 216.949 140.461C216.358 140.325 215.821 139.956 215.457 139.435ZM204.874 120.506C205.402 120.138 205.796 119.605 206.008 118.975C206.22 118.344 206.24 117.645 206.066 116.965C205.891 116.286 205.53 115.656 205.027 115.156C204.525 114.656 203.904 114.309 203.243 114.157C202.582 114.005 201.911 114.056 201.314 114.304C200.718 114.552 200.222 114.985 199.891 115.548C199.56 116.112 199.408 116.78 199.453 117.47C199.499 118.159 199.741 118.839 200.149 119.422C200.695 120.203 201.5 120.757 202.386 120.96C203.272 121.164 204.167 121 204.874 120.506ZM201.037 118.801C200.766 118.412 200.604 117.959 200.574 117.499C200.543 117.04 200.645 116.594 200.866 116.218C201.086 115.843 201.417 115.554 201.814 115.389C202.212 115.224 202.66 115.19 203.1 115.291C203.541 115.392 203.955 115.624 204.29 115.957C204.625 116.29 204.866 116.71 204.982 117.163C205.098 117.616 205.085 118.082 204.944 118.503C204.802 118.923 204.539 119.278 204.188 119.524C203.716 119.853 203.12 119.962 202.529 119.826C201.938 119.691 201.401 119.322 201.037 118.801ZM209.6 121.591C210.008 122.174 210.562 122.635 211.194 122.915C211.826 123.195 212.506 123.282 213.149 123.164C213.792 123.047 214.369 122.731 214.807 122.256C215.244 121.781 215.523 121.168 215.608 120.495C215.693 119.822 215.58 119.12 215.283 118.476C214.986 117.832 214.519 117.276 213.941 116.879C213.363 116.481 212.699 116.26 212.035 116.242C211.37 116.224 210.734 116.412 210.206 116.78C209.499 117.274 209.038 118.059 208.925 118.961C208.811 119.863 209.054 120.809 209.6 121.591ZM214.044 118.486C214.315 118.875 214.477 119.327 214.507 119.787C214.538 120.247 214.436 120.693 214.215 121.068C213.994 121.444 213.664 121.733 213.267 121.898C212.869 122.063 212.421 122.097 211.981 121.996C211.54 121.895 211.126 121.663 210.791 121.33C210.456 120.996 210.215 120.577 210.099 120.123C209.982 119.67 209.996 119.204 210.137 118.784C210.278 118.364 210.542 118.009 210.893 117.763C211.364 117.433 211.961 117.325 212.552 117.46C213.143 117.596 213.679 117.965 214.044 118.486ZM215.78 130.434C216.188 131.017 216.742 131.478 217.374 131.758C218.006 132.038 218.686 132.125 219.329 132.008C219.972 131.89 220.549 131.574 220.987 131.099C221.424 130.624 221.703 130.011 221.788 129.338C221.873 128.666 221.76 127.963 221.463 127.319C221.166 126.675 220.699 126.12 220.121 125.722C219.543 125.324 218.879 125.103 218.215 125.085C217.55 125.068 216.914 125.255 216.386 125.624C215.679 126.118 215.218 126.902 215.104 127.804C214.991 128.707 215.234 129.653 215.78 130.434ZM220.224 127.329C220.495 127.718 220.656 128.171 220.687 128.63C220.718 129.09 220.616 129.536 220.395 129.912C220.174 130.287 219.844 130.576 219.446 130.741C219.049 130.906 218.601 130.94 218.161 130.839C217.72 130.738 217.306 130.506 216.971 130.173C216.636 129.84 216.395 129.42 216.279 128.967C216.162 128.514 216.176 128.048 216.317 127.627C216.458 127.207 216.721 126.852 217.073 126.606C217.544 126.277 218.141 126.168 218.732 126.304C219.323 126.439 219.859 126.808 220.224 127.329ZM210.005 138.342C209.781 136.83 210.141 135.344 211.006 134.211C211.723 133.269 212.101 132.081 212.084 130.827C212.067 129.572 211.656 128.319 210.912 127.255C210.169 126.191 209.133 125.375 207.961 124.928C206.789 124.48 205.544 124.427 204.413 124.776C203.053 125.199 201.536 125.028 200.193 124.3C199.007 123.645 197.664 123.466 196.444 123.799C195.223 124.132 194.218 124.952 193.636 126.09C193.054 127.228 192.941 128.597 193.319 129.912C193.696 131.227 194.537 132.389 195.666 133.157C197.856 134.668 199.459 136.962 200.125 139.537C200.452 140.866 201.252 142.06 202.358 142.872C203.464 143.685 204.791 144.052 206.063 143.898C207.334 143.745 208.454 143.082 209.187 142.047C209.921 141.013 210.213 139.686 210.002 138.344L210.005 138.342ZM201.905 140.862C201.579 140.398 201.342 139.88 201.209 139.338C200.465 136.456 198.671 133.89 196.221 132.2C195.762 131.892 195.36 131.496 195.039 131.036C194.503 130.27 194.214 129.365 194.217 128.463C194.221 127.562 194.516 126.715 195.057 126.059C195.597 125.402 196.352 124.972 197.202 124.838C198.051 124.704 198.947 124.872 199.746 125.317C200.546 125.751 201.407 126.026 202.278 126.124C203.15 126.223 204.015 126.144 204.825 125.891C205.73 125.612 206.727 125.655 207.665 126.012C208.603 126.37 209.431 127.023 210.026 127.875C210.621 128.726 210.95 129.729 210.963 130.732C210.976 131.736 210.674 132.686 210.1 133.44C209.585 134.115 209.213 134.902 209.007 135.755C208.8 136.608 208.763 137.511 208.897 138.413C209.039 139.317 208.888 140.215 208.469 140.966C208.05 141.718 207.387 142.278 206.584 142.559C205.781 142.841 204.885 142.826 204.038 142.519C203.19 142.211 202.44 141.628 201.905 140.862Z" fill="#5A0609"/>
</g>
<g clip-path="url(#clip5_298_376)">
<path d="M165.576 100.871C165 100.454 164.325 100.201 163.636 100.144C162.948 100.087 162.276 100.228 161.708 100.55C161.139 100.872 160.698 101.36 160.44 101.953C160.183 102.545 160.121 103.216 160.262 103.879C160.403 104.542 160.74 105.169 161.232 105.679C161.724 106.19 162.347 106.562 163.024 106.747C163.701 106.933 164.4 106.925 165.034 106.723C165.667 106.521 166.207 106.135 166.584 105.614C167.089 104.915 167.267 104.023 167.078 103.133C166.889 102.244 166.349 101.43 165.576 100.871ZM162.399 105.263C162.015 104.985 161.714 104.61 161.534 104.186C161.354 103.762 161.304 103.308 161.389 102.88C161.474 102.453 161.691 102.072 162.013 101.785C162.334 101.499 162.746 101.319 163.195 101.27C163.644 101.221 164.112 101.304 164.537 101.509C164.963 101.714 165.329 102.031 165.587 102.421C165.846 102.811 165.987 103.255 165.991 103.699C165.996 104.142 165.864 104.564 165.612 104.911C165.275 105.377 164.748 105.676 164.145 105.742C163.542 105.808 162.914 105.636 162.399 105.263ZM146.188 90.8592C146.565 90.338 146.762 89.7049 146.756 89.04C146.749 88.375 146.538 87.7081 146.15 87.1235C145.762 86.5388 145.214 86.0628 144.575 85.7557C143.936 85.4485 143.236 85.3239 142.562 85.3976C141.887 85.4714 141.27 85.7402 140.788 86.17C140.306 86.5999 139.98 87.1714 139.852 87.8125C139.725 88.4535 139.8 89.1353 140.07 89.7715C140.34 90.4076 140.791 90.9697 141.368 91.3866C142.14 91.9456 143.082 92.2041 143.986 92.1052C144.89 92.0063 145.682 91.5581 146.188 90.8592ZM142.003 90.5082C141.619 90.2303 141.318 89.8556 141.138 89.4314C140.958 89.0073 140.908 88.5528 140.993 88.1255C141.078 87.6981 141.295 87.317 141.617 87.0305C141.938 86.7439 142.35 86.5647 142.799 86.5155C143.248 86.4664 143.716 86.5494 144.141 86.7542C144.567 86.959 144.933 87.2764 145.191 87.6661C145.45 88.0558 145.591 88.5005 145.595 88.9438C145.6 89.3871 145.468 89.8092 145.216 90.1566C144.879 90.6226 144.351 90.9214 143.749 90.9873C143.146 91.0532 142.518 90.8809 142.003 90.5082ZM151.008 90.3319C151.584 90.7488 152.259 91.0017 152.948 91.0588C153.636 91.1159 154.308 90.9745 154.876 90.6525C155.445 90.3305 155.886 89.8424 156.144 89.2499C156.401 88.6574 156.463 87.9871 156.322 87.3238C156.181 86.6605 155.844 86.0339 155.352 85.5233C154.86 85.0128 154.237 84.6412 153.56 84.4555C152.883 84.2698 152.184 84.2783 151.55 84.4801C150.917 84.6818 150.377 85.0677 150 85.5889C149.495 86.2878 149.317 87.1801 149.506 88.0696C149.695 88.9591 150.235 89.7728 151.008 90.3319ZM154.185 85.9399C154.569 86.2178 154.87 86.5925 155.05 87.0167C155.23 87.4408 155.28 87.8953 155.195 88.3226C155.11 88.75 154.893 89.1311 154.571 89.4176C154.25 89.7042 153.838 89.8834 153.389 89.9326C152.939 89.9817 152.472 89.8987 152.046 89.6939C151.621 89.4891 151.255 89.1717 150.996 88.782C150.738 88.3923 150.597 87.9476 150.593 87.5043C150.588 87.061 150.72 86.6389 150.971 86.2915C151.309 85.8255 151.836 85.5267 152.439 85.4608C153.042 85.3949 153.67 85.5672 154.185 85.9399ZM159.749 96.6553C160.325 97.0722 161 97.3252 161.689 97.3823C162.378 97.4393 163.049 97.2979 163.618 96.9759C164.186 96.654 164.627 96.1659 164.885 95.5734C165.142 94.9808 165.204 94.3105 165.063 93.6472C164.923 92.9839 164.585 92.3574 164.093 91.8468C163.602 91.3362 162.978 90.9646 162.301 90.7789C161.625 90.5932 160.925 90.6018 160.292 90.8035C159.658 91.0053 159.118 91.3911 158.741 91.9123C158.236 92.6112 158.058 93.5036 158.247 94.393C158.436 95.2825 158.976 96.0963 159.749 96.6553ZM162.926 92.2633C163.31 92.5413 163.611 92.916 163.791 93.3401C163.971 93.7642 164.021 94.2187 163.936 94.6461C163.851 95.0735 163.634 95.4545 163.312 95.7411C162.991 96.0276 162.579 96.2068 162.13 96.256C161.681 96.3052 161.214 96.2221 160.788 96.0173C160.362 95.8125 159.996 95.4952 159.738 95.1054C159.479 94.7157 159.338 94.2711 159.334 93.8278C159.33 93.3845 159.461 92.9624 159.713 92.6149C160.05 92.149 160.578 91.8502 161.18 91.7843C161.783 91.7183 162.411 91.8907 162.926 92.2633ZM156.89 106.021C156.183 104.666 156.035 103.144 156.48 101.79C156.847 100.665 156.814 99.4189 156.386 98.2397C155.958 97.0604 155.158 96.0117 154.107 95.251C153.055 94.4904 151.809 94.0589 150.555 94.0215C149.301 93.9841 148.108 94.3428 147.153 95.0436C146.009 95.8895 144.519 96.2264 143.012 95.98C141.676 95.7508 140.349 96.0221 139.306 96.7376C138.262 97.4532 137.582 98.5582 137.406 99.8241C137.23 101.09 137.572 102.42 138.361 103.538C139.15 104.656 140.325 105.478 141.644 105.832C144.209 106.54 146.476 108.18 147.951 110.395C148.697 111.542 149.844 112.407 151.156 112.811C152.467 113.215 153.841 113.127 154.992 112.564C156.142 112.001 156.982 111.007 157.335 109.789C157.689 108.571 157.529 107.222 156.889 106.024L156.89 106.021ZM150.067 111.061C149.608 110.73 149.213 110.318 148.909 109.85C147.26 107.372 144.723 105.538 141.854 104.746C141.319 104.606 140.809 104.364 140.355 104.035C139.598 103.488 139.028 102.727 138.735 101.875C138.442 101.022 138.443 100.126 138.738 99.3278C139.033 98.53 139.604 97.8763 140.363 97.4703C141.121 97.0644 142.022 96.9294 142.924 97.0868C143.822 97.2346 144.725 97.2113 145.58 97.0183C146.436 96.8253 147.227 96.4663 147.909 95.9619C148.673 95.4009 149.628 95.1138 150.631 95.1436C151.634 95.1734 152.632 95.5186 153.473 96.1272C154.314 96.7358 154.954 97.575 155.297 98.5186C155.639 99.4622 155.665 100.459 155.371 101.36C155.106 102.166 155.013 103.032 155.098 103.905C155.183 104.779 155.444 105.644 155.867 106.452C156.298 107.259 156.451 108.157 156.302 109.004C156.153 109.851 155.711 110.599 155.045 111.128C154.379 111.657 153.527 111.938 152.626 111.926C151.724 111.914 150.824 111.609 150.067 111.061Z" fill="#C4703F"/>
</g>
<g clip-path="url(#clip6_298_376)">
<path d="M231.149 57.4693C230.644 56.9688 230.015 56.6151 229.344 56.4529C228.672 56.2908 227.987 56.3274 227.376 56.5582C226.764 56.7889 226.253 57.2035 225.908 57.7494C225.563 58.2954 225.398 58.9482 225.435 59.6253C225.473 60.3024 225.71 60.9733 226.118 61.5534C226.525 62.1334 227.084 62.5964 227.724 62.8838C228.364 63.1713 229.057 63.2703 229.714 63.1682C230.371 63.0662 230.963 62.7678 231.416 62.3107C232.023 61.6978 232.336 60.8434 232.286 59.9354C232.236 59.0275 231.827 58.1404 231.149 57.4693ZM227.335 61.3211C226.998 60.9874 226.758 60.5709 226.646 60.1242C226.533 59.6775 226.553 59.2206 226.703 58.8114C226.853 58.4022 227.126 58.059 227.487 57.8253C227.849 57.5915 228.283 57.4776 228.735 57.4981C229.186 57.5185 229.635 57.6723 230.025 57.9401C230.414 58.2079 230.726 58.5776 230.922 59.0025C231.118 59.4273 231.188 59.8883 231.125 60.327C231.061 60.7657 230.866 61.1625 230.564 61.4673C230.16 61.8759 229.592 62.0901 228.986 62.0626C228.381 62.0352 227.787 61.7685 227.335 61.3211ZM213.528 44.598C213.981 44.1409 214.274 43.5457 214.369 42.8876C214.465 42.2295 214.359 41.5381 214.065 40.9008C213.772 40.2635 213.303 39.709 212.719 39.3073C212.135 38.9056 211.462 38.6749 210.784 38.6442C210.107 38.6135 209.456 38.7843 208.913 39.135C208.371 39.4856 207.961 40.0004 207.736 40.6143C207.512 41.2281 207.482 41.9133 207.651 42.5834C207.819 43.2535 208.179 43.8782 208.685 44.3787C209.362 45.0498 210.253 45.4499 211.162 45.491C212.07 45.5322 212.921 45.2109 213.528 44.598ZM209.447 43.6083C209.11 43.2747 208.871 42.8582 208.758 42.4115C208.646 41.9648 208.666 41.5079 208.815 41.0987C208.965 40.6895 209.238 40.3463 209.6 40.1125C209.962 39.8787 210.396 39.7649 210.847 39.7853C211.299 39.8058 211.748 39.9596 212.137 40.2274C212.526 40.4952 212.839 40.8649 213.035 41.2897C213.23 41.7146 213.301 42.1755 213.237 42.6143C213.173 43.053 212.978 43.4498 212.677 43.7545C212.272 44.1632 211.704 44.3773 211.099 44.3499C210.493 44.3225 209.899 44.0557 209.447 43.6083ZM218.372 44.8173C218.878 45.3178 219.506 45.6715 220.178 45.8336C220.849 45.9958 221.534 45.9592 222.146 45.7284C222.757 45.4977 223.268 45.0831 223.614 44.5371C223.959 43.9912 224.123 43.3384 224.086 42.6613C224.049 41.9842 223.811 41.3133 223.404 40.7332C222.996 40.1532 222.437 39.6902 221.797 39.4028C221.157 39.1153 220.465 39.0163 219.808 39.1183C219.15 39.2204 218.558 39.5188 218.105 39.9759C217.498 40.5888 217.186 41.4432 217.236 42.3512C217.286 43.2591 217.695 44.1462 218.372 44.8173ZM222.186 40.9655C222.523 41.2992 222.763 41.7157 222.876 42.1624C222.988 42.6091 222.968 43.0659 222.819 43.4752C222.669 43.8844 222.396 44.2276 222.034 44.4613C221.672 44.6951 221.238 44.809 220.787 44.7885C220.335 44.7681 219.886 44.6142 219.497 44.3465C219.107 44.0787 218.795 43.709 218.599 43.2841C218.404 42.8593 218.333 42.3983 218.397 41.9596C218.46 41.5209 218.655 41.124 218.957 40.8193C219.362 40.4107 219.929 40.1965 220.535 40.224C221.141 40.2514 221.735 40.5181 222.186 40.9655ZM226.038 52.4085C226.544 52.909 227.172 53.2626 227.844 53.4248C228.515 53.587 229.2 53.5504 229.812 53.3196C230.424 53.0888 230.934 52.6743 231.28 52.1283C231.625 51.5824 231.789 50.9296 231.752 50.2525C231.715 49.5754 231.477 48.9044 231.07 48.3244C230.663 47.7444 230.103 47.2814 229.463 46.9939C228.823 46.7065 228.131 46.6075 227.474 46.7095C226.816 46.8115 226.224 47.1099 225.771 47.567C225.165 48.18 224.852 49.0344 224.902 49.9423C224.952 50.8503 225.361 51.7374 226.038 52.4085ZM229.853 48.5567C230.189 48.8903 230.429 49.3069 230.542 49.7536C230.654 50.2003 230.634 50.6571 230.485 51.0663C230.335 51.4755 230.062 51.8187 229.7 52.0525C229.338 52.2863 228.904 52.4002 228.453 52.3797C228.001 52.3593 227.552 52.2054 227.163 51.9376C226.774 51.6698 226.461 51.3002 226.265 50.8753C226.07 50.4504 225.999 49.9895 226.063 49.5508C226.126 49.112 226.322 48.7152 226.623 48.4105C227.028 48.0019 227.595 47.7877 228.201 47.8151C228.807 47.8425 229.401 48.1093 229.853 48.5567ZM221.775 61.2243C221.284 59.7765 221.372 58.2499 222.019 56.9804C222.555 55.9247 222.714 54.6884 222.472 53.4575C222.23 52.2265 221.601 51.0673 220.679 50.1542C219.757 49.241 218.592 48.6232 217.358 48.3937C216.125 48.1641 214.89 48.3351 213.84 48.8811C212.579 49.5411 211.055 49.6451 209.604 49.1702C208.319 48.7385 206.966 48.8027 205.825 49.3494C204.684 49.8962 203.842 50.8837 203.474 52.1075C203.106 53.3314 203.24 54.6978 203.847 55.9241C204.455 57.1503 205.49 58.1425 206.739 58.6952C209.164 59.7887 211.153 61.7578 212.27 64.1725C212.831 65.4205 213.832 66.4521 215.065 67.0527C216.299 67.6534 217.67 67.7768 218.894 67.3974C220.117 67.018 221.1 66.165 221.636 65.0157C222.172 63.8663 222.221 62.5091 221.773 61.2262L221.775 61.2243ZM214.259 65.156C213.855 64.7586 213.529 64.2909 213.3 63.7815C212.051 61.0799 209.827 58.8772 207.113 57.6547C206.606 57.4335 206.14 57.116 205.741 56.7213C205.077 56.0641 204.63 55.2253 204.472 54.3377C204.313 53.4502 204.452 52.5647 204.866 51.8216C205.28 51.0786 205.946 50.5205 206.757 50.2359C207.569 49.9512 208.48 49.9562 209.346 50.2502C210.211 50.5343 211.107 50.6499 211.982 50.5906C212.857 50.5313 213.694 50.2982 214.446 49.9046C215.286 49.4675 216.274 49.3305 217.261 49.5141C218.248 49.6977 219.18 50.192 219.918 50.9226C220.656 51.6532 221.159 52.5808 221.353 53.5657C221.546 54.5507 221.419 55.5399 220.99 56.3845C220.604 57.141 220.379 57.9815 220.329 58.858C220.279 59.7345 220.404 60.6297 220.698 61.4924C220.999 62.3561 221.013 63.2672 220.735 64.0813C220.458 64.8954 219.906 65.566 219.167 65.9866C218.427 66.4073 217.543 66.554 216.654 66.4035C215.765 66.2531 214.922 65.814 214.259 65.156Z" fill="#5A0609"/>
</g>
<g clip-path="url(#clip7_298_376)">
<path d="M300.764 97.4549C300.299 96.9165 299.7 96.5149 299.043 96.3008C298.386 96.0867 297.7 96.0698 297.073 96.2521C296.445 96.4345 295.903 96.8079 295.517 97.3253C295.13 97.8426 294.915 98.4806 294.899 99.1585C294.884 99.8364 295.068 100.524 295.429 101.134C295.79 101.744 296.311 102.249 296.927 102.586C297.542 102.922 298.225 103.075 298.888 103.025C299.551 102.974 300.165 102.723 300.652 102.302C301.305 101.739 301.683 100.911 301.704 100.002C301.725 99.0931 301.387 98.1768 300.764 97.4549ZM296.661 100.997C296.351 100.638 296.144 100.204 296.067 99.7503C295.989 99.2962 296.045 98.8423 296.226 98.446C296.408 98.0498 296.707 97.7289 297.085 97.5241C297.464 97.3192 297.906 97.2396 298.354 97.2952C298.803 97.3508 299.239 97.5392 299.606 97.8366C299.973 98.1339 300.256 98.5268 300.418 98.9657C300.58 99.4045 300.614 99.8696 300.516 100.302C300.419 100.734 300.193 101.115 299.869 101.395C299.433 101.771 298.851 101.94 298.249 101.865C297.648 101.791 297.076 101.479 296.661 100.997ZM284.201 83.248C284.688 82.8276 285.026 82.2571 285.173 81.6084C285.319 80.9598 285.268 80.2622 285.025 79.604C284.782 78.9457 284.358 78.3563 283.807 77.9103C283.256 77.4643 282.603 77.1817 281.93 77.0982C281.257 77.0148 280.594 77.1343 280.026 77.4415C279.458 77.7488 279.009 78.2301 278.738 78.8245C278.466 79.4189 278.382 80.0997 278.498 80.7809C278.614 81.4621 278.924 82.1131 279.389 82.6514C280.012 83.3734 280.869 83.8418 281.772 83.9537C282.674 84.0656 283.548 83.8117 284.201 83.248ZM280.21 81.9429C279.9 81.584 279.693 81.1501 279.616 80.6959C279.538 80.2418 279.594 79.7879 279.775 79.3916C279.957 78.9954 280.256 78.6745 280.634 78.4697C281.013 78.2648 281.455 78.1852 281.904 78.2408C282.352 78.2964 282.788 78.4848 283.155 78.7822C283.522 79.0795 283.805 79.4725 283.967 79.9113C284.129 80.3501 284.163 80.8152 284.065 81.2476C283.968 81.68 283.742 82.0604 283.418 82.3407C282.982 82.7165 282.4 82.8857 281.798 82.8111C281.197 82.7365 280.625 82.4242 280.21 81.9429ZM289.013 83.8446C289.478 84.383 290.077 84.7846 290.734 84.9987C291.391 85.2128 292.076 85.2297 292.704 85.0474C293.332 84.865 293.873 84.4916 294.26 83.9742C294.647 83.4569 294.862 82.8189 294.877 82.141C294.893 81.463 294.709 80.7756 294.348 80.1655C293.987 79.5555 293.466 79.0503 292.85 78.7138C292.234 78.3772 291.552 78.2245 290.888 78.275C290.225 78.3254 289.612 78.5767 289.125 78.9971C288.472 79.5608 288.093 80.3882 288.072 81.2973C288.051 82.2064 288.39 83.1227 289.013 83.8446ZM293.116 80.3021C293.426 80.6611 293.633 81.095 293.71 81.5491C293.787 82.0033 293.732 82.4572 293.55 82.8534C293.369 83.2497 293.07 83.5706 292.691 83.7754C292.312 83.9802 291.871 84.0599 291.422 84.0043C290.974 83.9487 290.538 83.7603 290.171 83.4629C289.804 83.1656 289.521 82.7726 289.359 82.3338C289.197 81.8949 289.163 81.4299 289.26 80.9975C289.358 80.5651 289.583 80.1847 289.908 79.9044C290.343 79.5286 290.926 79.3594 291.527 79.434C292.129 79.5086 292.7 79.8209 293.116 80.3021ZM296.063 92.0108C296.528 92.5491 297.127 92.9508 297.784 93.1649C298.441 93.3789 299.127 93.3959 299.754 93.2135C300.382 93.0312 300.924 92.6577 301.31 92.1404C301.697 91.6231 301.912 90.9851 301.928 90.3071C301.943 89.6292 301.759 88.9418 301.398 88.3317C301.037 87.7217 300.516 87.2165 299.9 86.8799C299.285 86.5434 298.602 86.3907 297.939 86.4411C297.276 86.4916 296.662 86.7429 296.175 87.1632C295.522 87.7269 295.144 88.5544 295.123 89.4634C295.102 90.3725 295.44 91.2888 296.063 92.0108ZM300.166 88.4683C300.476 88.8272 300.683 89.2612 300.76 89.7153C300.838 90.1694 300.782 90.6233 300.601 91.0196C300.419 91.4159 300.12 91.7367 299.742 91.9416C299.363 92.1464 298.921 92.2261 298.473 92.1704C298.024 92.1148 297.588 91.9264 297.221 91.6291C296.854 91.3317 296.571 90.9388 296.409 90.5C296.247 90.0611 296.213 89.5961 296.311 89.1637C296.408 88.7312 296.634 88.3508 296.958 88.0706C297.394 87.6948 297.976 87.5256 298.578 87.6001C299.179 87.6747 299.751 87.987 300.166 88.4683ZM291.125 100.467C290.749 98.9853 290.955 97.4703 291.7 96.2552C292.316 95.2445 292.571 94.0244 292.426 92.7783C292.281 91.5322 291.744 90.3275 290.896 89.3452C290.048 88.3628 288.935 87.656 287.723 87.3309C286.512 87.0058 285.267 87.08 284.177 87.5423C282.869 88.102 281.342 88.0868 279.932 87.5001C278.684 86.9694 277.331 86.9278 276.15 87.3839C274.97 87.84 274.054 88.7588 273.591 89.9502C273.129 91.1415 273.155 92.5143 273.666 93.7842C274.176 95.0541 275.13 96.1241 276.332 96.7725C278.665 98.0519 280.494 100.17 281.419 102.665C281.881 103.953 282.798 105.059 283.981 105.754C285.164 106.449 286.521 106.679 287.771 106.397C289.021 106.114 290.066 105.34 290.691 104.236C291.315 103.132 291.47 101.783 291.123 100.469L291.125 100.467ZM283.325 103.8C282.954 103.373 282.665 102.881 282.477 102.355C281.442 99.5644 279.397 97.1948 276.787 95.7644C276.299 95.5043 275.858 95.1514 275.491 94.7268C274.881 94.0198 274.501 93.1486 274.412 92.2514C274.323 91.3542 274.531 90.4822 275.001 89.7737C275.472 89.0653 276.179 88.5608 277.01 88.3404C277.842 88.1199 278.75 88.196 279.591 88.5567C280.431 88.9074 281.315 89.0926 282.192 89.1017C283.069 89.1109 283.922 88.9438 284.702 88.61C285.574 88.2399 286.569 88.1803 287.539 88.4404C288.508 88.7004 289.399 89.2659 290.078 90.0519C290.756 90.8379 291.186 91.8019 291.302 92.7989C291.418 93.7959 291.213 94.7721 290.72 95.5807C290.276 96.3048 289.987 97.1253 289.868 97.9952C289.75 98.8651 289.805 99.7673 290.03 100.65C290.264 101.535 290.206 102.444 289.866 103.234C289.526 104.024 288.923 104.65 288.153 105.011C287.383 105.373 286.49 105.45 285.616 105.231C284.741 105.012 283.935 104.508 283.325 103.8Z" fill="#C4703F"/>
</g>
<g clip-path="url(#clip8_298_376)">
<path d="M374.182 41.6101C373.768 41.0322 373.207 40.5785 372.572 40.3064C371.937 40.0342 371.256 39.9559 370.614 40.0812C369.973 40.2066 369.4 40.53 368.968 41.0106C368.536 41.4911 368.265 42.1073 368.189 42.7811C368.113 43.4549 368.235 44.1561 368.539 44.796C368.844 45.436 369.318 45.9859 369.901 46.3763C370.484 46.7666 371.15 46.9799 371.815 46.9891C372.48 46.9983 373.114 46.8031 373.637 46.4281C374.337 45.9251 374.789 45.135 374.891 44.2315C374.993 43.3279 374.739 42.385 374.182 41.6101ZM369.778 44.7704C369.502 44.3852 369.335 43.9344 369.299 43.4752C369.262 43.016 369.358 42.5689 369.575 42.1904C369.791 41.812 370.117 41.5193 370.513 41.3492C370.908 41.1792 371.355 41.1394 371.797 41.235C372.239 41.3307 372.656 41.5573 372.995 41.8864C373.334 42.2155 373.58 42.6322 373.702 43.0838C373.825 43.5354 373.817 44.0016 373.681 44.4235C373.545 44.8455 373.286 45.2041 372.938 45.4541C372.471 45.7894 371.875 45.9057 371.283 45.7775C370.69 45.6493 370.149 45.287 369.778 44.7704ZM358.96 25.9756C359.483 25.6005 359.871 25.0625 360.075 24.4297C360.279 23.7968 360.29 23.0974 360.107 22.42C359.924 21.7426 359.555 21.1176 359.046 20.624C358.538 20.1304 357.912 19.7904 357.25 19.6469C356.587 19.5035 355.916 19.5631 355.323 19.8182C354.729 20.0733 354.239 20.5124 353.915 21.08C353.591 21.6477 353.447 22.3183 353.502 23.0071C353.556 23.696 353.806 24.3721 354.221 24.95C354.777 25.7249 355.589 26.2683 356.478 26.4606C357.366 26.6529 358.259 26.4785 358.96 25.9756ZM355.102 24.3179C354.825 23.9327 354.659 23.4819 354.622 23.0227C354.586 22.5635 354.682 22.1164 354.898 21.7379C355.114 21.3595 355.441 21.0668 355.836 20.8967C356.232 20.7267 356.679 20.6869 357.121 20.7825C357.563 20.8782 357.98 21.1048 358.319 21.4339C358.658 21.763 358.904 22.1797 359.026 22.6313C359.148 23.0829 359.141 23.5491 359.004 23.971C358.868 24.393 358.61 24.7516 358.261 25.0016C357.794 25.3369 357.199 25.4532 356.606 25.325C356.014 25.1968 355.473 24.8345 355.102 24.3179ZM363.699 27.0011C364.114 27.579 364.674 28.0327 365.309 28.3048C365.945 28.5769 366.626 28.6553 367.268 28.5299C367.909 28.4046 368.482 28.0812 368.914 27.6006C369.345 27.1201 369.616 26.5039 369.693 25.8301C369.769 25.1563 369.647 24.4551 369.343 23.8152C369.038 23.1752 368.564 22.6253 367.981 22.2349C367.398 21.8446 366.732 21.6313 366.067 21.6221C365.402 21.6129 364.768 21.8081 364.245 22.1831C363.544 22.686 363.093 23.4762 362.991 24.3797C362.888 25.2833 363.143 26.2262 363.699 27.0011ZM368.103 23.8408C368.38 24.226 368.547 24.6768 368.583 25.136C368.619 25.5952 368.523 26.0423 368.307 26.4207C368.091 26.7992 367.765 27.0919 367.369 27.262C366.973 27.432 366.526 27.4718 366.084 27.3761C365.643 27.2805 365.226 27.0539 364.887 26.7248C364.548 26.3957 364.301 25.979 364.179 25.5274C364.057 25.0758 364.065 24.6096 364.201 24.1877C364.337 23.7657 364.596 23.4071 364.944 23.1571C365.411 22.8218 366.007 22.7055 366.599 22.8337C367.192 22.9619 367.733 23.3242 368.103 23.8408ZM369.989 35.7665C370.404 36.3444 370.964 36.798 371.599 37.0702C372.235 37.3423 372.916 37.4207 373.558 37.2953C374.199 37.17 374.772 36.8466 375.204 36.366C375.635 35.8854 375.906 35.2693 375.983 34.5955C376.059 33.9217 375.937 33.2205 375.632 32.5805C375.328 31.9406 374.854 31.3907 374.271 31.0003C373.688 30.6099 373.021 30.3966 372.356 30.3874C371.692 30.3782 371.058 30.5735 370.535 30.9485C369.834 31.4514 369.383 32.2415 369.281 33.1451C369.178 34.0486 369.433 34.9916 369.989 35.7665ZM374.393 32.6061C374.67 32.9914 374.837 33.4421 374.873 33.9014C374.909 34.3606 374.813 34.8077 374.597 35.1861C374.381 35.5645 374.055 35.8573 373.659 36.0273C373.263 36.1974 372.816 36.2371 372.374 36.1415C371.933 36.0459 371.516 35.8192 371.177 35.4901C370.837 35.1611 370.591 34.7444 370.469 34.2928C370.347 33.8412 370.355 33.3749 370.491 32.953C370.627 32.5311 370.886 32.1724 371.234 31.9224C371.701 31.5872 372.296 31.4708 372.889 31.5991C373.482 31.7273 374.023 32.0895 374.393 32.6061ZM364.313 43.746C364.07 42.2365 364.412 40.7461 365.263 39.6026C365.967 38.6512 366.33 37.4589 366.298 36.2048C366.265 34.9508 365.839 33.7028 365.082 32.6484C364.325 31.594 363.28 30.7902 362.102 30.3578C360.925 29.9254 359.679 29.8877 358.552 30.2505C357.198 30.6905 355.678 30.5385 354.327 29.8278C353.132 29.1874 351.788 29.0246 350.571 29.373C349.355 29.7215 348.36 30.5544 347.793 31.6996C347.225 32.8447 347.128 34.2142 347.523 35.5248C347.917 36.8354 348.772 37.9866 349.91 38.7401C352.119 40.2235 353.751 42.4971 354.449 45.0646C354.793 46.3888 355.608 47.5731 356.724 48.3714C357.839 49.1697 359.171 49.5205 360.441 49.3509C361.71 49.1813 362.821 48.5044 363.542 47.4608C364.263 46.4173 364.538 45.0873 364.311 43.7476L364.313 43.746ZM356.245 46.3666C355.914 45.9073 355.67 45.3917 355.53 44.8512C354.75 41.979 352.925 39.4355 350.454 37.7768C349.991 37.4741 349.584 37.083 349.257 36.6273C348.712 35.8684 348.411 34.9667 348.403 34.0651C348.396 33.1635 348.68 32.3137 349.213 31.6503C349.745 30.9868 350.494 30.5478 351.342 30.4028C352.19 30.2577 353.087 30.4149 353.893 30.8495C354.698 31.2741 355.562 31.5378 356.434 31.6256C357.307 31.7133 358.171 31.6233 358.978 31.3609C359.88 31.0704 360.877 31.1003 361.819 31.4462C362.761 31.7921 363.598 32.4352 364.203 33.2789C364.809 34.1225 365.15 35.1211 365.176 36.1246C365.202 37.128 364.911 38.0819 364.347 38.8431C363.84 39.5244 363.478 40.3156 363.283 41.1714C363.087 42.0272 363.061 42.9308 363.206 43.8304C363.359 44.7323 363.22 45.6328 362.81 46.3892C362.401 47.1455 361.745 47.7144 360.945 48.0056C360.146 48.2968 359.25 48.2937 358.399 47.9968C357.547 47.6999 356.789 47.1262 356.245 46.3666Z" fill="#5A0609"/>
</g>
<g clip-path="url(#clip9_298_376)">
<path d="M301.855 29.2191C301.379 28.6907 300.772 28.3019 300.11 28.1018C299.449 27.9017 298.763 27.8993 298.139 28.0949C297.516 28.2906 296.982 28.6755 296.606 29.2009C296.231 29.7263 296.029 30.3687 296.028 31.0468C296.027 31.7249 296.226 32.4083 296.6 33.0106C296.973 33.6128 297.505 34.1068 298.128 34.4302C298.751 34.7536 299.436 34.8918 300.098 34.8273C300.76 34.7628 301.368 34.4985 301.846 34.0679C302.487 33.4904 302.848 32.6552 302.85 31.7458C302.851 30.8365 302.494 29.9276 301.855 29.2191ZM297.828 32.8478C297.511 32.4956 297.295 32.0661 297.208 31.6137C297.121 31.1613 297.167 30.7064 297.34 30.3063C297.513 29.9063 297.805 29.5792 298.179 29.3664C298.553 29.1535 298.993 29.0645 299.443 29.1106C299.893 29.1567 300.332 29.3358 300.706 29.6253C301.079 29.9147 301.37 30.3016 301.541 30.7369C301.713 31.1722 301.757 31.6364 301.668 32.0708C301.58 32.5052 301.362 32.8903 301.044 33.1774C300.617 33.5623 300.038 33.7439 299.435 33.6821C298.832 33.6203 298.254 33.3202 297.828 32.8478ZM284.995 15.3671C285.472 14.9364 285.798 14.3588 285.931 13.7072C286.064 13.0556 285.998 12.3593 285.741 11.7063C285.484 11.0534 285.047 10.4731 284.487 10.0389C283.927 9.60468 283.268 9.33602 282.593 9.26689C281.919 9.19776 281.259 9.33127 280.697 9.65054C280.136 9.9698 279.698 10.4605 279.438 11.0605C279.179 11.6606 279.11 12.343 279.241 13.0216C279.371 13.7002 279.695 14.3444 280.171 14.8728C280.809 15.5813 281.676 16.0314 282.581 16.1241C283.486 16.2168 284.354 15.9445 284.995 15.3671ZM280.976 14.147C280.659 13.7948 280.443 13.3653 280.356 12.9129C280.269 12.4605 280.315 12.0056 280.488 11.6055C280.661 11.2055 280.953 10.8784 281.327 10.6655C281.702 10.4527 282.142 10.3637 282.591 10.4098C283.041 10.4558 283.48 10.635 283.854 10.9244C284.227 11.2139 284.518 11.6008 284.689 12.0361C284.861 12.4714 284.905 12.9356 284.817 13.37C284.728 13.8044 284.511 14.1895 284.192 14.4765C283.765 14.8615 283.186 15.0431 282.583 14.9813C281.98 14.9195 281.402 14.6194 280.976 14.147ZM289.818 15.8613C290.294 16.3897 290.901 16.7785 291.563 16.9786C292.224 17.1787 292.91 17.1811 293.534 16.9855C294.157 16.7898 294.691 16.405 295.067 15.8795C295.443 15.3541 295.644 14.7117 295.645 14.0336C295.646 13.3555 295.447 12.6721 295.074 12.0699C294.7 11.4676 294.168 10.9736 293.545 10.6502C292.922 10.3268 292.237 10.1887 291.575 10.2532C290.913 10.3177 290.305 10.5819 289.827 11.0125C289.186 11.59 288.825 12.4252 288.823 13.3346C288.822 14.2439 289.18 15.1528 289.818 15.8613ZM293.845 12.2326C294.162 12.5848 294.378 13.0143 294.465 13.4667C294.552 13.9191 294.506 14.374 294.333 14.7741C294.161 15.1741 293.868 15.5012 293.494 15.7141C293.12 15.9269 292.68 16.0159 292.23 15.9698C291.78 15.9237 291.341 15.7446 290.968 15.4552C290.594 15.1657 290.303 14.7788 290.132 14.3435C289.961 13.9082 289.916 13.444 290.005 13.0096C290.093 12.5752 290.311 12.1901 290.629 11.9031C291.057 11.5181 291.635 11.3365 292.238 11.3983C292.841 11.4601 293.419 11.7602 293.845 12.2326ZM297.04 23.876C297.516 24.4044 298.124 24.7932 298.785 24.9933C299.446 25.1934 300.132 25.1958 300.756 25.0001C301.38 24.8045 301.913 24.4196 302.289 23.8942C302.665 23.3687 302.866 22.7264 302.867 22.0482C302.868 21.3701 302.67 20.6867 302.296 20.0845C301.922 19.4823 301.39 18.9882 300.767 18.6648C300.145 18.3415 299.459 18.2033 298.797 18.2678C298.135 18.3323 297.527 18.5966 297.049 19.0272C296.408 19.6046 296.047 20.4399 296.046 21.3492C296.044 22.2585 296.402 23.1674 297.04 23.876ZM301.067 20.2472C301.385 20.5995 301.6 21.0289 301.687 21.4813C301.774 21.9337 301.728 22.3887 301.556 22.7887C301.383 23.1887 301.091 23.5159 300.716 23.7287C300.342 23.9416 299.902 24.0306 299.452 23.9845C299.003 23.9384 298.563 23.7593 298.19 23.4698C297.816 23.1803 297.525 22.7935 297.354 22.3582C297.183 21.9229 297.139 21.4587 297.227 21.0243C297.316 20.5899 297.533 20.2048 297.852 19.9177C298.279 19.5327 298.858 19.3512 299.461 19.413C300.064 19.4748 300.642 19.7749 301.067 20.2472ZM292.283 32.4352C291.875 30.9618 292.049 29.4427 292.768 28.2121C293.363 27.1885 293.592 25.9633 293.42 24.7205C293.249 23.4778 292.687 22.2848 291.818 21.3207C290.949 20.3566 289.821 19.6736 288.603 19.3743C287.384 19.075 286.142 19.1756 285.062 19.6609C283.766 20.2482 282.238 20.2654 280.817 19.7088C279.558 19.2048 278.204 19.1919 277.034 19.6729C275.863 20.154 274.967 21.092 274.53 22.2929C274.093 23.4939 274.148 24.8657 274.685 26.1245C275.222 27.3834 276.199 28.4328 277.415 29.0556C279.774 30.2852 281.647 32.364 282.626 34.8383C283.114 36.1163 284.055 37.2031 285.253 37.8728C286.45 38.5426 287.812 38.7438 289.055 38.4346C290.299 38.1254 291.328 37.3295 291.928 36.2125C292.529 35.0956 292.655 33.7433 292.281 32.437L292.283 32.4352ZM284.555 35.9333C284.175 35.5136 283.876 35.0281 283.676 34.5065C282.583 31.7384 280.487 29.4127 277.848 28.038C277.354 27.7884 276.906 27.4448 276.531 27.0281C275.905 26.3343 275.507 25.4714 275.399 24.5762C275.291 23.6811 275.48 22.8049 275.936 22.0866C276.391 21.3683 277.087 20.849 277.914 20.6109C278.74 20.3728 279.65 20.4297 280.498 20.7724C281.345 21.1052 282.233 21.2716 283.11 21.2621C283.987 21.2526 284.836 21.0675 285.609 20.7172C286.473 20.3286 287.467 20.248 288.442 20.4874C289.417 20.7267 290.319 21.2732 291.014 22.0446C291.71 22.816 292.159 23.7707 292.296 24.765C292.433 25.7594 292.25 26.7397 291.774 27.5586C291.346 28.2919 291.074 29.1184 290.974 29.9906C290.874 30.8628 290.948 31.7637 291.192 32.6417C291.444 33.5211 291.406 34.4315 291.082 35.2285C290.759 36.0255 290.17 36.6636 289.408 37.0416C288.646 37.4195 287.755 37.5158 286.876 37.315C285.997 37.1142 285.18 36.628 284.555 35.9333Z" fill="#C4703F"/>
</g>
<defs>
<clipPath id="clip0_298_376">
<rect width="38.3596" height="34.6925" fill="white" transform="translate(103.468 215.029) rotate(24.3277)"/>
</clipPath>
<clipPath id="clip1_298_376">
<rect width="38.3596" height="34.6925" fill="white" transform="translate(22.3628 201.629) rotate(40.1362)"/>
</clipPath>
<clipPath id="clip2_298_376">
<rect width="38.3596" height="34.6925" fill="white" transform="translate(86.2661 126.029) rotate(41.7262)"/>
</clipPath>
<clipPath id="clip3_298_376">
<rect width="38.3596" height="34.6925" fill="white" transform="translate(154.266 157.029) rotate(41.7262)"/>
</clipPath>
<clipPath id="clip4_298_376">
<rect width="38.3596" height="34.6925" fill="white" transform="translate(216.12 105.231) rotate(55.0534)"/>
</clipPath>
<clipPath id="clip5_298_376">
<rect width="38.3596" height="34.6925" fill="white" transform="translate(146.51 73.0288) rotate(35.8823)"/>
</clipPath>
<clipPath id="clip6_298_376">
<rect width="38.3596" height="34.6925" fill="white" transform="translate(216.586 27.0288) rotate(44.7187)"/>
</clipPath>
<clipPath id="clip7_298_376">
<rect width="38.3596" height="34.6925" fill="white" transform="translate(288.621 65.9709) rotate(49.1937)"/>
</clipPath>
<clipPath id="clip8_298_376">
<rect width="38.3596" height="34.6925" fill="white" transform="translate(364.911 9.16431) rotate(54.3372)"/>
</clipPath>
<clipPath id="clip9_298_376">
<rect width="38.3596" height="34.6925" fill="white" transform="translate(289.046 -2) rotate(47.9772)"/>
</clipPath>
</defs>
</svg>
