<svg width="60" height="60" viewBox="0 0 60 60" fill="none" xmlns="http://www.w3.org/2000/svg">
<path d="M59.2961 10.3036L49.6964 0.703866C49.4735 0.480729 49.2089 0.303713 48.9175 0.182938C48.6262 0.0621639 48.3139 0 47.9985 0C47.6831 0 47.3708 0.0621639 47.0795 0.182938C46.7881 0.303713 46.5234 0.480729 46.3005 0.703866L17.5014 29.503C17.2787 29.726 17.102 29.9908 16.9815 30.2821C16.8611 30.5734 16.7992 30.8857 16.7995 31.2009V40.8006C16.7995 41.4371 17.0523 42.0475 17.5024 42.4976C17.9525 42.9477 18.5629 43.2005 19.1994 43.2005H28.7991C29.1144 43.2008 29.4266 43.1389 29.7179 43.0185C30.0092 42.898 30.274 42.7213 30.497 42.4986L59.2961 13.6995C59.5193 13.4766 59.6963 13.2119 59.8171 12.9205C59.9378 12.6292 60 12.3169 60 12.0015C60 11.6861 59.9378 11.3738 59.8171 11.0825C59.6963 10.7911 59.5193 10.5265 59.2961 10.3036ZM27.8061 38.4007H21.5993V32.1939L40.7987 12.9945L47.0055 19.2013L27.8061 38.4007ZM50.3984 15.8084L44.1916 9.60159L47.9985 5.79471L54.2053 12.0015L50.3984 15.8084ZM57.5982 31.2009V55.2002C57.5982 56.4732 57.0925 57.694 56.1923 58.5942C55.2922 59.4943 54.0713 60 52.7983 60H4.79985C3.52685 60 2.30599 59.4943 1.40584 58.5942C0.505697 57.694 0 56.4732 0 55.2002V7.20166C0 5.92866 0.505697 4.7078 1.40584 3.80766C2.30599 2.90751 3.52685 2.40181 4.79985 2.40181H28.7991C29.4356 2.40181 30.046 2.65466 30.4961 3.10473C30.9462 3.55481 31.199 4.16524 31.199 4.80174C31.199 5.43824 30.9462 6.04867 30.4961 6.49874C30.046 6.94881 29.4356 7.20166 28.7991 7.20166H4.79985V55.2002H52.7983V31.2009C52.7983 30.5644 53.0512 29.954 53.5013 29.5039C53.9513 29.0538 54.5618 28.801 55.1983 28.801C55.8348 28.801 56.4452 29.0538 56.8953 29.5039C57.3453 29.954 57.5982 30.5644 57.5982 31.2009Z" fill="white"/>
</svg>
