<svg width="27" height="27" viewBox="0 0 27 27" fill="none" xmlns="http://www.w3.org/2000/svg">
<path d="M17.7188 10.3603C17.7189 8.66206 17.231 6.99958 16.3131 5.57081C15.3952 4.14203 14.086 3.00718 12.5414 2.30139C10.9968 1.5956 9.2819 1.34861 7.60091 1.58984C5.91991 1.83107 4.34367 2.55035 3.05989 3.66203C1.77611 4.77371 0.838877 6.23093 0.359816 7.86017C-0.119245 9.48942 -0.119952 11.222 0.35778 12.8516C0.835511 14.4813 1.77155 15.9393 3.05442 17.052C4.3373 18.1647 5.91296 18.8853 7.59375 19.1279V20.9071H4.64062C4.30496 20.9071 3.98304 21.0405 3.74569 21.2778C3.50834 21.5152 3.375 21.8371 3.375 22.1728C3.375 22.5084 3.50834 22.8303 3.74569 23.0677C3.98304 23.305 4.30496 23.4384 4.64062 23.4384H7.59375V25.5478C7.59375 25.8834 7.72709 26.2053 7.96444 26.4427C8.20179 26.68 8.52371 26.8134 8.85938 26.8134C9.19504 26.8134 9.51696 26.68 9.75431 26.4427C9.99166 26.2053 10.125 25.8834 10.125 25.5478V23.4384H13.0781C13.4138 23.4384 13.7357 23.305 13.9731 23.0677C14.2104 22.8303 14.3438 22.5084 14.3438 22.1728C14.3438 21.8371 14.2104 21.5152 13.9731 21.2778C13.7357 21.0405 13.4138 20.9071 13.0781 20.9071H10.125V19.1279C12.2323 18.8211 14.1589 17.7665 15.5531 16.1569C16.9472 14.5472 17.7159 12.4898 17.7188 10.3603ZM2.53125 10.3603C2.53125 9.10869 2.90239 7.88521 3.59773 6.84455C4.29307 5.8039 5.28139 4.99281 6.43771 4.51384C7.59402 4.03488 8.86639 3.90957 10.0939 4.15374C11.3215 4.39791 12.449 5.00061 13.334 5.88561C14.219 6.77061 14.8217 7.89818 15.0659 9.12571C15.3101 10.3532 15.1848 11.6256 14.7058 12.7819C14.2268 13.9383 13.4157 14.9266 12.3751 15.6219C11.3344 16.3173 10.111 16.6884 8.85938 16.6884C7.18165 16.6864 5.5732 16.0191 4.38687 14.8328C3.20054 13.6464 2.5332 12.038 2.53125 10.3603Z" fill="#FFC1D1"/>
</svg>
