<svg xmlns="http://www.w3.org/2000/svg" xmlns:xlink="http://www.w3.org/1999/xlink" width="500" zoomAndPan="magnify" viewBox="0 0 375 374.999991" height="500" preserveAspectRatio="xMidYMid meet" version="1.0"><defs><g/><clipPath id="51be1c78b7"><path d="M 177.039062 83 L 179.289062 83 L 179.289062 232 L 177.039062 232 Z M 177.039062 83 " clip-rule="nonzero"/></clipPath></defs><rect x="-37.5" width="450" fill="#ffffff" y="-37.499999" height="449.999989" fill-opacity="1"/><rect x="-37.5" width="450" fill="#fce4e4" y="-37.499999" height="449.999989" fill-opacity="1"/><g clip-path="url(#51be1c78b7)"><path fill="#5a0609" d="M 178.074219 231.050781 C 177.398438 231.050781 176.855469 230.503906 176.855469 229.832031 L 176.855469 84.4375 C 176.855469 83.761719 177.398438 83.21875 178.074219 83.21875 C 178.746094 83.21875 179.292969 83.761719 179.292969 84.4375 L 179.292969 229.832031 C 179.292969 230.503906 178.746094 231.050781 178.074219 231.050781 Z M 178.074219 231.050781 " fill-opacity="1" fill-rule="nonzero"/></g><path fill="#5a0609" d="M 57.523438 132.09375 C 56.816406 125.167969 62.519531 119.144531 68.710938 124.753906 C 73.125 120.265625 79.011719 122.378906 80.773438 128.109375 C 81.011719 128.894531 81.253906 131.425781 81.351562 131.574219 C 81.449219 131.71875 83.640625 132.054688 84.558594 132.675781 C 89.839844 136.242188 86.433594 147.515625 84.324219 152.296875 C 82.539062 156.339844 81.636719 156.082031 81.777344 161.058594 C 82.175781 175.273438 83.644531 189.625 84.203125 203.90625 C 84.234375 204.742188 85.027344 207.4375 84.019531 207.773438 C 82.804688 208.175781 78.765625 208.542969 77.324219 208.625 C 70.890625 208.988281 61.484375 208.417969 54.964844 207.8125 C 54.203125 207.742188 52.375 207.601562 52.171875 206.816406 L 56.992188 157.546875 C 55.113281 154.242188 52.875 151.304688 51.589844 147.59375 C 49.53125 141.648438 48.769531 131.84375 57.523438 132.097656 Z M 80.6875 162.261719 C 81.097656 161.84375 80.289062 157.894531 80.433594 157.039062 C 80.527344 156.5 82.628906 153.128906 83.085938 152.128906 C 85.109375 147.6875 87.449219 140.035156 85.328125 135.410156 C 84.648438 133.929688 83.71875 133.195312 82.101562 132.953125 C 81.433594 132.855469 80.675781 133.464844 80.292969 132.628906 C 80.003906 131.992188 80.238281 131.132812 80.089844 130.410156 C 79.519531 127.59375 78.066406 124.058594 74.839844 123.535156 C 72.042969 123.082031 70.46875 124.898438 68.472656 126.414062 C 63.867188 120.996094 59.125 124.464844 58.59375 130.621094 C 58.5 131.695312 59.394531 133.375 57.671875 133.394531 C 56.269531 133.410156 55.828125 133.023438 54.273438 133.828125 C 48.550781 136.777344 52.609375 147.851562 54.957031 152.039062 C 55.519531 153.042969 58.132812 156.335938 58.277344 156.804688 C 58.558594 157.730469 57.644531 161.78125 57.796875 161.992188 C 67.539062 164.402344 66.035156 176.183594 56.410156 176.980469 L 55.339844 186.664062 C 55.316406 187.757812 56.652344 187.722656 57.503906 188.292969 C 60.574219 190.363281 59.238281 192.339844 60.578125 194.652344 C 61.246094 195.804688 63.648438 197.378906 64.664062 198.648438 C 67.160156 201.765625 66.652344 203.953125 64.796875 207.269531 C 70.972656 207.414062 77.292969 208.136719 83.394531 206.730469 C 82.984375 206.09375 83.289062 204.425781 83.078125 204.082031 C 82.996094 203.941406 80.921875 203.132812 80.277344 202.4375 C 77.761719 199.71875 78.375 195.136719 82.582031 195.148438 C 82.320312 193.917969 82.558594 187.890625 82.1875 187.320312 C 81.816406 186.75 79.863281 187.683594 79.136719 187.796875 C 74.273438 188.574219 68.828125 188.679688 66.9375 183.171875 C 65.398438 178.695312 68.675781 177.039062 70.671875 173.671875 C 73.226562 169.359375 73.007812 165.367188 78.257812 162.933594 C 79.042969 162.570312 79.789062 162.242188 80.683594 162.261719 Z M 56.445312 175.476562 C 64.644531 175.242188 66.253906 165.515625 57.949219 163.34375 Z M 80.964844 163.351562 C 74.964844 164.40625 74.445312 169.15625 72.125 173.507812 C 70.347656 176.835938 66.046875 179.621094 68.613281 183.652344 C 71.300781 187.871094 78.066406 187.371094 82.054688 185.535156 Z M 63.398438 207.21875 C 65.03125 204.695312 66 202.292969 63.988281 199.597656 C 62.835938 198.050781 60.433594 196.6875 59.5625 195.132812 C 58.164062 192.632812 59.261719 189.390625 55.097656 188.683594 L 53.519531 206.429688 C 53.78125 206.851562 62.925781 207.492188 63.398438 207.21875 Z M 82.851562 201.480469 C 82.710938 200.101562 82.851562 198.339844 82.851562 196.902344 C 82.851562 195.734375 81.355469 196.53125 80.828125 197.03125 C 79.09375 198.664062 80.796875 202.351562 83.121094 202.425781 C 83.277344 202.027344 82.871094 201.671875 82.851562 201.480469 Z M 82.851562 201.480469 " fill-opacity="1" fill-rule="nonzero"/><path fill="#5a0609" d="M 67.953125 139.695312 C 71.597656 138.867188 72.238281 142.496094 74.089844 144.496094 C 76.097656 146.664062 80.234375 148.988281 77.464844 152.710938 C 74.8125 156.273438 71.714844 153.367188 69.003906 153.410156 C 66.578125 153.445312 64.777344 155.5 62.117188 153.773438 C 60.023438 152.414062 59.578125 149.167969 60.796875 147.089844 C 61.671875 145.597656 63.691406 144.738281 64.808594 143.558594 C 65.925781 142.378906 66.457031 140.035156 67.953125 139.695312 Z M 67.953125 139.695312 " fill-opacity="1" fill-rule="nonzero"/><path fill="#5a0609" d="M 62.726562 128.945312 C 66.265625 125.742188 70.007812 133.964844 66.824219 136.949219 C 63.191406 140.355469 59.507812 131.855469 62.726562 128.945312 Z M 62.726562 128.945312 " fill-opacity="1" fill-rule="nonzero"/><path fill="#5a0609" d="M 73.070312 128.917969 C 78.199219 127.726562 77.632812 138.027344 73.019531 138.046875 C 68.976562 138.0625 69.800781 129.675781 73.070312 128.917969 Z M 73.070312 128.917969 " fill-opacity="1" fill-rule="nonzero"/><path fill="#5a0609" d="M 80.09375 136.722656 C 83.625 136.234375 83.351562 143.019531 79.890625 144.625 C 75.03125 146.875 75.5625 137.34375 80.09375 136.722656 Z M 80.09375 136.722656 " fill-opacity="1" fill-rule="nonzero"/><path fill="#5a0609" d="M 56.90625 136.730469 C 61.445312 135.714844 63.648438 145.308594 59.03125 144.75 C 55.652344 144.34375 53.730469 137.441406 56.90625 136.730469 Z M 56.90625 136.730469 " fill-opacity="1" fill-rule="nonzero"/><path fill="#5a0609" d="M 76.582031 158.433594 C 76.058594 158.9375 73.449219 159.820312 72.625 159.996094 C 70.0625 160.546875 67.660156 160.503906 65.109375 159.941406 C 63.679688 159.625 60.777344 158.933594 60.757812 157.15625 C 62.269531 157.460938 63.472656 158.289062 65.007812 158.691406 C 67.453125 159.332031 69.609375 159.417969 72.085938 158.921875 C 73.089844 158.71875 75.894531 157.425781 76.261719 157.429688 C 76.945312 157.4375 76.992188 158.042969 76.582031 158.4375 Z M 76.582031 158.433594 " fill-opacity="1" fill-rule="nonzero"/><path fill="#5a0609" d="M 130.507812 131.839844 C 134.226562 131.554688 136.117188 134.808594 136.402344 138.113281 C 136.996094 145.019531 134.023438 151.527344 130.785156 157.386719 C 131.976562 173.867188 132.640625 190.269531 133.667969 206.792969 C 133.457031 207.480469 132.695312 207.503906 132.125 207.660156 C 126.890625 209.066406 109.84375 208.4375 104.195312 207.488281 C 103.609375 207.390625 101.839844 207.046875 101.667969 206.542969 L 106.457031 157.363281 C 104.265625 153.9375 101.910156 150.601562 100.691406 146.550781 C 98.925781 140.679688 98.710938 131.828125 106.980469 132.109375 C 105.988281 125.496094 112.011719 119.175781 117.84375 124.871094 C 124.148438 119.039062 130.519531 124.558594 130.507812 131.84375 Z M 132.378906 206.445312 L 132.378906 202.703125 C 126.292969 204.761719 117.792969 198.515625 117.917969 192.140625 C 117.984375 188.875 120.71875 185.980469 121.511719 182.875 C 123.308594 175.839844 120.667969 168.832031 127.320312 163.546875 C 127.828125 163.144531 129.847656 162.140625 129.929688 162.011719 C 130.316406 161.394531 129.421875 158.007812 129.773438 156.636719 C 130.066406 155.484375 132.296875 152.128906 132.964844 150.472656 C 134.652344 146.269531 136.75 138.613281 134.039062 134.59375 C 132.574219 132.417969 129.992188 133.566406 129.554688 132.925781 C 129.449219 132.769531 129.183594 129.933594 128.996094 129.207031 C 127.835938 124.6875 124.28125 121.769531 119.886719 124.824219 C 119.40625 125.15625 118.183594 126.527344 117.84375 126.46875 C 111.984375 120.003906 107.183594 126.558594 108.011719 133.136719 C 105.476562 133.738281 103.574219 132.917969 101.941406 135.492188 C 98.269531 141.277344 103.800781 152.175781 107.707031 156.871094 L 106.421875 169.089844 C 114.425781 174.273438 112 185.980469 104.34375 190.308594 C 104.03125 195.601562 103.085938 200.867188 102.980469 206.160156 C 107.875 206.988281 112.847656 207.285156 117.820312 207.253906 C 118.449219 207.25 119.035156 206.972656 119.667969 206.964844 C 123.910156 206.917969 128.21875 207.324219 132.382812 206.441406 Z M 129.972656 163.929688 C 121.710938 167.128906 124.703125 176.191406 122.941406 182.96875 C 121.898438 186.992188 118.289062 189.867188 119.53125 194.292969 C 120.683594 198.402344 127.941406 203.566406 132.125 200.921875 Z M 104.574219 188.527344 C 110.5 184.808594 112.242188 175.75 106.308594 171.148438 Z M 104.574219 188.527344 " fill-opacity="1" fill-rule="nonzero"/><path fill="#5a0609" d="M 117.328125 139.648438 C 120.6875 138.875 121.445312 142.035156 123.027344 144 C 125.066406 146.535156 129.683594 148.96875 126.5 152.832031 C 123.925781 155.960938 120.894531 153.3125 118.34375 153.28125 C 116.757812 153.265625 115.0625 154.4375 113.269531 154.308594 C 109.765625 154.054688 108.652344 149.894531 110.132812 147.160156 C 111.027344 145.5 112.941406 144.78125 114.074219 143.613281 C 115.152344 142.5 115.632812 140.042969 117.328125 139.648438 Z M 117.328125 139.648438 " fill-opacity="1" fill-rule="nonzero"/><path fill="#5a0609" d="M 122.410156 128.953125 C 127.46875 127.804688 126.75 138.007812 122.359375 138.128906 C 118.398438 138.234375 119 129.726562 122.410156 128.953125 Z M 122.410156 128.953125 " fill-opacity="1" fill-rule="nonzero"/><path fill="#5a0609" d="M 113.328125 128.414062 C 117.601562 127.605469 118.621094 137.113281 114.84375 137.71875 C 110.800781 138.363281 109.277344 129.179688 113.328125 128.414062 Z M 113.328125 128.414062 " fill-opacity="1" fill-rule="nonzero"/><path fill="#5a0609" d="M 129.367188 136.707031 C 133.890625 136.332031 131.542969 145.726562 127.496094 144.894531 C 124.128906 144.203125 125.890625 137 129.367188 136.707031 Z M 129.367188 136.707031 " fill-opacity="1" fill-rule="nonzero"/><path fill="#5a0609" d="M 106.371094 136.703125 C 110.308594 135.847656 112.652344 143.671875 109.460938 144.617188 C 105.546875 145.777344 102.671875 137.507812 106.371094 136.703125 Z M 106.371094 136.703125 " fill-opacity="1" fill-rule="nonzero"/><path fill="#5a0609" d="M 125.960938 157.246094 C 126.355469 158.371094 124.953125 158.789062 124.003906 159.164062 C 120.765625 160.445312 116.707031 160.523438 113.394531 159.515625 C 112.574219 159.269531 110.378906 158.441406 110.179688 157.648438 C 109.777344 156.039062 111.949219 157.761719 112.324219 157.914062 C 115.261719 159.09375 118.332031 159.359375 121.429688 158.726562 C 123.050781 158.398438 124.390625 157.59375 125.960938 157.246094 Z M 125.960938 157.246094 " fill-opacity="1" fill-rule="nonzero"/><g fill="#5a0609" fill-opacity="1"><g transform="translate(206.296865, 168.383135)"><g><path d="M 17.078125 -0.40625 L 17.28125 -0.40625 C 17.914062 -0.40625 18.234375 -0.695312 18.234375 -1.28125 C 18.234375 -1.488281 18.195312 -1.710938 18.125 -1.953125 L 14.515625 -11.6875 L 7.515625 -11.6875 L 4.046875 -2.125 C 3.960938 -1.90625 3.921875 -1.703125 3.921875 -1.515625 C 3.921875 -1.171875 4.015625 -0.898438 4.203125 -0.703125 C 4.390625 -0.503906 4.585938 -0.40625 4.796875 -0.40625 L 5 -0.40625 L 5 0 L 0.5625 0 L 0.5625 -0.40625 L 0.765625 -0.40625 C 1.109375 -0.40625 1.445312 -0.609375 1.78125 -1.015625 C 2.113281 -1.429688 2.382812 -1.921875 2.59375 -2.484375 L 11.765625 -26.875 L 20.71875 -2.71875 C 20.90625 -2.1875 21.164062 -1.664062 21.5 -1.15625 C 21.832031 -0.65625 22.265625 -0.40625 22.796875 -0.40625 L 23 -0.40625 L 23 0 L 17.078125 0 Z M 7.921875 -13.046875 L 14.078125 -13.046875 L 11 -21.40625 Z M 7.921875 -13.046875 "/></g></g></g><g fill="#5a0609" fill-opacity="1"><g transform="translate(229.894524, 168.383135)"><g><path d="M 1.765625 -26.40625 L 7.4375 -26.40625 C 10.394531 -26.40625 12.640625 -25.835938 14.171875 -24.703125 C 15.710938 -23.566406 16.484375 -21.957031 16.484375 -19.875 C 16.484375 -18.757812 16.210938 -17.757812 15.671875 -16.875 C 15.140625 -16 14.441406 -15.257812 13.578125 -14.65625 C 12.710938 -14.0625 11.738281 -13.601562 10.65625 -13.28125 C 9.582031 -12.957031 8.507812 -12.796875 7.4375 -12.796875 L 5.921875 -12.796875 L 5.921875 -2.59375 C 5.921875 -2.382812 5.945312 -2.148438 6 -1.890625 C 6.050781 -1.640625 6.132812 -1.40625 6.25 -1.1875 C 6.375 -0.976562 6.507812 -0.796875 6.65625 -0.640625 C 6.800781 -0.484375 6.984375 -0.40625 7.203125 -0.40625 L 7.40625 -0.40625 L 7.40625 0 L 1.765625 0 L 1.765625 -0.40625 L 1.953125 -0.40625 C 2.140625 -0.40625 2.3125 -0.484375 2.46875 -0.640625 C 2.632812 -0.796875 2.769531 -0.976562 2.875 -1.1875 C 2.988281 -1.40625 3.070312 -1.640625 3.125 -1.890625 C 3.175781 -2.148438 3.203125 -2.382812 3.203125 -2.59375 L 3.203125 -23.921875 C 3.203125 -24.296875 3.09375 -24.722656 2.875 -25.203125 C 2.664062 -25.679688 2.359375 -25.945312 1.953125 -26 L 1.765625 -26 Z M 5.921875 -25 L 5.921875 -14.203125 L 7.125 -14.203125 C 8.1875 -14.203125 9.132812 -14.347656 9.96875 -14.640625 C 10.8125 -14.929688 11.515625 -15.316406 12.078125 -15.796875 C 12.640625 -16.273438 13.066406 -16.820312 13.359375 -17.4375 C 13.648438 -18.050781 13.796875 -18.675781 13.796875 -19.3125 C 13.796875 -20.09375 13.671875 -20.820312 13.421875 -21.5 C 13.171875 -22.175781 12.753906 -22.773438 12.171875 -23.296875 C 11.597656 -23.816406 10.84375 -24.226562 9.90625 -24.53125 C 8.976562 -24.84375 7.835938 -25 6.484375 -25 Z M 5.921875 -25 "/></g></g></g><g fill="#5a0609" fill-opacity="1"><g transform="translate(247.972732, 168.383135)"><g><path d="M 17.078125 -0.40625 L 17.28125 -0.40625 C 17.914062 -0.40625 18.234375 -0.695312 18.234375 -1.28125 C 18.234375 -1.488281 18.195312 -1.710938 18.125 -1.953125 L 14.515625 -11.6875 L 7.515625 -11.6875 L 4.046875 -2.125 C 3.960938 -1.90625 3.921875 -1.703125 3.921875 -1.515625 C 3.921875 -1.171875 4.015625 -0.898438 4.203125 -0.703125 C 4.390625 -0.503906 4.585938 -0.40625 4.796875 -0.40625 L 5 -0.40625 L 5 0 L 0.5625 0 L 0.5625 -0.40625 L 0.765625 -0.40625 C 1.109375 -0.40625 1.445312 -0.609375 1.78125 -1.015625 C 2.113281 -1.429688 2.382812 -1.921875 2.59375 -2.484375 L 11.765625 -26.875 L 20.71875 -2.71875 C 20.90625 -2.1875 21.164062 -1.664062 21.5 -1.15625 C 21.832031 -0.65625 22.265625 -0.40625 22.796875 -0.40625 L 23 -0.40625 L 23 0 L 17.078125 0 Z M 7.921875 -13.046875 L 14.078125 -13.046875 L 11 -21.40625 Z M 7.921875 -13.046875 "/></g></g></g><g fill="#5a0609" fill-opacity="1"><g transform="translate(271.570391, 168.383135)"><g><path d="M 6 -0.40625 L 6.203125 -0.40625 L 6.203125 0 L 1.765625 0 L 1.765625 -0.40625 L 1.953125 -0.40625 C 2.140625 -0.40625 2.320312 -0.484375 2.5 -0.640625 C 2.675781 -0.796875 2.816406 -0.976562 2.921875 -1.1875 C 3.023438 -1.40625 3.109375 -1.640625 3.171875 -1.890625 C 3.242188 -2.148438 3.28125 -2.382812 3.28125 -2.59375 L 3.28125 -23.921875 C 3.28125 -24.109375 3.257812 -24.320312 3.21875 -24.5625 C 3.175781 -24.800781 3.101562 -25.023438 3 -25.234375 C 2.894531 -25.453125 2.75 -25.632812 2.5625 -25.78125 C 2.375 -25.925781 2.144531 -26 1.875 -26 L 1.6875 -26 L 1.6875 -26.40625 L 5.71875 -26.40625 L 20.234375 -3.515625 L 20.234375 -23.921875 C 20.234375 -24.109375 20.203125 -24.320312 20.140625 -24.5625 C 20.078125 -24.800781 19.984375 -25.023438 19.859375 -25.234375 C 19.742188 -25.453125 19.601562 -25.632812 19.4375 -25.78125 C 19.28125 -25.925781 19.09375 -26 18.875 -26 L 18.6875 -26 L 18.6875 -26.40625 L 23.15625 -26.40625 L 23.15625 -26 L 22.953125 -26 C 22.742188 -26 22.554688 -25.925781 22.390625 -25.78125 C 22.234375 -25.632812 22.09375 -25.453125 21.96875 -25.234375 C 21.851562 -25.023438 21.769531 -24.800781 21.71875 -24.5625 C 21.664062 -24.320312 21.640625 -24.109375 21.640625 -23.921875 L 21.640625 0 L 19.15625 0 L 4.6875 -22.953125 L 4.6875 -2.59375 C 4.6875 -2.382812 4.710938 -2.148438 4.765625 -1.890625 C 4.816406 -1.640625 4.898438 -1.40625 5.015625 -1.1875 C 5.140625 -0.976562 5.28125 -0.796875 5.4375 -0.640625 C 5.601562 -0.484375 5.789062 -0.40625 6 -0.40625 Z M 6 -0.40625 "/></g></g></g><g fill="#5a0609" fill-opacity="1"><g transform="translate(296.687893, 168.383135)"><g><path d="M 1.953125 -26.40625 L 7.6875 -26.40625 L 7.6875 -26 L 7.484375 -26 C 7.296875 -26 7.117188 -25.925781 6.953125 -25.78125 C 6.796875 -25.632812 6.664062 -25.457031 6.5625 -25.25 C 6.457031 -25.050781 6.367188 -24.828125 6.296875 -24.578125 C 6.234375 -24.328125 6.203125 -24.109375 6.203125 -23.921875 L 6.203125 -2.59375 C 6.203125 -2.382812 6.226562 -2.148438 6.28125 -1.890625 C 6.332031 -1.640625 6.414062 -1.40625 6.53125 -1.1875 C 6.65625 -0.976562 6.789062 -0.796875 6.9375 -0.640625 C 7.082031 -0.484375 7.265625 -0.40625 7.484375 -0.40625 L 7.6875 -0.40625 L 7.6875 0 L 1.953125 0 L 1.953125 -0.40625 L 2.15625 -0.40625 C 2.375 -0.40625 2.5625 -0.476562 2.71875 -0.625 C 2.875 -0.769531 3.007812 -0.953125 3.125 -1.171875 C 3.25 -1.398438 3.335938 -1.640625 3.390625 -1.890625 C 3.453125 -2.148438 3.484375 -2.382812 3.484375 -2.59375 L 3.484375 -23.921875 C 3.484375 -24.109375 3.453125 -24.320312 3.390625 -24.5625 C 3.335938 -24.800781 3.25 -25.023438 3.125 -25.234375 C 3.007812 -25.453125 2.875 -25.632812 2.71875 -25.78125 C 2.5625 -25.925781 2.375 -26 2.15625 -26 L 1.953125 -26 Z M 1.953125 -26.40625 "/></g></g></g><g fill="#5a0609" fill-opacity="1"><g transform="translate(306.406925, 168.383135)"><g><path d="M 23.3125 -0.40625 L 23.515625 -0.40625 C 23.703125 -0.40625 23.875 -0.484375 24.03125 -0.640625 C 24.195312 -0.796875 24.335938 -0.976562 24.453125 -1.1875 C 24.578125 -1.40625 24.664062 -1.640625 24.71875 -1.890625 C 24.769531 -2.148438 24.796875 -2.382812 24.796875 -2.59375 L 24.796875 -23.640625 L 14.484375 0.4375 L 4.6875 -22.40625 L 4.6875 -2.59375 C 4.6875 -2.382812 4.710938 -2.148438 4.765625 -1.890625 C 4.816406 -1.640625 4.898438 -1.40625 5.015625 -1.1875 C 5.140625 -0.976562 5.28125 -0.796875 5.4375 -0.640625 C 5.601562 -0.484375 5.789062 -0.40625 6 -0.40625 L 6.203125 -0.40625 L 6.203125 0 L 1.84375 0 L 1.84375 -0.40625 L 2.046875 -0.40625 C 2.222656 -0.40625 2.390625 -0.484375 2.546875 -0.640625 C 2.710938 -0.796875 2.847656 -0.976562 2.953125 -1.1875 C 3.066406 -1.40625 3.148438 -1.640625 3.203125 -1.890625 C 3.253906 -2.148438 3.28125 -2.382812 3.28125 -2.59375 L 3.28125 -23.921875 C 3.28125 -24.109375 3.253906 -24.320312 3.203125 -24.5625 C 3.148438 -24.800781 3.066406 -25.023438 2.953125 -25.234375 C 2.847656 -25.453125 2.710938 -25.632812 2.546875 -25.78125 C 2.390625 -25.925781 2.222656 -26 2.046875 -26 L 1.84375 -26 L 1.84375 -26.40625 L 5.921875 -26.40625 L 15.203125 -4.515625 L 24.484375 -26.40625 L 29 -26.40625 L 29 -26 L 28.796875 -26 C 28.585938 -26 28.398438 -25.925781 28.234375 -25.78125 C 28.078125 -25.632812 27.9375 -25.453125 27.8125 -25.234375 C 27.695312 -25.023438 27.613281 -24.800781 27.5625 -24.5625 C 27.507812 -24.320312 27.484375 -24.109375 27.484375 -23.921875 L 27.484375 -2.59375 C 27.484375 -2.382812 27.507812 -2.148438 27.5625 -1.890625 C 27.613281 -1.640625 27.695312 -1.40625 27.8125 -1.1875 C 27.9375 -0.976562 28.078125 -0.796875 28.234375 -0.640625 C 28.398438 -0.484375 28.585938 -0.40625 28.796875 -0.40625 L 29 -0.40625 L 29 0 L 23.3125 0 Z M 23.3125 -0.40625 "/></g></g></g><g fill="#5a0609" fill-opacity="1"><g transform="translate(58.025391, 279.641847)"><g><path d="M 7.265625 -0.171875 L 7.34375 -0.171875 C 7.613281 -0.171875 7.75 -0.296875 7.75 -0.546875 C 7.75 -0.640625 7.734375 -0.734375 7.703125 -0.828125 L 6.171875 -4.96875 L 3.203125 -4.96875 L 1.71875 -0.90625 C 1.6875 -0.8125 1.671875 -0.722656 1.671875 -0.640625 C 1.671875 -0.492188 1.707031 -0.378906 1.78125 -0.296875 C 1.863281 -0.210938 1.953125 -0.171875 2.046875 -0.171875 L 2.125 -0.171875 L 2.125 0 L 0.234375 0 L 0.234375 -0.171875 L 0.328125 -0.171875 C 0.472656 -0.171875 0.613281 -0.257812 0.75 -0.4375 C 0.894531 -0.613281 1.015625 -0.816406 1.109375 -1.046875 L 5 -11.421875 L 8.8125 -1.15625 C 8.882812 -0.925781 8.988281 -0.703125 9.125 -0.484375 C 9.269531 -0.273438 9.457031 -0.171875 9.6875 -0.171875 L 9.78125 -0.171875 L 9.78125 0 L 7.265625 0 Z M 3.359375 -5.546875 L 5.984375 -5.546875 L 4.671875 -9.09375 Z M 3.359375 -5.546875 "/></g></g></g><g fill="#5a0609" fill-opacity="1"><g transform="translate(68.050758, 279.641847)"><g><path d="M 9.90625 -0.171875 L 10 -0.171875 C 10.070312 -0.171875 10.140625 -0.203125 10.203125 -0.265625 C 10.273438 -0.335938 10.335938 -0.414062 10.390625 -0.5 C 10.441406 -0.59375 10.476562 -0.691406 10.5 -0.796875 C 10.53125 -0.910156 10.546875 -1.015625 10.546875 -1.109375 L 10.546875 -10.046875 L 6.15625 0.1875 L 1.984375 -9.515625 L 1.984375 -1.109375 C 1.984375 -1.015625 1.992188 -0.910156 2.015625 -0.796875 C 2.046875 -0.691406 2.082031 -0.59375 2.125 -0.5 C 2.175781 -0.414062 2.234375 -0.335938 2.296875 -0.265625 C 2.367188 -0.203125 2.453125 -0.171875 2.546875 -0.171875 L 2.640625 -0.171875 L 2.640625 0 L 0.78125 0 L 0.78125 -0.171875 L 0.859375 -0.171875 C 0.941406 -0.171875 1.015625 -0.203125 1.078125 -0.265625 C 1.148438 -0.335938 1.207031 -0.414062 1.25 -0.5 C 1.300781 -0.59375 1.335938 -0.691406 1.359375 -0.796875 C 1.378906 -0.910156 1.390625 -1.015625 1.390625 -1.109375 L 1.390625 -10.171875 C 1.390625 -10.242188 1.378906 -10.332031 1.359375 -10.4375 C 1.335938 -10.539062 1.300781 -10.632812 1.25 -10.71875 C 1.207031 -10.8125 1.148438 -10.890625 1.078125 -10.953125 C 1.015625 -11.015625 0.941406 -11.046875 0.859375 -11.046875 L 0.78125 -11.046875 L 0.78125 -11.21875 L 2.515625 -11.21875 L 6.453125 -1.921875 L 10.40625 -11.21875 L 12.328125 -11.21875 L 12.328125 -11.046875 L 12.234375 -11.046875 C 12.148438 -11.046875 12.070312 -11.015625 12 -10.953125 C 11.9375 -10.890625 11.878906 -10.8125 11.828125 -10.71875 C 11.773438 -10.632812 11.734375 -10.539062 11.703125 -10.4375 C 11.679688 -10.332031 11.671875 -10.242188 11.671875 -10.171875 L 11.671875 -1.109375 C 11.671875 -1.015625 11.679688 -0.910156 11.703125 -0.796875 C 11.734375 -0.691406 11.773438 -0.59375 11.828125 -0.5 C 11.878906 -0.414062 11.9375 -0.335938 12 -0.265625 C 12.070312 -0.203125 12.148438 -0.171875 12.234375 -0.171875 L 12.328125 -0.171875 L 12.328125 0 L 9.90625 0 Z M 9.90625 -0.171875 "/></g></g></g><g fill="#5a0609" fill-opacity="1"><g transform="translate(81.253657, 279.641847)"><g><path d="M 6.5 -11.390625 C 7.375 -11.390625 8.160156 -11.234375 8.859375 -10.921875 C 9.566406 -10.609375 10.164062 -10.1875 10.65625 -9.65625 C 11.15625 -9.132812 11.535156 -8.523438 11.796875 -7.828125 C 12.066406 -7.128906 12.203125 -6.398438 12.203125 -5.640625 C 12.203125 -4.796875 12.046875 -4.015625 11.734375 -3.296875 C 11.421875 -2.585938 10.992188 -1.976562 10.453125 -1.46875 C 9.910156 -0.957031 9.28125 -0.554688 8.5625 -0.265625 C 7.84375 0.0234375 7.070312 0.171875 6.25 0.171875 C 5.382812 0.171875 4.601562 0.015625 3.90625 -0.296875 C 3.207031 -0.617188 2.613281 -1.039062 2.125 -1.5625 C 1.644531 -2.082031 1.273438 -2.679688 1.015625 -3.359375 C 0.753906 -4.046875 0.625 -4.753906 0.625 -5.484375 C 0.625 -6.210938 0.753906 -6.929688 1.015625 -7.640625 C 1.273438 -8.347656 1.65625 -8.976562 2.15625 -9.53125 C 2.664062 -10.09375 3.28125 -10.539062 4 -10.875 C 4.726562 -11.21875 5.5625 -11.390625 6.5 -11.390625 Z M 6.484375 -0.421875 C 7.234375 -0.453125 7.894531 -0.625 8.46875 -0.9375 C 9.039062 -1.25 9.519531 -1.644531 9.90625 -2.125 C 10.289062 -2.613281 10.578125 -3.144531 10.765625 -3.71875 C 10.953125 -4.300781 11.046875 -4.875 11.046875 -5.4375 C 11.046875 -6.0625 10.929688 -6.691406 10.703125 -7.328125 C 10.484375 -7.960938 10.160156 -8.535156 9.734375 -9.046875 C 9.316406 -9.566406 8.816406 -9.988281 8.234375 -10.3125 C 7.648438 -10.632812 6.992188 -10.796875 6.265625 -10.796875 C 5.566406 -10.796875 4.9375 -10.640625 4.375 -10.328125 C 3.820312 -10.015625 3.347656 -9.613281 2.953125 -9.125 C 2.566406 -8.632812 2.269531 -8.085938 2.0625 -7.484375 C 1.863281 -6.890625 1.765625 -6.304688 1.765625 -5.734375 C 1.765625 -5.109375 1.882812 -4.476562 2.125 -3.84375 C 2.363281 -3.21875 2.691406 -2.648438 3.109375 -2.140625 C 3.523438 -1.628906 4.019531 -1.210938 4.59375 -0.890625 C 5.164062 -0.578125 5.796875 -0.421875 6.484375 -0.421875 Z M 6.484375 -0.421875 "/></g></g></g><g fill="#5a0609" fill-opacity="1"><g transform="translate(94.184679, 279.641847)"><g><path d="M 3.078125 -0.171875 L 3.15625 -0.171875 L 3.15625 0 L 0.765625 0 L 0.765625 -0.171875 L 0.84375 -0.171875 C 0.925781 -0.171875 1 -0.203125 1.0625 -0.265625 C 1.132812 -0.335938 1.195312 -0.414062 1.25 -0.5 C 1.300781 -0.59375 1.335938 -0.691406 1.359375 -0.796875 C 1.378906 -0.910156 1.390625 -1.015625 1.390625 -1.109375 L 1.390625 -10.171875 C 1.390625 -10.242188 1.378906 -10.332031 1.359375 -10.4375 C 1.335938 -10.539062 1.300781 -10.632812 1.25 -10.71875 C 1.195312 -10.8125 1.132812 -10.890625 1.0625 -10.953125 C 1 -11.015625 0.925781 -11.046875 0.84375 -11.046875 L 0.765625 -11.046875 L 0.765625 -11.21875 L 3.71875 -11.21875 C 4.851562 -11.21875 5.726562 -10.992188 6.34375 -10.546875 C 6.96875 -10.109375 7.28125 -9.460938 7.28125 -8.609375 C 7.28125 -8.171875 7.207031 -7.789062 7.0625 -7.46875 C 6.914062 -7.144531 6.722656 -6.867188 6.484375 -6.640625 C 6.253906 -6.410156 5.976562 -6.222656 5.65625 -6.078125 C 5.332031 -5.929688 4.988281 -5.828125 4.625 -5.765625 L 5.84375 -3.890625 C 6.144531 -3.441406 6.445312 -3 6.75 -2.5625 C 7.050781 -2.125 7.351562 -1.671875 7.65625 -1.203125 C 7.726562 -1.085938 7.8125 -0.96875 7.90625 -0.84375 C 8.007812 -0.71875 8.113281 -0.601562 8.21875 -0.5 C 8.320312 -0.40625 8.429688 -0.328125 8.546875 -0.265625 C 8.671875 -0.203125 8.796875 -0.171875 8.921875 -0.171875 L 8.921875 0 L 8.1875 0 C 7.738281 0 7.367188 -0.109375 7.078125 -0.328125 C 6.785156 -0.546875 6.546875 -0.804688 6.359375 -1.109375 C 5.847656 -1.859375 5.335938 -2.613281 4.828125 -3.375 C 4.328125 -4.144531 3.828125 -4.90625 3.328125 -5.65625 C 3.203125 -5.664062 3.066406 -5.679688 2.921875 -5.703125 C 2.785156 -5.722656 2.65625 -5.742188 2.53125 -5.765625 L 2.53125 -1.109375 C 2.53125 -1.015625 2.539062 -0.910156 2.5625 -0.796875 C 2.582031 -0.691406 2.617188 -0.59375 2.671875 -0.5 C 2.722656 -0.414062 2.78125 -0.335938 2.84375 -0.265625 C 2.90625 -0.203125 2.984375 -0.171875 3.078125 -0.171875 Z M 2.53125 -10.640625 L 2.53125 -6.328125 L 2.625 -6.328125 C 2.707031 -6.316406 2.847656 -6.304688 3.046875 -6.296875 C 3.242188 -6.296875 3.492188 -6.296875 3.796875 -6.296875 C 4.023438 -6.296875 4.273438 -6.332031 4.546875 -6.40625 C 4.816406 -6.476562 5.066406 -6.597656 5.296875 -6.765625 C 5.523438 -6.941406 5.71875 -7.171875 5.875 -7.453125 C 6.03125 -7.742188 6.109375 -8.101562 6.109375 -8.53125 C 6.109375 -8.96875 6.023438 -9.320312 5.859375 -9.59375 C 5.691406 -9.863281 5.460938 -10.078125 5.171875 -10.234375 C 4.890625 -10.390625 4.539062 -10.492188 4.125 -10.546875 C 3.71875 -10.609375 3.269531 -10.640625 2.78125 -10.640625 Z M 2.53125 -10.640625 "/></g></g></g><g fill="#5a0609" fill-opacity="1"><g transform="translate(103.360437, 279.641847)"><g/></g></g><g fill="#5a0609" fill-opacity="1"><g transform="translate(107.778394, 279.641847)"><g><path d="M 0.765625 -0.171875 L 0.84375 -0.171875 C 0.9375 -0.171875 1.015625 -0.203125 1.078125 -0.265625 C 1.148438 -0.328125 1.210938 -0.398438 1.265625 -0.484375 C 1.316406 -0.578125 1.351562 -0.675781 1.375 -0.78125 C 1.40625 -0.882812 1.421875 -0.984375 1.421875 -1.078125 L 1.421875 -10.171875 C 1.421875 -10.242188 1.40625 -10.332031 1.375 -10.4375 C 1.351562 -10.539062 1.316406 -10.632812 1.265625 -10.71875 C 1.210938 -10.8125 1.148438 -10.890625 1.078125 -10.953125 C 1.015625 -11.015625 0.9375 -11.046875 0.84375 -11.046875 L 0.765625 -11.046875 L 0.765625 -11.21875 L 7.3125 -11.21875 L 7.3125 -9.640625 L 7.140625 -9.640625 C 7.117188 -9.898438 7.015625 -10.128906 6.828125 -10.328125 C 6.648438 -10.523438 6.367188 -10.625 5.984375 -10.625 L 2.5625 -10.625 L 2.5625 -6.328125 L 5.390625 -6.328125 C 5.648438 -6.328125 5.867188 -6.40625 6.046875 -6.5625 C 6.222656 -6.71875 6.3125 -6.90625 6.3125 -7.125 L 6.484375 -7.125 L 6.484375 -5 L 6.3125 -5 C 6.3125 -5.195312 6.222656 -5.367188 6.046875 -5.515625 C 5.878906 -5.671875 5.660156 -5.75 5.390625 -5.75 L 2.5625 -5.75 L 2.5625 -0.59375 L 6.296875 -0.59375 C 6.503906 -0.59375 6.6875 -0.644531 6.84375 -0.75 C 7.007812 -0.851562 7.144531 -0.972656 7.25 -1.109375 C 7.351562 -1.253906 7.429688 -1.40625 7.484375 -1.5625 C 7.535156 -1.726562 7.5625 -1.867188 7.5625 -1.984375 L 7.734375 -1.984375 L 7.734375 0 L 0.765625 0 Z M 0.765625 -0.171875 "/></g></g></g><g fill="#5a0609" fill-opacity="1"><g transform="translate(116.019582, 279.641847)"><g/></g></g><g fill="#5a0609" fill-opacity="1"><g transform="translate(120.437538, 279.641847)"><g><path d="M 0.75 -11.21875 L 3.15625 -11.21875 C 4.414062 -11.21875 5.367188 -10.976562 6.015625 -10.5 C 6.671875 -10.019531 7 -9.335938 7 -8.453125 C 7 -7.972656 6.882812 -7.546875 6.65625 -7.171875 C 6.4375 -6.796875 6.140625 -6.476562 5.765625 -6.21875 C 5.398438 -5.96875 4.988281 -5.773438 4.53125 -5.640625 C 4.070312 -5.503906 3.613281 -5.4375 3.15625 -5.4375 L 2.515625 -5.4375 L 2.515625 -1.109375 C 2.515625 -1.015625 2.523438 -0.910156 2.546875 -0.796875 C 2.566406 -0.691406 2.601562 -0.59375 2.65625 -0.5 C 2.707031 -0.414062 2.765625 -0.335938 2.828125 -0.265625 C 2.890625 -0.203125 2.96875 -0.171875 3.0625 -0.171875 L 3.140625 -0.171875 L 3.140625 0 L 0.75 0 L 0.75 -0.171875 L 0.828125 -0.171875 C 0.910156 -0.171875 0.984375 -0.203125 1.046875 -0.265625 C 1.117188 -0.335938 1.175781 -0.414062 1.21875 -0.5 C 1.269531 -0.59375 1.304688 -0.691406 1.328125 -0.796875 C 1.347656 -0.910156 1.359375 -1.015625 1.359375 -1.109375 L 1.359375 -10.171875 C 1.359375 -10.328125 1.3125 -10.503906 1.21875 -10.703125 C 1.132812 -10.910156 1.003906 -11.023438 0.828125 -11.046875 L 0.75 -11.046875 Z M 2.515625 -10.625 L 2.515625 -6.03125 L 3.03125 -6.03125 C 3.476562 -6.03125 3.878906 -6.09375 4.234375 -6.21875 C 4.597656 -6.34375 4.894531 -6.503906 5.125 -6.703125 C 5.363281 -6.910156 5.546875 -7.144531 5.671875 -7.40625 C 5.796875 -7.664062 5.859375 -7.9375 5.859375 -8.21875 C 5.859375 -8.539062 5.804688 -8.847656 5.703125 -9.140625 C 5.597656 -9.429688 5.421875 -9.6875 5.171875 -9.90625 C 4.929688 -10.125 4.613281 -10.296875 4.21875 -10.421875 C 3.820312 -10.554688 3.332031 -10.625 2.75 -10.625 Z M 2.515625 -10.625 "/></g></g></g><g fill="#5a0609" fill-opacity="1"><g transform="translate(128.117988, 279.641847)"><g><path d="M 3.078125 -0.171875 L 3.15625 -0.171875 L 3.15625 0 L 0.765625 0 L 0.765625 -0.171875 L 0.84375 -0.171875 C 0.925781 -0.171875 1 -0.203125 1.0625 -0.265625 C 1.132812 -0.335938 1.195312 -0.414062 1.25 -0.5 C 1.300781 -0.59375 1.335938 -0.691406 1.359375 -0.796875 C 1.378906 -0.910156 1.390625 -1.015625 1.390625 -1.109375 L 1.390625 -10.171875 C 1.390625 -10.242188 1.378906 -10.332031 1.359375 -10.4375 C 1.335938 -10.539062 1.300781 -10.632812 1.25 -10.71875 C 1.195312 -10.8125 1.132812 -10.890625 1.0625 -10.953125 C 1 -11.015625 0.925781 -11.046875 0.84375 -11.046875 L 0.765625 -11.046875 L 0.765625 -11.21875 L 3.71875 -11.21875 C 4.851562 -11.21875 5.726562 -10.992188 6.34375 -10.546875 C 6.96875 -10.109375 7.28125 -9.460938 7.28125 -8.609375 C 7.28125 -8.171875 7.207031 -7.789062 7.0625 -7.46875 C 6.914062 -7.144531 6.722656 -6.867188 6.484375 -6.640625 C 6.253906 -6.410156 5.976562 -6.222656 5.65625 -6.078125 C 5.332031 -5.929688 4.988281 -5.828125 4.625 -5.765625 L 5.84375 -3.890625 C 6.144531 -3.441406 6.445312 -3 6.75 -2.5625 C 7.050781 -2.125 7.351562 -1.671875 7.65625 -1.203125 C 7.726562 -1.085938 7.8125 -0.96875 7.90625 -0.84375 C 8.007812 -0.71875 8.113281 -0.601562 8.21875 -0.5 C 8.320312 -0.40625 8.429688 -0.328125 8.546875 -0.265625 C 8.671875 -0.203125 8.796875 -0.171875 8.921875 -0.171875 L 8.921875 0 L 8.1875 0 C 7.738281 0 7.367188 -0.109375 7.078125 -0.328125 C 6.785156 -0.546875 6.546875 -0.804688 6.359375 -1.109375 C 5.847656 -1.859375 5.335938 -2.613281 4.828125 -3.375 C 4.328125 -4.144531 3.828125 -4.90625 3.328125 -5.65625 C 3.203125 -5.664062 3.066406 -5.679688 2.921875 -5.703125 C 2.785156 -5.722656 2.65625 -5.742188 2.53125 -5.765625 L 2.53125 -1.109375 C 2.53125 -1.015625 2.539062 -0.910156 2.5625 -0.796875 C 2.582031 -0.691406 2.617188 -0.59375 2.671875 -0.5 C 2.722656 -0.414062 2.78125 -0.335938 2.84375 -0.265625 C 2.90625 -0.203125 2.984375 -0.171875 3.078125 -0.171875 Z M 2.53125 -10.640625 L 2.53125 -6.328125 L 2.625 -6.328125 C 2.707031 -6.316406 2.847656 -6.304688 3.046875 -6.296875 C 3.242188 -6.296875 3.492188 -6.296875 3.796875 -6.296875 C 4.023438 -6.296875 4.273438 -6.332031 4.546875 -6.40625 C 4.816406 -6.476562 5.066406 -6.597656 5.296875 -6.765625 C 5.523438 -6.941406 5.71875 -7.171875 5.875 -7.453125 C 6.03125 -7.742188 6.109375 -8.101562 6.109375 -8.53125 C 6.109375 -8.96875 6.023438 -9.320312 5.859375 -9.59375 C 5.691406 -9.863281 5.460938 -10.078125 5.171875 -10.234375 C 4.890625 -10.390625 4.539062 -10.492188 4.125 -10.546875 C 3.71875 -10.609375 3.269531 -10.640625 2.78125 -10.640625 Z M 2.53125 -10.640625 "/></g></g></g><g fill="#5a0609" fill-opacity="1"><g transform="translate(137.293746, 279.641847)"><g><path d="M 6.5 -11.390625 C 7.375 -11.390625 8.160156 -11.234375 8.859375 -10.921875 C 9.566406 -10.609375 10.164062 -10.1875 10.65625 -9.65625 C 11.15625 -9.132812 11.535156 -8.523438 11.796875 -7.828125 C 12.066406 -7.128906 12.203125 -6.398438 12.203125 -5.640625 C 12.203125 -4.796875 12.046875 -4.015625 11.734375 -3.296875 C 11.421875 -2.585938 10.992188 -1.976562 10.453125 -1.46875 C 9.910156 -0.957031 9.28125 -0.554688 8.5625 -0.265625 C 7.84375 0.0234375 7.070312 0.171875 6.25 0.171875 C 5.382812 0.171875 4.601562 0.015625 3.90625 -0.296875 C 3.207031 -0.617188 2.613281 -1.039062 2.125 -1.5625 C 1.644531 -2.082031 1.273438 -2.679688 1.015625 -3.359375 C 0.753906 -4.046875 0.625 -4.753906 0.625 -5.484375 C 0.625 -6.210938 0.753906 -6.929688 1.015625 -7.640625 C 1.273438 -8.347656 1.65625 -8.976562 2.15625 -9.53125 C 2.664062 -10.09375 3.28125 -10.539062 4 -10.875 C 4.726562 -11.21875 5.5625 -11.390625 6.5 -11.390625 Z M 6.484375 -0.421875 C 7.234375 -0.453125 7.894531 -0.625 8.46875 -0.9375 C 9.039062 -1.25 9.519531 -1.644531 9.90625 -2.125 C 10.289062 -2.613281 10.578125 -3.144531 10.765625 -3.71875 C 10.953125 -4.300781 11.046875 -4.875 11.046875 -5.4375 C 11.046875 -6.0625 10.929688 -6.691406 10.703125 -7.328125 C 10.484375 -7.960938 10.160156 -8.535156 9.734375 -9.046875 C 9.316406 -9.566406 8.816406 -9.988281 8.234375 -10.3125 C 7.648438 -10.632812 6.992188 -10.796875 6.265625 -10.796875 C 5.566406 -10.796875 4.9375 -10.640625 4.375 -10.328125 C 3.820312 -10.015625 3.347656 -9.613281 2.953125 -9.125 C 2.566406 -8.632812 2.269531 -8.085938 2.0625 -7.484375 C 1.863281 -6.890625 1.765625 -6.304688 1.765625 -5.734375 C 1.765625 -5.109375 1.882812 -4.476562 2.125 -3.84375 C 2.363281 -3.21875 2.691406 -2.648438 3.109375 -2.140625 C 3.523438 -1.628906 4.019531 -1.210938 4.59375 -0.890625 C 5.164062 -0.578125 5.796875 -0.421875 6.484375 -0.421875 Z M 6.484375 -0.421875 "/></g></g></g><g fill="#5a0609" fill-opacity="1"><g transform="translate(150.224768, 279.641847)"><g><path d="M 5.0625 -0.171875 L 5.15625 -0.171875 L 5.15625 0 L 2.734375 0 L 2.734375 -0.171875 L 2.828125 -0.171875 C 2.910156 -0.171875 2.984375 -0.203125 3.046875 -0.265625 C 3.117188 -0.335938 3.179688 -0.414062 3.234375 -0.5 C 3.285156 -0.59375 3.320312 -0.691406 3.34375 -0.796875 C 3.375 -0.910156 3.390625 -1.015625 3.390625 -1.109375 L 3.390625 -10.59375 L 1.40625 -10.59375 C 1.226562 -10.59375 1.070312 -10.550781 0.9375 -10.46875 C 0.800781 -10.394531 0.6875 -10.296875 0.59375 -10.171875 C 0.5 -10.054688 0.429688 -9.925781 0.390625 -9.78125 C 0.347656 -9.644531 0.328125 -9.503906 0.328125 -9.359375 L 0.15625 -9.359375 L 0.15625 -11.21875 L 7.78125 -11.21875 L 7.78125 -9.359375 L 7.609375 -9.359375 C 7.609375 -9.503906 7.585938 -9.644531 7.546875 -9.78125 C 7.503906 -9.925781 7.4375 -10.054688 7.34375 -10.171875 C 7.25 -10.296875 7.132812 -10.394531 7 -10.46875 C 6.863281 -10.550781 6.707031 -10.59375 6.53125 -10.59375 L 4.515625 -10.59375 L 4.515625 -1.109375 C 4.515625 -1.015625 4.523438 -0.910156 4.546875 -0.796875 C 4.578125 -0.691406 4.617188 -0.59375 4.671875 -0.5 C 4.722656 -0.414062 4.78125 -0.335938 4.84375 -0.265625 C 4.90625 -0.203125 4.976562 -0.171875 5.0625 -0.171875 Z M 5.0625 -0.171875 "/></g></g></g><g fill="#5a0609" fill-opacity="1"><g transform="translate(158.177096, 279.641847)"><g><path d="M 0.765625 -0.171875 L 0.84375 -0.171875 C 0.9375 -0.171875 1.015625 -0.203125 1.078125 -0.265625 C 1.148438 -0.328125 1.210938 -0.398438 1.265625 -0.484375 C 1.316406 -0.578125 1.351562 -0.675781 1.375 -0.78125 C 1.40625 -0.882812 1.421875 -0.984375 1.421875 -1.078125 L 1.421875 -10.171875 C 1.421875 -10.242188 1.40625 -10.332031 1.375 -10.4375 C 1.351562 -10.539062 1.316406 -10.632812 1.265625 -10.71875 C 1.210938 -10.8125 1.148438 -10.890625 1.078125 -10.953125 C 1.015625 -11.015625 0.9375 -11.046875 0.84375 -11.046875 L 0.765625 -11.046875 L 0.765625 -11.21875 L 7.3125 -11.21875 L 7.3125 -9.640625 L 7.140625 -9.640625 C 7.117188 -9.898438 7.015625 -10.128906 6.828125 -10.328125 C 6.648438 -10.523438 6.367188 -10.625 5.984375 -10.625 L 2.5625 -10.625 L 2.5625 -6.328125 L 5.390625 -6.328125 C 5.648438 -6.328125 5.867188 -6.40625 6.046875 -6.5625 C 6.222656 -6.71875 6.3125 -6.90625 6.3125 -7.125 L 6.484375 -7.125 L 6.484375 -5 L 6.3125 -5 C 6.3125 -5.195312 6.222656 -5.367188 6.046875 -5.515625 C 5.878906 -5.671875 5.660156 -5.75 5.390625 -5.75 L 2.5625 -5.75 L 2.5625 -0.59375 L 6.296875 -0.59375 C 6.503906 -0.59375 6.6875 -0.644531 6.84375 -0.75 C 7.007812 -0.851562 7.144531 -0.972656 7.25 -1.109375 C 7.351562 -1.253906 7.429688 -1.40625 7.484375 -1.5625 C 7.535156 -1.726562 7.5625 -1.867188 7.5625 -1.984375 L 7.734375 -1.984375 L 7.734375 0 L 0.765625 0 Z M 0.765625 -0.171875 "/></g></g></g><g fill="#5a0609" fill-opacity="1"><g transform="translate(166.418283, 279.641847)"><g><path d="M 6.71875 0.171875 C 6.570312 0.390625 6.4375 0.613281 6.3125 0.84375 C 6.820312 0.90625 7.191406 1.03125 7.421875 1.21875 C 7.648438 1.40625 7.765625 1.617188 7.765625 1.859375 C 7.765625 2.148438 7.597656 2.421875 7.265625 2.671875 C 6.929688 2.921875 6.457031 3.046875 5.84375 3.046875 C 5.769531 3.046875 5.695312 3.039062 5.625 3.03125 C 5.5625 3.03125 5.492188 3.023438 5.421875 3.015625 C 5.390625 3.015625 5.347656 3.007812 5.296875 3 C 5.253906 2.988281 5.21875 2.984375 5.1875 2.984375 L 5.1875 2.859375 L 5.375 2.859375 C 5.800781 2.859375 6.164062 2.765625 6.46875 2.578125 C 6.78125 2.390625 6.9375 2.175781 6.9375 1.9375 C 6.9375 1.75 6.820312 1.566406 6.59375 1.390625 C 6.363281 1.210938 6.039062 1.09375 5.625 1.03125 L 6.171875 0.15625 C 5.242188 0.101562 4.429688 -0.09375 3.734375 -0.4375 C 3.046875 -0.78125 2.46875 -1.21875 2 -1.75 C 1.539062 -2.289062 1.191406 -2.894531 0.953125 -3.5625 C 0.722656 -4.238281 0.609375 -4.914062 0.609375 -5.59375 C 0.609375 -6.289062 0.734375 -6.984375 0.984375 -7.671875 C 1.234375 -8.367188 1.613281 -8.992188 2.125 -9.546875 C 2.632812 -10.097656 3.273438 -10.539062 4.046875 -10.875 C 4.816406 -11.21875 5.722656 -11.390625 6.765625 -11.390625 C 7.140625 -11.390625 7.476562 -11.351562 7.78125 -11.28125 C 8.082031 -11.21875 8.347656 -11.148438 8.578125 -11.078125 C 8.753906 -11.023438 8.910156 -10.984375 9.046875 -10.953125 C 9.191406 -10.921875 9.332031 -10.90625 9.46875 -10.90625 L 9.46875 -9.03125 L 9.296875 -9.03125 C 9.234375 -9.375 9.109375 -9.660156 8.921875 -9.890625 C 8.742188 -10.128906 8.53125 -10.3125 8.28125 -10.4375 C 8.039062 -10.5625 7.78125 -10.648438 7.5 -10.703125 C 7.226562 -10.753906 6.960938 -10.78125 6.703125 -10.78125 C 5.859375 -10.78125 5.128906 -10.628906 4.515625 -10.328125 C 3.898438 -10.023438 3.382812 -9.632812 2.96875 -9.15625 C 2.5625 -8.675781 2.257812 -8.132812 2.0625 -7.53125 C 1.863281 -6.925781 1.765625 -6.332031 1.765625 -5.75 C 1.765625 -5.082031 1.894531 -4.425781 2.15625 -3.78125 C 2.414062 -3.144531 2.773438 -2.578125 3.234375 -2.078125 C 3.691406 -1.585938 4.226562 -1.203125 4.84375 -0.921875 C 5.457031 -0.640625 6.117188 -0.5 6.828125 -0.5 C 7.035156 -0.5 7.273438 -0.519531 7.546875 -0.5625 C 7.816406 -0.601562 8.082031 -0.6875 8.34375 -0.8125 C 8.613281 -0.945312 8.867188 -1.125 9.109375 -1.34375 C 9.347656 -1.570312 9.535156 -1.878906 9.671875 -2.265625 L 9.84375 -2.265625 L 9.84375 -0.375 C 9.675781 -0.375 9.492188 -0.347656 9.296875 -0.296875 C 9.109375 -0.253906 8.898438 -0.207031 8.671875 -0.15625 C 8.398438 -0.0820312 8.09375 -0.015625 7.75 0.046875 C 7.40625 0.109375 7.0625 0.148438 6.71875 0.171875 Z M 6.71875 0.171875 "/></g></g></g><g fill="#5a0609" fill-opacity="1"><g transform="translate(176.953416, 279.641847)"><g><path d="M 7.265625 -0.171875 L 7.34375 -0.171875 C 7.613281 -0.171875 7.75 -0.296875 7.75 -0.546875 C 7.75 -0.640625 7.734375 -0.734375 7.703125 -0.828125 L 6.171875 -4.96875 L 3.203125 -4.96875 L 1.71875 -0.90625 C 1.6875 -0.8125 1.671875 -0.722656 1.671875 -0.640625 C 1.671875 -0.492188 1.707031 -0.378906 1.78125 -0.296875 C 1.863281 -0.210938 1.953125 -0.171875 2.046875 -0.171875 L 2.125 -0.171875 L 2.125 0 L 0.234375 0 L 0.234375 -0.171875 L 0.328125 -0.171875 C 0.472656 -0.171875 0.613281 -0.257812 0.75 -0.4375 C 0.894531 -0.613281 1.015625 -0.816406 1.109375 -1.046875 L 5 -11.421875 L 8.8125 -1.15625 C 8.882812 -0.925781 8.988281 -0.703125 9.125 -0.484375 C 9.269531 -0.273438 9.457031 -0.171875 9.6875 -0.171875 L 9.78125 -0.171875 L 9.78125 0 L 7.265625 0 Z M 3.359375 -5.546875 L 5.984375 -5.546875 L 4.671875 -9.09375 Z M 7.09375 -11.640625 L 5.03125 -12.640625 L 2.984375 -11.640625 L 2.953125 -11.734375 L 5.03125 -13.484375 L 7.109375 -11.734375 Z M 7.09375 -11.640625 "/></g></g></g><g fill="#5a0609" fill-opacity="1"><g transform="translate(186.978783, 279.641847)"><g><path d="M 6.5 -11.390625 C 7.375 -11.390625 8.160156 -11.234375 8.859375 -10.921875 C 9.566406 -10.609375 10.164062 -10.1875 10.65625 -9.65625 C 11.15625 -9.132812 11.535156 -8.523438 11.796875 -7.828125 C 12.066406 -7.128906 12.203125 -6.398438 12.203125 -5.640625 C 12.203125 -4.796875 12.046875 -4.015625 11.734375 -3.296875 C 11.421875 -2.585938 10.992188 -1.976562 10.453125 -1.46875 C 9.910156 -0.957031 9.28125 -0.554688 8.5625 -0.265625 C 7.84375 0.0234375 7.070312 0.171875 6.25 0.171875 C 5.382812 0.171875 4.601562 0.015625 3.90625 -0.296875 C 3.207031 -0.617188 2.613281 -1.039062 2.125 -1.5625 C 1.644531 -2.082031 1.273438 -2.679688 1.015625 -3.359375 C 0.753906 -4.046875 0.625 -4.753906 0.625 -5.484375 C 0.625 -6.210938 0.753906 -6.929688 1.015625 -7.640625 C 1.273438 -8.347656 1.65625 -8.976562 2.15625 -9.53125 C 2.664062 -10.09375 3.28125 -10.539062 4 -10.875 C 4.726562 -11.21875 5.5625 -11.390625 6.5 -11.390625 Z M 6.484375 -0.421875 C 7.234375 -0.453125 7.894531 -0.625 8.46875 -0.9375 C 9.039062 -1.25 9.519531 -1.644531 9.90625 -2.125 C 10.289062 -2.613281 10.578125 -3.144531 10.765625 -3.71875 C 10.953125 -4.300781 11.046875 -4.875 11.046875 -5.4375 C 11.046875 -6.0625 10.929688 -6.691406 10.703125 -7.328125 C 10.484375 -7.960938 10.160156 -8.535156 9.734375 -9.046875 C 9.316406 -9.566406 8.816406 -9.988281 8.234375 -10.3125 C 7.648438 -10.632812 6.992188 -10.796875 6.265625 -10.796875 C 5.566406 -10.796875 4.9375 -10.640625 4.375 -10.328125 C 3.820312 -10.015625 3.347656 -9.613281 2.953125 -9.125 C 2.566406 -8.632812 2.269531 -8.085938 2.0625 -7.484375 C 1.863281 -6.890625 1.765625 -6.304688 1.765625 -5.734375 C 1.765625 -5.109375 1.882812 -4.476562 2.125 -3.84375 C 2.363281 -3.21875 2.691406 -2.648438 3.109375 -2.140625 C 3.523438 -1.628906 4.019531 -1.210938 4.59375 -0.890625 C 5.164062 -0.578125 5.796875 -0.421875 6.484375 -0.421875 Z M 6.484375 -0.421875 "/></g></g></g><g fill="#5a0609" fill-opacity="1"><g transform="translate(199.909805, 279.641847)"><g/></g></g><g fill="#5a0609" fill-opacity="1"><g transform="translate(204.327762, 279.641847)"><g><path d="M 7.265625 -0.171875 L 7.34375 -0.171875 C 7.613281 -0.171875 7.75 -0.296875 7.75 -0.546875 C 7.75 -0.640625 7.734375 -0.734375 7.703125 -0.828125 L 6.171875 -4.96875 L 3.203125 -4.96875 L 1.71875 -0.90625 C 1.6875 -0.8125 1.671875 -0.722656 1.671875 -0.640625 C 1.671875 -0.492188 1.707031 -0.378906 1.78125 -0.296875 C 1.863281 -0.210938 1.953125 -0.171875 2.046875 -0.171875 L 2.125 -0.171875 L 2.125 0 L 0.234375 0 L 0.234375 -0.171875 L 0.328125 -0.171875 C 0.472656 -0.171875 0.613281 -0.257812 0.75 -0.4375 C 0.894531 -0.613281 1.015625 -0.816406 1.109375 -1.046875 L 5 -11.421875 L 8.8125 -1.15625 C 8.882812 -0.925781 8.988281 -0.703125 9.125 -0.484375 C 9.269531 -0.273438 9.457031 -0.171875 9.6875 -0.171875 L 9.78125 -0.171875 L 9.78125 0 L 7.265625 0 Z M 3.359375 -5.546875 L 5.984375 -5.546875 L 4.671875 -9.09375 Z M 3.359375 -5.546875 "/></g></g></g><g fill="#5a0609" fill-opacity="1"><g transform="translate(214.353129, 279.641847)"><g><path d="M 6.5 -11.390625 C 7.375 -11.390625 8.160156 -11.234375 8.859375 -10.921875 C 9.566406 -10.609375 10.164062 -10.1875 10.65625 -9.65625 C 11.15625 -9.132812 11.535156 -8.523438 11.796875 -7.828125 C 12.066406 -7.128906 12.203125 -6.398438 12.203125 -5.640625 C 12.203125 -4.796875 12.046875 -4.015625 11.734375 -3.296875 C 11.421875 -2.585938 10.992188 -1.976562 10.453125 -1.46875 C 9.910156 -0.957031 9.28125 -0.554688 8.5625 -0.265625 C 7.84375 0.0234375 7.070312 0.171875 6.25 0.171875 C 5.382812 0.171875 4.601562 0.015625 3.90625 -0.296875 C 3.207031 -0.617188 2.613281 -1.039062 2.125 -1.5625 C 1.644531 -2.082031 1.273438 -2.679688 1.015625 -3.359375 C 0.753906 -4.046875 0.625 -4.753906 0.625 -5.484375 C 0.625 -6.210938 0.753906 -6.929688 1.015625 -7.640625 C 1.273438 -8.347656 1.65625 -8.976562 2.15625 -9.53125 C 2.664062 -10.09375 3.28125 -10.539062 4 -10.875 C 4.726562 -11.21875 5.5625 -11.390625 6.5 -11.390625 Z M 6.484375 -0.421875 C 7.234375 -0.453125 7.894531 -0.625 8.46875 -0.9375 C 9.039062 -1.25 9.519531 -1.644531 9.90625 -2.125 C 10.289062 -2.613281 10.578125 -3.144531 10.765625 -3.71875 C 10.953125 -4.300781 11.046875 -4.875 11.046875 -5.4375 C 11.046875 -6.0625 10.929688 -6.691406 10.703125 -7.328125 C 10.484375 -7.960938 10.160156 -8.535156 9.734375 -9.046875 C 9.316406 -9.566406 8.816406 -9.988281 8.234375 -10.3125 C 7.648438 -10.632812 6.992188 -10.796875 6.265625 -10.796875 C 5.566406 -10.796875 4.9375 -10.640625 4.375 -10.328125 C 3.820312 -10.015625 3.347656 -9.613281 2.953125 -9.125 C 2.566406 -8.632812 2.269531 -8.085938 2.0625 -7.484375 C 1.863281 -6.890625 1.765625 -6.304688 1.765625 -5.734375 C 1.765625 -5.109375 1.882812 -4.476562 2.125 -3.84375 C 2.363281 -3.21875 2.691406 -2.648438 3.109375 -2.140625 C 3.523438 -1.628906 4.019531 -1.210938 4.59375 -0.890625 C 5.164062 -0.578125 5.796875 -0.421875 6.484375 -0.421875 Z M 6.484375 -0.421875 "/></g></g></g><g fill="#5a0609" fill-opacity="1"><g transform="translate(227.284151, 279.641847)"><g><path d="M 7.65625 -3.015625 C 7.65625 -2.441406 7.539062 -1.953125 7.3125 -1.546875 C 7.082031 -1.148438 6.789062 -0.828125 6.4375 -0.578125 C 6.082031 -0.328125 5.679688 -0.144531 5.234375 -0.03125 C 4.785156 0.0820312 4.335938 0.140625 3.890625 0.140625 C 3.441406 0.140625 3.050781 0.09375 2.71875 0 C 2.394531 -0.09375 2.09375 -0.175781 1.8125 -0.25 C 1.632812 -0.3125 1.472656 -0.359375 1.328125 -0.390625 C 1.179688 -0.429688 1.035156 -0.453125 0.890625 -0.453125 L 0.890625 -2.390625 L 1.046875 -2.390625 C 1.046875 -1.960938 1.15625 -1.617188 1.375 -1.359375 C 1.601562 -1.109375 1.863281 -0.914062 2.15625 -0.78125 C 2.445312 -0.644531 2.738281 -0.554688 3.03125 -0.515625 C 3.332031 -0.472656 3.550781 -0.453125 3.6875 -0.453125 C 4.175781 -0.453125 4.59375 -0.523438 4.9375 -0.671875 C 5.289062 -0.816406 5.582031 -1.003906 5.8125 -1.234375 C 6.039062 -1.460938 6.207031 -1.71875 6.3125 -2 C 6.425781 -2.289062 6.484375 -2.582031 6.484375 -2.875 C 6.484375 -3.25 6.398438 -3.5625 6.234375 -3.8125 C 6.078125 -4.070312 5.867188 -4.296875 5.609375 -4.484375 C 5.359375 -4.679688 5.066406 -4.847656 4.734375 -4.984375 C 4.410156 -5.117188 4.078125 -5.253906 3.734375 -5.390625 C 3.347656 -5.535156 2.96875 -5.6875 2.59375 -5.84375 C 2.226562 -6.007812 1.894531 -6.207031 1.59375 -6.4375 C 1.300781 -6.664062 1.0625 -6.941406 0.875 -7.265625 C 0.695312 -7.585938 0.609375 -7.988281 0.609375 -8.46875 C 0.609375 -8.96875 0.703125 -9.398438 0.890625 -9.765625 C 1.085938 -10.128906 1.347656 -10.429688 1.671875 -10.671875 C 1.992188 -10.910156 2.363281 -11.085938 2.78125 -11.203125 C 3.195312 -11.328125 3.617188 -11.390625 4.046875 -11.390625 C 4.335938 -11.390625 4.613281 -11.367188 4.875 -11.328125 C 5.132812 -11.285156 5.382812 -11.238281 5.625 -11.1875 C 5.820312 -11.144531 6.007812 -11.109375 6.1875 -11.078125 C 6.363281 -11.046875 6.539062 -11.03125 6.71875 -11.03125 L 6.71875 -9.28125 L 6.546875 -9.28125 C 6.523438 -9.875 6.289062 -10.273438 5.84375 -10.484375 C 5.40625 -10.691406 4.796875 -10.796875 4.015625 -10.796875 C 3.554688 -10.796875 3.179688 -10.71875 2.890625 -10.5625 C 2.609375 -10.414062 2.378906 -10.226562 2.203125 -10 C 2.035156 -9.78125 1.921875 -9.539062 1.859375 -9.28125 C 1.796875 -9.03125 1.765625 -8.8125 1.765625 -8.625 C 1.765625 -8.300781 1.832031 -8.023438 1.96875 -7.796875 C 2.113281 -7.578125 2.304688 -7.378906 2.546875 -7.203125 C 2.785156 -7.035156 3.0625 -6.882812 3.375 -6.75 C 3.6875 -6.613281 4.015625 -6.484375 4.359375 -6.359375 C 4.742188 -6.210938 5.132812 -6.050781 5.53125 -5.875 C 5.925781 -5.707031 6.28125 -5.5 6.59375 -5.25 C 6.90625 -5 7.160156 -4.691406 7.359375 -4.328125 C 7.554688 -3.972656 7.65625 -3.535156 7.65625 -3.015625 Z M 7.65625 -3.015625 "/></g></g></g><g fill="#5a0609" fill-opacity="1"><g transform="translate(235.6103, 279.641847)"><g/></g></g><g fill="#5a0609" fill-opacity="1"><g transform="translate(240.028257, 279.641847)"><g><path d="M 7.265625 -0.171875 L 7.34375 -0.171875 C 7.613281 -0.171875 7.75 -0.296875 7.75 -0.546875 C 7.75 -0.640625 7.734375 -0.734375 7.703125 -0.828125 L 6.171875 -4.96875 L 3.203125 -4.96875 L 1.71875 -0.90625 C 1.6875 -0.8125 1.671875 -0.722656 1.671875 -0.640625 C 1.671875 -0.492188 1.707031 -0.378906 1.78125 -0.296875 C 1.863281 -0.210938 1.953125 -0.171875 2.046875 -0.171875 L 2.125 -0.171875 L 2.125 0 L 0.234375 0 L 0.234375 -0.171875 L 0.328125 -0.171875 C 0.472656 -0.171875 0.613281 -0.257812 0.75 -0.4375 C 0.894531 -0.613281 1.015625 -0.816406 1.109375 -1.046875 L 5 -11.421875 L 8.8125 -1.15625 C 8.882812 -0.925781 8.988281 -0.703125 9.125 -0.484375 C 9.269531 -0.273438 9.457031 -0.171875 9.6875 -0.171875 L 9.78125 -0.171875 L 9.78125 0 L 7.265625 0 Z M 3.359375 -5.546875 L 5.984375 -5.546875 L 4.671875 -9.09375 Z M 3.359375 -5.546875 "/></g></g></g><g fill="#5a0609" fill-opacity="1"><g transform="translate(250.053624, 279.641847)"><g><path d="M 2.546875 -0.171875 L 2.640625 -0.171875 L 2.640625 0 L 0.75 0 L 0.75 -0.171875 L 0.828125 -0.171875 C 0.910156 -0.171875 0.988281 -0.203125 1.0625 -0.265625 C 1.132812 -0.335938 1.191406 -0.414062 1.234375 -0.5 C 1.285156 -0.59375 1.320312 -0.691406 1.34375 -0.796875 C 1.375 -0.910156 1.390625 -1.015625 1.390625 -1.109375 L 1.390625 -10.171875 C 1.390625 -10.242188 1.378906 -10.332031 1.359375 -10.4375 C 1.347656 -10.539062 1.316406 -10.632812 1.265625 -10.71875 C 1.222656 -10.8125 1.160156 -10.890625 1.078125 -10.953125 C 1.003906 -11.015625 0.910156 -11.046875 0.796875 -11.046875 L 0.71875 -11.046875 L 0.71875 -11.21875 L 2.4375 -11.21875 L 8.609375 -1.5 L 8.609375 -10.171875 C 8.609375 -10.242188 8.59375 -10.332031 8.5625 -10.4375 C 8.53125 -10.539062 8.488281 -10.632812 8.4375 -10.71875 C 8.382812 -10.8125 8.320312 -10.890625 8.25 -10.953125 C 8.1875 -11.015625 8.113281 -11.046875 8.03125 -11.046875 L 7.9375 -11.046875 L 7.9375 -11.21875 L 9.84375 -11.21875 L 9.84375 -11.046875 L 9.765625 -11.046875 C 9.671875 -11.046875 9.585938 -11.015625 9.515625 -10.953125 C 9.453125 -10.890625 9.394531 -10.8125 9.34375 -10.71875 C 9.289062 -10.632812 9.253906 -10.539062 9.234375 -10.4375 C 9.210938 -10.332031 9.203125 -10.242188 9.203125 -10.171875 L 9.203125 0 L 8.140625 0 L 1.984375 -9.765625 L 1.984375 -1.109375 C 1.984375 -1.015625 1.992188 -0.910156 2.015625 -0.796875 C 2.046875 -0.691406 2.082031 -0.59375 2.125 -0.5 C 2.175781 -0.414062 2.234375 -0.335938 2.296875 -0.265625 C 2.367188 -0.203125 2.453125 -0.171875 2.546875 -0.171875 Z M 2.546875 -0.171875 "/></g></g></g><g fill="#5a0609" fill-opacity="1"><g transform="translate(260.724689, 279.641847)"><g><path d="M 0.828125 -11.21875 L 3.265625 -11.21875 L 3.265625 -11.046875 L 3.171875 -11.046875 C 3.097656 -11.046875 3.023438 -11.015625 2.953125 -10.953125 C 2.890625 -10.890625 2.832031 -10.816406 2.78125 -10.734375 C 2.738281 -10.648438 2.703125 -10.550781 2.671875 -10.4375 C 2.648438 -10.332031 2.640625 -10.242188 2.640625 -10.171875 L 2.640625 -1.109375 C 2.640625 -1.015625 2.648438 -0.910156 2.671875 -0.796875 C 2.691406 -0.691406 2.726562 -0.59375 2.78125 -0.5 C 2.832031 -0.414062 2.890625 -0.335938 2.953125 -0.265625 C 3.015625 -0.203125 3.085938 -0.171875 3.171875 -0.171875 L 3.265625 -0.171875 L 3.265625 0 L 0.828125 0 L 0.828125 -0.171875 L 0.921875 -0.171875 C 1.003906 -0.171875 1.082031 -0.203125 1.15625 -0.265625 C 1.226562 -0.328125 1.285156 -0.40625 1.328125 -0.5 C 1.378906 -0.59375 1.414062 -0.691406 1.4375 -0.796875 C 1.46875 -0.910156 1.484375 -1.015625 1.484375 -1.109375 L 1.484375 -10.171875 C 1.484375 -10.242188 1.46875 -10.332031 1.4375 -10.4375 C 1.414062 -10.539062 1.378906 -10.632812 1.328125 -10.71875 C 1.285156 -10.8125 1.226562 -10.890625 1.15625 -10.953125 C 1.082031 -11.015625 1.003906 -11.046875 0.921875 -11.046875 L 0.828125 -11.046875 Z M 0.828125 -11.21875 "/></g></g></g><g fill="#5a0609" fill-opacity="1"><g transform="translate(264.853786, 279.641847)"><g><path d="M 9.90625 -0.171875 L 10 -0.171875 C 10.070312 -0.171875 10.140625 -0.203125 10.203125 -0.265625 C 10.273438 -0.335938 10.335938 -0.414062 10.390625 -0.5 C 10.441406 -0.59375 10.476562 -0.691406 10.5 -0.796875 C 10.53125 -0.910156 10.546875 -1.015625 10.546875 -1.109375 L 10.546875 -10.046875 L 6.15625 0.1875 L 1.984375 -9.515625 L 1.984375 -1.109375 C 1.984375 -1.015625 1.992188 -0.910156 2.015625 -0.796875 C 2.046875 -0.691406 2.082031 -0.59375 2.125 -0.5 C 2.175781 -0.414062 2.234375 -0.335938 2.296875 -0.265625 C 2.367188 -0.203125 2.453125 -0.171875 2.546875 -0.171875 L 2.640625 -0.171875 L 2.640625 0 L 0.78125 0 L 0.78125 -0.171875 L 0.859375 -0.171875 C 0.941406 -0.171875 1.015625 -0.203125 1.078125 -0.265625 C 1.148438 -0.335938 1.207031 -0.414062 1.25 -0.5 C 1.300781 -0.59375 1.335938 -0.691406 1.359375 -0.796875 C 1.378906 -0.910156 1.390625 -1.015625 1.390625 -1.109375 L 1.390625 -10.171875 C 1.390625 -10.242188 1.378906 -10.332031 1.359375 -10.4375 C 1.335938 -10.539062 1.300781 -10.632812 1.25 -10.71875 C 1.207031 -10.8125 1.148438 -10.890625 1.078125 -10.953125 C 1.015625 -11.015625 0.941406 -11.046875 0.859375 -11.046875 L 0.78125 -11.046875 L 0.78125 -11.21875 L 2.515625 -11.21875 L 6.453125 -1.921875 L 10.40625 -11.21875 L 12.328125 -11.21875 L 12.328125 -11.046875 L 12.234375 -11.046875 C 12.148438 -11.046875 12.070312 -11.015625 12 -10.953125 C 11.9375 -10.890625 11.878906 -10.8125 11.828125 -10.71875 C 11.773438 -10.632812 11.734375 -10.539062 11.703125 -10.4375 C 11.679688 -10.332031 11.671875 -10.242188 11.671875 -10.171875 L 11.671875 -1.109375 C 11.671875 -1.015625 11.679688 -0.910156 11.703125 -0.796875 C 11.734375 -0.691406 11.773438 -0.59375 11.828125 -0.5 C 11.878906 -0.414062 11.9375 -0.335938 12 -0.265625 C 12.070312 -0.203125 12.148438 -0.171875 12.234375 -0.171875 L 12.328125 -0.171875 L 12.328125 0 L 9.90625 0 Z M 9.90625 -0.171875 "/></g></g></g><g fill="#5a0609" fill-opacity="1"><g transform="translate(278.056673, 279.641847)"><g><path d="M 7.265625 -0.171875 L 7.34375 -0.171875 C 7.613281 -0.171875 7.75 -0.296875 7.75 -0.546875 C 7.75 -0.640625 7.734375 -0.734375 7.703125 -0.828125 L 6.171875 -4.96875 L 3.203125 -4.96875 L 1.71875 -0.90625 C 1.6875 -0.8125 1.671875 -0.722656 1.671875 -0.640625 C 1.671875 -0.492188 1.707031 -0.378906 1.78125 -0.296875 C 1.863281 -0.210938 1.953125 -0.171875 2.046875 -0.171875 L 2.125 -0.171875 L 2.125 0 L 0.234375 0 L 0.234375 -0.171875 L 0.328125 -0.171875 C 0.472656 -0.171875 0.613281 -0.257812 0.75 -0.4375 C 0.894531 -0.613281 1.015625 -0.816406 1.109375 -1.046875 L 5 -11.421875 L 8.8125 -1.15625 C 8.882812 -0.925781 8.988281 -0.703125 9.125 -0.484375 C 9.269531 -0.273438 9.457031 -0.171875 9.6875 -0.171875 L 9.78125 -0.171875 L 9.78125 0 L 7.265625 0 Z M 3.359375 -5.546875 L 5.984375 -5.546875 L 4.671875 -9.09375 Z M 3.359375 -5.546875 "/></g></g></g><g fill="#5a0609" fill-opacity="1"><g transform="translate(288.082063, 279.641847)"><g><path d="M 0.828125 -11.21875 L 3.265625 -11.21875 L 3.265625 -11.046875 L 3.171875 -11.046875 C 3.097656 -11.046875 3.023438 -11.015625 2.953125 -10.953125 C 2.890625 -10.890625 2.832031 -10.816406 2.78125 -10.734375 C 2.738281 -10.648438 2.703125 -10.550781 2.671875 -10.4375 C 2.648438 -10.332031 2.640625 -10.242188 2.640625 -10.171875 L 2.640625 -1.109375 C 2.640625 -1.015625 2.648438 -0.910156 2.671875 -0.796875 C 2.691406 -0.691406 2.726562 -0.59375 2.78125 -0.5 C 2.832031 -0.414062 2.890625 -0.335938 2.953125 -0.265625 C 3.015625 -0.203125 3.085938 -0.171875 3.171875 -0.171875 L 3.265625 -0.171875 L 3.265625 0 L 0.828125 0 L 0.828125 -0.171875 L 0.921875 -0.171875 C 1.003906 -0.171875 1.082031 -0.203125 1.15625 -0.265625 C 1.226562 -0.328125 1.285156 -0.40625 1.328125 -0.5 C 1.378906 -0.59375 1.414062 -0.691406 1.4375 -0.796875 C 1.46875 -0.910156 1.484375 -1.015625 1.484375 -1.109375 L 1.484375 -10.171875 C 1.484375 -10.242188 1.46875 -10.332031 1.4375 -10.4375 C 1.414062 -10.539062 1.378906 -10.632812 1.328125 -10.71875 C 1.285156 -10.8125 1.226562 -10.890625 1.15625 -10.953125 C 1.082031 -11.015625 1.003906 -11.046875 0.921875 -11.046875 L 0.828125 -11.046875 Z M 0.828125 -11.21875 "/></g></g></g><g fill="#5a0609" fill-opacity="1"><g transform="translate(292.211137, 279.641847)"><g><path d="M 7.65625 -3.015625 C 7.65625 -2.441406 7.539062 -1.953125 7.3125 -1.546875 C 7.082031 -1.148438 6.789062 -0.828125 6.4375 -0.578125 C 6.082031 -0.328125 5.679688 -0.144531 5.234375 -0.03125 C 4.785156 0.0820312 4.335938 0.140625 3.890625 0.140625 C 3.441406 0.140625 3.050781 0.09375 2.71875 0 C 2.394531 -0.09375 2.09375 -0.175781 1.8125 -0.25 C 1.632812 -0.3125 1.472656 -0.359375 1.328125 -0.390625 C 1.179688 -0.429688 1.035156 -0.453125 0.890625 -0.453125 L 0.890625 -2.390625 L 1.046875 -2.390625 C 1.046875 -1.960938 1.15625 -1.617188 1.375 -1.359375 C 1.601562 -1.109375 1.863281 -0.914062 2.15625 -0.78125 C 2.445312 -0.644531 2.738281 -0.554688 3.03125 -0.515625 C 3.332031 -0.472656 3.550781 -0.453125 3.6875 -0.453125 C 4.175781 -0.453125 4.59375 -0.523438 4.9375 -0.671875 C 5.289062 -0.816406 5.582031 -1.003906 5.8125 -1.234375 C 6.039062 -1.460938 6.207031 -1.71875 6.3125 -2 C 6.425781 -2.289062 6.484375 -2.582031 6.484375 -2.875 C 6.484375 -3.25 6.398438 -3.5625 6.234375 -3.8125 C 6.078125 -4.070312 5.867188 -4.296875 5.609375 -4.484375 C 5.359375 -4.679688 5.066406 -4.847656 4.734375 -4.984375 C 4.410156 -5.117188 4.078125 -5.253906 3.734375 -5.390625 C 3.347656 -5.535156 2.96875 -5.6875 2.59375 -5.84375 C 2.226562 -6.007812 1.894531 -6.207031 1.59375 -6.4375 C 1.300781 -6.664062 1.0625 -6.941406 0.875 -7.265625 C 0.695312 -7.585938 0.609375 -7.988281 0.609375 -8.46875 C 0.609375 -8.96875 0.703125 -9.398438 0.890625 -9.765625 C 1.085938 -10.128906 1.347656 -10.429688 1.671875 -10.671875 C 1.992188 -10.910156 2.363281 -11.085938 2.78125 -11.203125 C 3.195312 -11.328125 3.617188 -11.390625 4.046875 -11.390625 C 4.335938 -11.390625 4.613281 -11.367188 4.875 -11.328125 C 5.132812 -11.285156 5.382812 -11.238281 5.625 -11.1875 C 5.820312 -11.144531 6.007812 -11.109375 6.1875 -11.078125 C 6.363281 -11.046875 6.539062 -11.03125 6.71875 -11.03125 L 6.71875 -9.28125 L 6.546875 -9.28125 C 6.523438 -9.875 6.289062 -10.273438 5.84375 -10.484375 C 5.40625 -10.691406 4.796875 -10.796875 4.015625 -10.796875 C 3.554688 -10.796875 3.179688 -10.71875 2.890625 -10.5625 C 2.609375 -10.414062 2.378906 -10.226562 2.203125 -10 C 2.035156 -9.78125 1.921875 -9.539062 1.859375 -9.28125 C 1.796875 -9.03125 1.765625 -8.8125 1.765625 -8.625 C 1.765625 -8.300781 1.832031 -8.023438 1.96875 -7.796875 C 2.113281 -7.578125 2.304688 -7.378906 2.546875 -7.203125 C 2.785156 -7.035156 3.0625 -6.882812 3.375 -6.75 C 3.6875 -6.613281 4.015625 -6.484375 4.359375 -6.359375 C 4.742188 -6.210938 5.132812 -6.050781 5.53125 -5.875 C 5.925781 -5.707031 6.28125 -5.5 6.59375 -5.25 C 6.90625 -5 7.160156 -4.691406 7.359375 -4.328125 C 7.554688 -3.972656 7.65625 -3.535156 7.65625 -3.015625 Z M 7.65625 -3.015625 "/></g></g></g></svg>