<svg width="150" height="150" viewBox="0 0 150 150" fill="none" xmlns="http://www.w3.org/2000/svg">
<path d="M144.469 18.6309C142.972 18.0071 141.323 17.8412 139.732 18.1541C138.14 18.4669 136.677 19.2446 135.527 20.3887L135.357 20.5645L124.582 32.9923C114.216 26.2657 102.123 22.686 89.7656 22.686C77.4082 22.686 65.3154 26.2657 54.9492 32.9923L44.1738 20.588L44.0039 20.4122C42.857 19.2652 41.3959 18.4839 39.8051 18.1672C38.2143 17.8504 36.5653 18.0124 35.0665 18.6326C33.5678 19.2528 32.2865 20.3034 31.3847 21.6516C30.4829 22.9998 30.001 24.5851 30 26.2071V77.7696C30 108.139 56.8125 132.848 89.7656 132.848C122.719 132.848 149.531 108.139 149.531 77.7696V26.2071C149.531 24.5853 149.05 22.9999 148.149 21.6515C147.248 20.303 145.967 19.2519 144.469 18.6309ZM142.5 77.7696C142.5 103.188 120.727 124.059 93.2812 125.705V112.035L101.625 103.691C102.276 103.031 102.639 102.14 102.636 101.212C102.633 100.285 102.263 99.3961 101.608 98.7399C100.952 98.0837 100.064 97.7131 99.1368 97.7088C98.2093 97.7045 97.3177 98.0668 96.6562 98.7169L89.7656 105.607L82.875 98.7169C82.2135 98.0668 81.3219 97.7045 80.3945 97.7088C79.467 97.7131 78.5789 98.0837 77.9234 98.7399C77.268 99.3961 76.8984 100.285 76.8952 101.212C76.892 102.14 77.2554 103.031 77.9062 103.691L86.25 112.035V125.705C58.8047 124.059 37.0312 103.188 37.0312 77.7696V26.2071C37.0233 25.9738 37.0886 25.7439 37.2178 25.5496C37.347 25.3552 37.5338 25.2061 37.752 25.1231C37.9047 25.0608 38.0675 25.027 38.2324 25.0235C38.5065 25.0254 38.7699 25.1299 38.9707 25.3165L51.7207 39.9649C52.3019 40.634 53.1144 41.0589 53.9956 41.1545C54.8767 41.2501 55.7614 41.0094 56.4727 40.4805C59.888 37.9658 63.5896 35.8651 67.5 34.2227V49.6446C67.5 50.577 67.8704 51.4712 68.5297 52.1305C69.189 52.7898 70.0832 53.1602 71.0156 53.1602C71.948 53.1602 72.8422 52.7898 73.5015 52.1305C74.1609 51.4712 74.5312 50.577 74.5312 49.6446V31.7794C78.3597 30.7275 82.287 30.0756 86.25 29.8341V49.6446C86.25 50.577 86.6204 51.4712 87.2797 52.1305C87.939 52.7898 88.8332 53.1602 89.7656 53.1602C90.698 53.1602 91.5922 52.7898 92.2515 52.1305C92.9109 51.4712 93.2812 50.577 93.2812 49.6446V29.8341C97.2442 30.0756 101.172 30.7275 105 31.7794V49.6446C105 50.577 105.37 51.4712 106.03 52.1305C106.689 52.7898 107.583 53.1602 108.516 53.1602C109.448 53.1602 110.342 52.7898 111.002 52.1305C111.661 51.4712 112.031 50.577 112.031 49.6446V34.2227C115.943 35.8744 119.645 37.9848 123.059 40.5098C123.77 41.0387 124.655 41.2794 125.536 41.1838C126.417 41.0882 127.229 40.6633 127.811 39.9942L140.561 25.3458C140.729 25.1999 140.935 25.1049 141.155 25.072C141.375 25.0392 141.601 25.0697 141.804 25.1601C142.008 25.2504 142.181 25.3969 142.304 25.5823C142.428 25.7678 142.495 25.9845 142.5 26.2071V77.7696ZM69.8438 80.1134C69.8438 81.2722 69.5001 82.4051 68.8563 83.3687C68.2124 84.3322 67.2973 85.0832 66.2267 85.5267C65.156 85.9702 63.9779 86.0862 62.8413 85.8601C61.7047 85.6341 60.6606 85.076 59.8412 84.2566C59.0217 83.4371 58.4637 82.3931 58.2376 81.2565C58.0115 80.1199 58.1275 78.9417 58.571 77.8711C59.0145 76.8004 59.7655 75.8853 60.7291 75.2415C61.6926 74.5976 62.8255 74.254 63.9844 74.254C65.5384 74.254 67.0287 74.8713 68.1276 75.9701C69.2264 77.069 69.8438 78.5593 69.8438 80.1134ZM121.406 80.1134C121.406 81.2722 121.063 82.4051 120.419 83.3687C119.775 84.3322 118.86 85.0832 117.789 85.5267C116.718 85.9702 115.54 86.0862 114.404 85.8601C113.267 85.6341 112.223 85.076 111.404 84.2566C110.584 83.4371 110.026 82.3931 109.8 81.2565C109.574 80.1199 109.69 78.9417 110.134 77.8711C110.577 76.8004 111.328 75.8853 112.292 75.2415C113.255 74.5976 114.388 74.254 115.547 74.254C117.101 74.254 118.591 74.8713 119.69 75.9701C120.789 77.069 121.406 78.5593 121.406 80.1134Z" fill="#5A0609"/>
</svg>
