<svg width="30" height="31" viewBox="0 0 30 31" fill="none" xmlns="http://www.w3.org/2000/svg">
<path d="M8.33334 0.125C3.73833 0.125 0 3.95679 0 8.66667V22.3333C0 27.0432 3.73833 30.875 8.33334 30.875H21.6667C26.2617 30.875 30 27.0432 30 22.3333V8.66667C30 3.95679 26.2617 0.125 21.6667 0.125H8.33334ZM8.33334 3.54167H21.6667C24.4233 3.54167 26.6667 5.84108 26.6667 8.66667V22.3333C26.6667 25.1589 24.4233 27.4583 21.6667 27.4583H8.33334C5.57667 27.4583 3.33333 25.1589 3.33333 22.3333V8.66667C3.33333 5.84108 5.57667 3.54167 8.33334 3.54167ZM23.3333 5.25C22.4129 5.25 21.6667 6.01486 21.6667 6.95834C21.6667 7.90181 22.4129 8.66667 23.3333 8.66667C24.2538 8.66667 25 7.90181 25 6.95834C25 6.01486 24.2538 5.25 23.3333 5.25ZM15 6.95834C10.405 6.95834 6.66667 10.7901 6.66667 15.5C6.66667 20.2099 10.405 24.0417 15 24.0417C19.595 24.0417 23.3333 20.2099 23.3333 15.5C23.3333 10.7901 19.595 6.95834 15 6.95834ZM15 10.375C17.7567 10.375 20 12.6744 20 15.5C20 18.3256 17.7567 20.625 15 20.625C12.2433 20.625 10 18.3256 10 15.5C10 12.6744 12.2433 10.375 15 10.375Z" fill="#5A0609"/>
</svg>
